SplineFontDB: 3.2
FontName: Roboto-Bold
FullName: Roboto Bold
FamilyName: Roboto
Weight: Bold
Copyright: Copyright 2011 The Roboto Project Authors (https://github.com/googlefonts/roboto-classic)
Version: 3.009; 2024
ItalicAngle: 0
UnderlinePosition: -200
UnderlineWidth: 100
Ascent: 1536
Descent: 512
InvalidEm: 0
sfntRevision: 0x0003024e
LayerCount: 2
Layer: 0 1 "Back" 1
Layer: 1 1 "Fore" 0
XUID: [1021 710 -653102587 8234552]
StyleMap: 0x0020
FSType: 0
OS2Version: 4
OS2_WeightWidthSlopeOnly: 0
OS2_UseTypoMetrics: 0
CreationTime: 1221222574
ModificationTime: 1738045058
PfmFamily: 17
TTFWeight: 700
TTFWidth: 5
LineGap: 0
VLineGap: 0
Panose: 2 0 0 0 0 0 0 0 0 0
OS2TypoAscent: 1536
OS2TypoAOffset: 0
OS2TypoDescent: -512
OS2TypoDOffset: 0
OS2TypoLinegap: 102
OS2WinAscent: 1946
OS2WinAOffset: 0
OS2WinDescent: 512
OS2WinDOffset: 0
HheadAscent: 1900
HheadAOffset: 0
HheadDescent: -500
HheadDOffset: 0
OS2SubXSize: 1434
OS2SubYSize: 1331
OS2SubXOff: 0
OS2SubYOff: 287
OS2SupXSize: 1434
OS2SupYSize: 1331
OS2SupXOff: 0
OS2SupYOff: 977
OS2StrikeYSize: 102
OS2StrikeYPos: 512
OS2CapHeight: 1456
OS2XHeight: 1082
OS2Vendor: 'GOOG'
OS2CodePages: 2000019f.00000000
OS2UnicodeRanges: e00002ff.5000205b.00000020.00000000
Lookup: 1 0 0 "'c2sc' Capitals to Small Capitals lookup 0" { "'c2sc' Capitals to Small Capitals lookup 0 subtable"  } ['c2sc' ('DFLT' <'dflt' > 'cyrl' <'dflt' > 'grek' <'dflt' > 'latn' <'AZE ' 'CRT ' 'FRA ' 'MOL ' 'NAV ' 'ROM ' 'TRK ' 'dflt' > ) ]
Lookup: 1 0 0 "'smcp' Lowercase to Small Capitals lookup 1" { "'smcp' Lowercase to Small Capitals lookup 1 subtable"  } ['smcp' ('DFLT' <'dflt' > 'cyrl' <'dflt' > 'grek' <'dflt' > 'latn' <'AZE ' 'CRT ' 'FRA ' 'MOL ' 'NAV ' 'ROM ' 'TRK ' 'dflt' > ) ]
Lookup: 6 0 0 "'ccmp' Glyph Composition/Decomposition lookup 2" { "'ccmp' Glyph Composition/Decomposition lookup 2 subtable"  } ['ccmp' ('DFLT' <'dflt' > 'cyrl' <'dflt' > 'grek' <'dflt' > 'latn' <'AZE ' 'CRT ' 'FRA ' 'MOL ' 'NAV ' 'ROM ' 'TRK ' 'dflt' > ) ]

StartChar: .notdef
Encoding: 65536 -1 0
Width: 908
GlyphClass: 1
Flags: W
LayerCount: 2
Fore
SplineSet
777 1456 m 1,0,-1
 777 1402 l 1,1,-1
 127 1402 l 1,2,-1
 127 1456 l 1,3,-1
 777 1456 l 1,0,-1
154 1456 m 1,4,-1
 154 0 l 1,5,-1
 100 0 l 1,6,-1
 100 1456 l 1,7,-1
 154 1456 l 1,4,-1
808 1456 m 1,8,-1
 808 0 l 1,9,-1
 754 0 l 1,10,-1
 754 1456 l 1,11,-1
 808 1456 l 1,8,-1
777 54 m 1,12,-1
 777 0 l 1,13,-1
 127 0 l 1,14,-1
 127 54 l 1,15,-1
 777 54 l 1,12,-1
777 1426 m 1,16,-1
 184 30 l 1,17,-1
 126 30 l 1,18,-1
 719 1426 l 1,19,-1
 777 1426 l 1,16,-1
719 30 m 1,20,-1
 126 1426 l 1,21,-1
 184 1426 l 1,22,-1
 777 30 l 1,23,-1
 719 30 l 1,20,-1
EndSplineSet
EndChar

StartChar: exclam
Encoding: 33 33 5
Width: 554
GlyphClass: 1
Flags: W
LayerCount: 2
Fore
SplineSet
437 1456 m 1,0,-1
 404 445 l 1,1,-1
 164 445 l 1,2,-1
 130 1456 l 1,3,-1
 437 1456 l 1,0,-1
122 132 m 0,4,5
 122 196 122 196 166.5 238.5 c 128,-1,6
 211 281 211 281 284 281 c 0,7,8
 358 281 358 281 402 238.5 c 128,-1,9
 446 196 446 196 446 132 c 0,10,11
 446 70 446 70 402 27 c 128,-1,12
 358 -16 358 -16 284 -16 c 0,13,14
 211 -16 211 -16 166.5 27 c 128,-1,15
 122 70 122 70 122 132 c 0,4,5
EndSplineSet
EndChar

StartChar: quotedbl
Encoding: 34 34 6
Width: 652
GlyphClass: 1
Flags: W
LayerCount: 2
Fore
SplineSet
263 1537 m 1,0,-1
 263 1399 l 1,1,-1
 224 993 l 1,2,-1
 62 993 l 1,3,-1
 62 1386 l 1,4,-1
 62 1537 l 1,5,-1
 263 1537 l 1,0,-1
588 1537 m 1,6,-1
 588 1399 l 1,7,-1
 549 993 l 1,8,-1
 387 993 l 1,9,-1
 387 1395 l 1,10,-1
 387 1537 l 1,11,-1
 588 1537 l 1,6,-1
EndSplineSet
EndChar

StartChar: numbersign
Encoding: 35 35 7
Width: 1213
GlyphClass: 1
Flags: W
LayerCount: 2
Fore
SplineSet
215 0 m 1,0,-1
 469 1456 l 1,1,-1
 650 1456 l 1,2,-1
 396 0 l 1,3,-1
 215 0 l 1,0,-1
590 0 m 1,4,-1
 845 1456 l 1,5,-1
 1026 1456 l 1,6,-1
 771 0 l 1,7,-1
 590 0 l 1,4,-1
1175 871 m 1,8,-1
 134 871 l 1,9,-1
 134 1040 l 1,10,-1
 1175 1040 l 1,11,-1
 1175 871 l 1,8,-1
1099 410 m 1,12,-1
 59 410 l 1,13,-1
 59 578 l 1,14,-1
 1099 578 l 1,15,-1
 1099 410 l 1,12,-1
EndSplineSet
EndChar

StartChar: dollar
Encoding: 36 36 8
Width: 1175
GlyphClass: 1
Flags: W
LayerCount: 2
Fore
SplineSet
678 -189.049804688 m 1,0,-1
 678 1601.29980469 l 1,1,-1
 516 1601.29980469 l 1,2,-1
 516 -189.049804688 l 1,3,-1
 678 -189.049804688 l 1,0,-1
814.299804688 376.950195312 m 256,4,5
 814.299804688 340.095703125 814.299804688 340.095703125 799.900390625 309.3828125 c 128,-1,6
 785.5 278.669921875 785.5 278.669921875 758.5 256.935546875 c 256,7,8
 731.5 235.200195312 731.5 235.200195312 692.349609375 222.915039062 c 128,-1,9
 653.200195312 210.629882812 653.200195312 210.629882812 602.799804688 210.629882812 c 0,10,11
 546.099609375 210.629882812 546.099609375 210.629882812 498.849609375 223.860351562 c 128,-1,12
 451.599609375 237.08984375 451.599609375 237.08984375 418.299804688 265.439453125 c 0,13,14
 384.099609375 293.790039062 384.099609375 293.790039062 365.200195312 338.205078125 c 128,-1,15
 346.299804688 382.620117188 346.299804688 382.620117188 344.5 444.990234375 c 1,16,-1
 96.099609375 444.990234375 l 1,17,18
 96.099609375 338.205078125 96.099609375 338.205078125 135.25 258.825195312 c 128,-1,19
 174.400390625 179.4453125 174.400390625 179.4453125 241.900390625 120.854492188 c 0,20,21
 313 61.3203125 313 61.3203125 408.849609375 30.607421875 c 128,-1,22
 504.700195312 -0.1044921875 504.700195312 -0.1044921875 602.799804688 -0.1044921875 c 0,23,24
 702.700195312 -0.1044921875 702.700195312 -0.1044921875 787.299804688 24.9375 c 128,-1,25
 871.900390625 49.9794921875 871.900390625 49.9794921875 933.099609375 99.1201171875 c 0,26,27
 994.299804688 147.314453125 994.299804688 147.314453125 1028.95019531 217.716796875 c 128,-1,28
 1063.59960938 288.120117188 1063.59960938 288.120117188 1063.59960938 378.83984375 c 0,29,30
 1063.59960938 483.735351562 1063.59960938 483.735351562 1017.70019531 564.060546875 c 128,-1,31
 971.799804688 644.384765625 971.799804688 644.384765625 894.400390625 704.865234375 c 0,32,33
 843.099609375 741.720703125 843.099609375 741.720703125 781.900390625 770.0703125 c 128,-1,34
 720.700195312 798.419921875 720.700195312 798.419921875 653.200195312 818.264648438 c 0,35,36
 590.200195312 836.220703125 590.200195312 836.220703125 540.25 857.009765625 c 128,-1,37
 490.299804688 877.799804688 490.299804688 877.799804688 455.200195312 903.314453125 c 0,38,39
 420.099609375 927.884765625 420.099609375 927.884765625 401.650390625 959.0703125 c 128,-1,40
 383.200195312 990.254882812 383.200195312 990.254882812 383.200195312 1029 c 0,41,42
 383.200195312 1065.85449219 383.200195312 1065.85449219 397.150390625 1097.51269531 c 128,-1,43
 411.099609375 1129.16992188 411.099609375 1129.16992188 438.099609375 1152.79492188 c 0,44,45
 465.099609375 1175.47460938 465.099609375 1175.47460938 504.25 1188.23242188 c 128,-1,46
 543.400390625 1200.99023438 543.400390625 1200.99023438 593.799804688 1200.99023438 c 0,47,48
 648.700195312 1200.99023438 648.700195312 1200.99023438 689.650390625 1185.39746094 c 128,-1,49
 730.599609375 1169.8046875 730.599609375 1169.8046875 758.5 1142.40039062 c 0,50,51
 785.5 1114.04980469 785.5 1114.04980469 799.450195312 1075.3046875 c 128,-1,52
 813.400390625 1036.56054688 813.400390625 1036.56054688 815.200195312 990.254882812 c 1,53,-1
 1061.79980469 990.254882812 l 1,54,55
 1061.79980469 1082.86523438 1061.79980469 1082.86523438 1027.59960938 1160.35449219 c 128,-1,56
 993.400390625 1237.84570312 993.400390625 1237.84570312 932.200195312 1294.54492188 c 0,57,58
 871 1350.29980469 871 1350.29980469 785.950195312 1381.48535156 c 128,-1,59
 700.900390625 1412.66992188 700.900390625 1412.66992188 598.299804688 1412.66992188 c 0,60,61
 499.299804688 1412.66992188 499.299804688 1412.66992188 414.700195312 1385.73730469 c 128,-1,62
 330.099609375 1358.8046875 330.099609375 1358.8046875 268 1308.72070312 c 256,63,64
 205.900390625 1258.63476562 205.900390625 1258.63476562 170.799804688 1187.75976562 c 128,-1,65
 135.700195312 1116.88476562 135.700195312 1116.88476562 135.700195312 1029.9453125 c 0,66,67
 135.700195312 954.345703125 135.700195312 954.345703125 162.25 890.084960938 c 128,-1,68
 188.799804688 825.825195312 188.799804688 825.825195312 241 772.904296875 c 256,69,70
 293.200195312 719.985351562 293.200195312 719.985351562 375.549804688 675.5703125 c 128,-1,71
 457.900390625 631.154296875 457.900390625 631.154296875 566.799804688 599.970703125 c 0,72,73
 637 580.125 637 580.125 684.25 556.97265625 c 128,-1,74
 731.5 533.8203125 731.5 533.8203125 761.200195312 506.415039062 c 0,75,76
 790 478.064453125 790 478.064453125 802.150390625 445.935546875 c 128,-1,77
 814.299804688 413.8046875 814.299804688 413.8046875 814.299804688 376.950195312 c 256,4,5
EndSplineSet
Substitution2: "'c2sc' Capitals to Small Capitals lookup 0 subtable" dollar.c2sc
Position2: "'cpsp' Capital Spacing lookup 0 subtable" dx=36 dy=0 dh=72 dv=0
EndChar

StartChar: percent
Encoding: 37 37 9
Width: 1514
GlyphClass: 1
Flags: W
LayerCount: 2
Fore
SplineSet
96 1099 m 2,0,-1
 96 1176 l 2,1,2
 96 1259 96 1259 132 1327 c 128,-1,3
 168 1395 168 1395 238 1436 c 128,-1,4
 308 1477 308 1477 410 1477 c 0,5,6
 515 1477 515 1477 585.5 1436 c 128,-1,7
 656 1395 656 1395 691.5 1327 c 128,-1,8
 727 1259 727 1259 727 1176 c 2,9,-1
 727 1099 l 2,10,11
 727 1018 727 1018 691.5 950 c 128,-1,12
 656 882 656 882 586 841 c 128,-1,13
 516 800 516 800 412 800 c 0,14,15
 309 800 309 800 238.5 841 c 128,-1,16
 168 882 168 882 132 950 c 128,-1,17
 96 1018 96 1018 96 1099 c 2,0,-1
287 1176 m 2,18,-1
 287 1099 l 2,19,20
 287 1064 287 1064 300.5 1032.5 c 128,-1,21
 314 1001 314 1001 342.5 981.5 c 128,-1,22
 371 962 371 962 412 962 c 0,23,24
 455 962 455 962 482 981.5 c 128,-1,25
 509 1001 509 1001 522 1032.5 c 128,-1,26
 535 1064 535 1064 535 1099 c 2,27,-1
 535 1176 l 2,28,29
 535 1213 535 1213 521.5 1244.5 c 128,-1,30
 508 1276 508 1276 480.5 1295.5 c 128,-1,31
 453 1315 453 1315 410 1315 c 0,32,33
 370 1315 370 1315 342 1295.5 c 128,-1,34
 314 1276 314 1276 300.5 1244.5 c 128,-1,35
 287 1213 287 1213 287 1176 c 2,18,-1
792 280 m 2,36,-1
 792 357 l 2,37,38
 792 439 792 439 828.5 507 c 128,-1,39
 865 575 865 575 935.5 616 c 128,-1,40
 1006 657 1006 657 1109 657 c 0,41,42
 1213 657 1213 657 1283 616 c 128,-1,43
 1353 575 1353 575 1389 507 c 128,-1,44
 1425 439 1425 439 1425 357 c 2,45,-1
 1425 280 l 2,46,47
 1425 198 1425 198 1389.5 130 c 128,-1,48
 1354 62 1354 62 1284 21 c 128,-1,49
 1214 -20 1214 -20 1111 -20 c 0,50,51
 1007 -20 1007 -20 936 21 c 128,-1,52
 865 62 865 62 828.5 130 c 128,-1,53
 792 198 792 198 792 280 c 2,36,-1
984 357 m 2,54,-1
 984 280 l 2,55,56
 984 244 984 244 1000 212 c 128,-1,57
 1016 180 1016 180 1044.5 161 c 128,-1,58
 1073 142 1073 142 1111 142 c 0,59,60
 1159 142 1159 142 1186 161 c 128,-1,61
 1213 180 1213 180 1223.5 212 c 128,-1,62
 1234 244 1234 244 1234 280 c 2,63,-1
 1234 357 l 2,64,65
 1234 393 1234 393 1220 424.5 c 128,-1,66
 1206 456 1206 456 1178.5 475.5 c 128,-1,67
 1151 495 1151 495 1109 495 c 256,68,69
 1067 495 1067 495 1039.5 475.5 c 128,-1,70
 1012 456 1012 456 998 424.5 c 128,-1,71
 984 393 984 393 984 357 c 2,54,-1
1180 1248 m 1,72,-1
 469 110 l 1,73,-1
 329 184 l 1,74,-1
 1040 1322 l 1,75,-1
 1180 1248 l 1,72,-1
EndSplineSet
EndChar

StartChar: ampersand
Encoding: 38 38 10
Width: 1346
GlyphClass: 1
Flags: W
LayerCount: 2
Fore
SplineSet
341 779 m 1,0,-1
 621 960 l 2,1,2
 683 1001 683 1001 704 1039 c 128,-1,3
 725 1077 725 1077 725 1124 c 256,4,5
 725 1171 725 1171 690 1211.5 c 128,-1,6
 655 1252 655 1252 592 1252 c 0,7,8
 547 1252 547 1252 516 1231.5 c 128,-1,9
 485 1211 485 1211 469.5 1177 c 128,-1,10
 454 1143 454 1143 454 1101 c 0,11,12
 454 1056 454 1056 478 1009.5 c 128,-1,13
 502 963 502 963 543 911.5 c 128,-1,14
 584 860 584 860 634 800 c 2,15,-1
 1321 0 l 1,16,-1
 994 0 l 1,17,-1
 434 648 l 2,18,19
 363 736 363 736 310 809.5 c 128,-1,20
 257 883 257 883 227 953 c 128,-1,21
 197 1023 197 1023 197 1097 c 0,22,23
 197 1211 197 1211 246 1296.5 c 128,-1,24
 295 1382 295 1382 384 1429.5 c 128,-1,25
 473 1477 473 1477 593 1477 c 0,26,27
 706 1477 706 1477 789 1430.5 c 128,-1,28
 872 1384 872 1384 917.5 1308 c 128,-1,29
 963 1232 963 1232 963 1141 c 0,30,31
 963 1073 963 1073 938 1015.5 c 128,-1,32
 913 958 913 958 869 909.5 c 128,-1,33
 825 861 825 861 768 820 c 2,34,-1
 449 593 l 1,35,36
 412 559 412 559 393 526 c 128,-1,37
 374 493 374 493 367 463.5 c 128,-1,38
 360 434 360 434 360 407 c 0,39,40
 360 349 360 349 385 303 c 128,-1,41
 410 257 410 257 455 230.5 c 128,-1,42
 500 204 500 204 560 204 c 0,43,44
 642 204 642 204 719 240.5 c 128,-1,45
 796 277 796 277 857 344.5 c 128,-1,46
 918 412 918 412 954 505 c 128,-1,47
 990 598 990 598 990 710 c 1,48,-1
 1234 710 l 1,49,50
 1234 598 1234 598 1212 497.5 c 128,-1,51
 1190 397 1190 397 1141 311.5 c 128,-1,52
 1092 226 1092 226 1011 160 c 0,53,54
 1005 155 1005 155 994.5 145.5 c 128,-1,55
 984 136 984 136 977 131 c 0,56,57
 881 54 881 54 777 16.5 c 128,-1,58
 673 -21 673 -21 545 -21 c 0,59,60
 399 -21 399 -21 292.5 32 c 128,-1,61
 186 85 186 85 128.5 178 c 128,-1,62
 71 271 71 271 71 391 c 0,63,64
 71 479 71 479 105.5 544.5 c 128,-1,65
 140 610 140 610 201 666 c 128,-1,66
 262 722 262 722 341 779 c 1,0,-1
EndSplineSet
Substitution2: "'smcp' Lowercase to Small Capitals lookup 1 subtable" ampersand.c2sc
Substitution2: "'c2sc' Capitals to Small Capitals lookup 0 subtable" ampersand.c2sc
Position2: "'cpsp' Capital Spacing lookup 0 subtable" dx=36 dy=0 dh=72 dv=0
EndChar

StartChar: quotesingle
Encoding: 39 39 11
Width: 330
GlyphClass: 1
Flags: W
LayerCount: 2
Fore
SplineSet
274 1536 m 1,0,-1
 274 1391 l 1,1,-1
 245 992 l 1,2,-1
 63 992 l 1,3,-1
 64 1376 l 1,4,-1
 64 1536 l 1,5,-1
 274 1536 l 1,0,-1
EndSplineSet
EndChar

StartChar: parenleft
Encoding: 40 40 12
Width: 716
GlyphClass: 1
Flags: W
LayerCount: 2
Fore
SplineSet
125 570 m 2,0,-1
 125 592 l 2,1,2
 125 803 125 803 169.5 975 c 128,-1,3
 214 1147 214 1147 287.5 1277.5 c 128,-1,4
 361 1408 361 1408 448 1494 c 128,-1,5
 535 1580 535 1580 621 1618 c 1,6,-1
 676 1466 l 1,7,8
 619 1424 619 1424 564 1350.5 c 128,-1,9
 509 1277 509 1277 464.5 1170.5 c 128,-1,10
 420 1064 420 1064 393 920.5 c 128,-1,11
 366 777 366 777 366 594 c 2,12,-1
 366 568 l 2,13,14
 366 385 366 385 393 241.5 c 128,-1,15
 420 98 420 98 464.5 -9.5 c 128,-1,16
 509 -117 509 -117 564 -191 c 128,-1,17
 619 -265 619 -265 676 -308 c 1,18,-1
 621 -456 l 1,19,20
 535 -418 535 -418 448 -332.5 c 128,-1,21
 361 -247 361 -247 287.5 -116.5 c 128,-1,22
 214 14 214 14 169.5 186.5 c 128,-1,23
 125 359 125 359 125 570 c 2,0,-1
EndSplineSet
EndChar

StartChar: parenright
Encoding: 41 41 13
Width: 719
GlyphClass: 1
Flags: W
LayerCount: 2
Fore
SplineSet
607 592 m 2,0,-1
 607 570 l 2,1,2
 607 366 607 366 561 194.5 c 128,-1,3
 515 23 515 23 439.5 -109.5 c 128,-1,4
 364 -242 364 -242 274.5 -330 c 128,-1,5
 185 -418 185 -418 96 -456 c 1,6,-1
 40 -308 l 1,7,8
 97 -266 97 -266 151.5 -192 c 128,-1,9
 206 -118 206 -118 251 -10.5 c 128,-1,10
 296 97 296 97 322.5 241 c 128,-1,11
 349 385 349 385 349 568 c 2,12,-1
 349 594 l 2,13,14
 349 777 349 777 322 921 c 128,-1,15
 295 1065 295 1065 249.5 1172.5 c 128,-1,16
 204 1280 204 1280 149.5 1353.5 c 128,-1,17
 95 1427 95 1427 40 1469 c 1,18,-1
 96 1618 l 1,19,20
 185 1580 185 1580 274.5 1491.5 c 128,-1,21
 364 1403 364 1403 439.5 1271 c 128,-1,22
 515 1139 515 1139 561 967.5 c 128,-1,23
 607 796 607 796 607 592 c 2,0,-1
EndSplineSet
EndChar

StartChar: asterisk
Encoding: 42 42 14
Width: 930
GlyphClass: 1
Flags: W
LayerCount: 2
Fore
SplineSet
126 692 m 1,0,-1
 345 965 l 1,1,-1
 27 1055 l 1,2,-1
 87 1231 l 1,3,-1
 399 1107 l 1,4,-1
 380 1456 l 1,5,-1
 574 1456 l 1,6,-1
 553 1100 l 1,7,-1
 859 1223 l 1,8,-1
 918 1044 l 1,9,-1
 595 954 l 1,10,-1
 807 687 l 1,11,-1
 650 577 l 1,12,-1
 466 869 l 1,13,-1
 283 586 l 1,14,-1
 126 692 l 1,0,-1
EndSplineSet
EndChar

StartChar: plus
Encoding: 43 43 15
Width: 1116
GlyphClass: 1
Flags: W
LayerCount: 2
Fore
SplineSet
1054 811 m 1,0,-1
 1054 560 l 1,1,-1
 56 560 l 1,2,-1
 56 811 l 1,3,-1
 1054 811 l 1,0,-1
692 1206 m 1,4,-1
 692 146 l 1,5,-1
 419 146 l 1,6,-1
 419 1206 l 1,7,-1
 692 1206 l 1,4,-1
EndSplineSet
EndChar

StartChar: comma
Encoding: 44 44 16
Width: 504
GlyphClass: 1
Flags: W
LayerCount: 2
Fore
SplineSet
385 243 m 1,0,-1
 384 50 l 2,1,2
 384 -61 384 -61 328.5 -174 c 128,-1,3
 273 -287 273 -287 188 -359 c 1,4,-1
 38 -282 l 1,5,6
 63 -236 63 -236 87 -190 c 128,-1,7
 111 -144 111 -144 127 -89 c 128,-1,8
 143 -34 143 -34 143 36 c 2,9,-1
 143 243 l 1,10,-1
 385 243 l 1,0,-1
EndSplineSet
EndChar

StartChar: hyphen
Encoding: 45 45 17
Width: 807
GlyphClass: 1
Flags: W
LayerCount: 2
Fore
SplineSet
680 738 m 1,0,-1
 680 512 l 1,1,-1
 115 512 l 1,2,-1
 115 738 l 1,3,-1
 680 738 l 1,0,-1
EndSplineSet
EndChar

StartChar: period
Encoding: 46 46 18
Width: 594
GlyphClass: 1
Flags: W
LayerCount: 2
Fore
SplineSet
126 139 m 256,0,1
 126 203 126 203 170.5 246 c 128,-1,2
 215 289 215 289 289 289 c 256,3,4
 363 289 363 289 407.5 246 c 128,-1,5
 452 203 452 203 452 139 c 256,6,7
 452 75 452 75 407.5 32 c 128,-1,8
 363 -11 363 -11 289 -11 c 256,9,10
 215 -11 215 -11 170.5 32 c 128,-1,11
 126 75 126 75 126 139 c 256,0,1
EndSplineSet
EndChar

StartChar: slash
Encoding: 47 47 19
Width: 760
GlyphClass: 1
Flags: W
LayerCount: 2
Fore
SplineSet
734 1456 m 1,0,-1
 200 -125 l 1,1,-1
 -14 -125 l 1,2,-1
 520 1456 l 1,3,-1
 734 1456 l 1,0,-1
EndSplineSet
Substitution2: "'frac' Diagonal Fractions lookup 23 subtable" fraction
EndChar

StartChar: zero
Encoding: 48 48 20
Width: 1175
GlyphClass: 1
Flags: W
LayerCount: 2
Fore
SplineSet
1080 856 m 2,0,-1
 1080 604 l 2,1,2
 1080 440 1080 440 1045 321.5 c 128,-1,3
 1010 203 1010 203 944.5 127.5 c 128,-1,4
 879 52 879 52 789 16 c 128,-1,5
 699 -20 699 -20 589 -20 c 0,6,7
 501 -20 501 -20 425 2.5 c 128,-1,8
 349 25 349 25 288.5 73 c 128,-1,9
 228 121 228 121 184.5 194.5 c 128,-1,10
 141 268 141 268 118 370 c 128,-1,11
 95 472 95 472 95 604 c 2,12,-1
 95 856 l 2,13,14
 95 1020 95 1020 130.5 1137.5 c 128,-1,15
 166 1255 166 1255 231.5 1330 c 128,-1,16
 297 1405 297 1405 387 1440.5 c 128,-1,17
 477 1476 477 1476 587 1476 c 0,18,19
 675 1476 675 1476 750.5 1453.5 c 128,-1,20
 826 1431 826 1431 887 1384 c 128,-1,21
 948 1337 948 1337 991 1263.5 c 128,-1,22
 1034 1190 1034 1190 1057 1088.5 c 128,-1,23
 1080 987 1080 987 1080 856 c 2,0,-1
791 566 m 2,24,-1
 791 895 l 2,25,26
 791 974 791 974 782.5 1033 c 128,-1,27
 774 1092 774 1092 757 1133.5 c 128,-1,28
 740 1175 740 1175 715 1201 c 128,-1,29
 690 1227 690 1227 658 1239 c 128,-1,30
 626 1251 626 1251 587 1251 c 0,31,32
 538 1251 538 1251 500.5 1232 c 128,-1,33
 463 1213 463 1213 437 1171.5 c 128,-1,34
 411 1130 411 1130 397.5 1061.5 c 128,-1,35
 384 993 384 993 384 895 c 2,36,-1
 384 566 l 2,37,38
 384 487 384 487 392.5 427 c 128,-1,39
 401 367 401 367 418.5 324.5 c 128,-1,40
 436 282 436 282 460.5 255.5 c 128,-1,41
 485 229 485 229 517.5 217 c 128,-1,42
 550 205 550 205 589 205 c 0,43,44
 637 205 637 205 674.5 224.5 c 128,-1,45
 712 244 712 244 738.5 286.5 c 128,-1,46
 765 329 765 329 778 398 c 128,-1,47
 791 467 791 467 791 566 c 2,24,-1
EndSplineSet
Substitution2: "'subs' Subscript lookup 30 subtable" uni2080
Substitution2: "'sups' Superscript lookup 29 subtable" uni2070
Substitution2: "'numr' Numerators lookup 28 subtable" zero.frac
Substitution2: "'dnom' Denominators lookup 27 subtable" zero.dnom
Substitution2: "'frac' Diagonal Fractions lookup 26 subtable" zero.frac
Substitution2: "Single Substitution lookup 25 subtable" zero.dnom
Substitution2: "'pnum' Proportional Numbers lookup 20 subtable" zero.pnum
Substitution2: "'onum' Oldstyle Figures lookup 19 subtable" zero.oldstyle
Substitution2: "'c2sc' Capitals to Small Capitals lookup 0 subtable" zero.c2sc
Position2: "'cpsp' Capital Spacing lookup 0 subtable" dx=36 dy=0 dh=72 dv=0
EndChar

StartChar: one
Encoding: 49 49 21
Width: 1175
GlyphClass: 1
Flags: W
LayerCount: 2
Fore
SplineSet
801 1459 m 1,0,-1
 801 0 l 1,1,-1
 514 0 l 1,2,-1
 514 1127 l 1,3,-1
 168 1017 l 1,4,-1
 168 1244 l 1,5,-1
 771 1459 l 1,6,-1
 801 1459 l 1,0,-1
EndSplineSet
Substitution2: "'subs' Subscript lookup 30 subtable" uni2081
Substitution2: "'sups' Superscript lookup 29 subtable" uni00B9
Substitution2: "'numr' Numerators lookup 28 subtable" uni00B9
Substitution2: "'dnom' Denominators lookup 27 subtable" one.dnom
Substitution2: "'frac' Diagonal Fractions lookup 26 subtable" uni00B9
Substitution2: "Single Substitution lookup 25 subtable" one.dnom
Substitution2: "'pnum' Proportional Numbers lookup 20 subtable" one.pnum
Substitution2: "'onum' Oldstyle Figures lookup 19 subtable" one.oldstyle
Substitution2: "'c2sc' Capitals to Small Capitals lookup 0 subtable" one.c2sc
Position2: "'cpsp' Capital Spacing lookup 0 subtable" dx=36 dy=0 dh=72 dv=0
EndChar

StartChar: two
Encoding: 50 50 22
Width: 1175
GlyphClass: 1
Flags: W
LayerCount: 2
Fore
SplineSet
1096 225 m 1,0,-1
 1096 0 l 1,1,-1
 100 0 l 1,2,-1
 100 192 l 1,3,-1
 571 697 l 2,4,5
 642 776 642 776 683 836.5 c 128,-1,6
 724 897 724 897 742.5 945.5 c 128,-1,7
 761 994 761 994 761 1038 c 0,8,9
 761 1104 761 1104 739 1151.5 c 128,-1,10
 717 1199 717 1199 674.5 1225.5 c 128,-1,11
 632 1252 632 1252 570 1252 c 0,12,13
 504 1252 504 1252 456.5 1219.5 c 128,-1,14
 409 1187 409 1187 384.5 1130 c 128,-1,15
 360 1073 360 1073 360 1001 c 1,16,-1
 71 1001 l 1,17,18
 71 1131 71 1131 133 1239.5 c 128,-1,19
 195 1348 195 1348 308 1412.5 c 128,-1,20
 421 1477 421 1477 576 1477 c 0,21,22
 729 1477 729 1477 834.5 1427.5 c 128,-1,23
 940 1378 940 1378 994.5 1285.5 c 128,-1,24
 1049 1193 1049 1193 1049 1065 c 0,25,26
 1049 993 1049 993 1026 924.5 c 128,-1,27
 1003 856 1003 856 960.5 788.5 c 128,-1,28
 918 721 918 721 858 652 c 128,-1,29
 798 583 798 583 725 509 c 1,30,-1
 472 225 l 1,31,-1
 1096 225 l 1,0,-1
EndSplineSet
Substitution2: "'subs' Subscript lookup 30 subtable" uni2082
Substitution2: "'sups' Superscript lookup 29 subtable" uni00B2
Substitution2: "'numr' Numerators lookup 28 subtable" uni00B2
Substitution2: "'dnom' Denominators lookup 27 subtable" two.dnom
Substitution2: "'frac' Diagonal Fractions lookup 26 subtable" uni00B2
Substitution2: "Single Substitution lookup 25 subtable" two.dnom
Substitution2: "'pnum' Proportional Numbers lookup 20 subtable" two.pnum
Substitution2: "'onum' Oldstyle Figures lookup 19 subtable" two.oldstyle
Substitution2: "'c2sc' Capitals to Small Capitals lookup 0 subtable" two.c2sc
Position2: "'cpsp' Capital Spacing lookup 0 subtable" dx=36 dy=0 dh=72 dv=0
EndChar

StartChar: three
Encoding: 51 51 23
Width: 1175
GlyphClass: 1
Flags: W
LayerCount: 2
Fore
SplineSet
395 853 m 1,0,-1
 549 853 l 2,1,2
 623 853 623 853 671 878.5 c 128,-1,3
 719 904 719 904 742.5 950.5 c 128,-1,4
 766 997 766 997 766 1059 c 0,5,6
 766 1115 766 1115 744.5 1158.5 c 128,-1,7
 723 1202 723 1202 679 1227 c 128,-1,8
 635 1252 635 1252 568 1252 c 0,9,10
 515 1252 515 1252 470 1230.5 c 128,-1,11
 425 1209 425 1209 398 1171 c 128,-1,12
 371 1133 371 1133 371 1079 c 1,13,-1
 82 1079 l 1,14,15
 82 1199 82 1199 146.5 1288 c 128,-1,16
 211 1377 211 1377 320 1427 c 128,-1,17
 429 1477 429 1477 560 1477 c 0,18,19
 708 1477 708 1477 819 1429.5 c 128,-1,20
 930 1382 930 1382 992 1290 c 128,-1,21
 1054 1198 1054 1198 1054 1062 c 0,22,23
 1054 993 1054 993 1022 928.5 c 128,-1,24
 990 864 990 864 930.5 812.5 c 128,-1,25
 871 761 871 761 786 730.5 c 128,-1,26
 701 700 701 700 595 700 c 2,27,-1
 395 700 l 1,28,-1
 395 853 l 1,0,-1
395 634 m 1,29,-1
 395 783 l 1,30,-1
 595 783 l 2,31,32
 714 783 714 783 804 756 c 128,-1,33
 894 729 894 729 955 678.5 c 128,-1,34
 1016 628 1016 628 1047 559.5 c 128,-1,35
 1078 491 1078 491 1078 408 c 0,36,37
 1078 306 1078 306 1039 226.5 c 128,-1,38
 1000 147 1000 147 929.5 92 c 128,-1,39
 859 37 859 37 765 8.5 c 128,-1,40
 671 -20 671 -20 560 -20 c 0,41,42
 468 -20 468 -20 379.5 5.5 c 128,-1,43
 291 31 291 31 219.5 82.5 c 128,-1,44
 148 134 148 134 105.5 212.5 c 128,-1,45
 63 291 63 291 63 399 c 1,46,-1
 352 399 l 1,47,48
 352 343 352 343 380 299 c 128,-1,49
 408 255 408 255 457.5 230 c 128,-1,50
 507 205 507 205 568 205 c 0,51,52
 637 205 637 205 686.5 230.5 c 128,-1,53
 736 256 736 256 762.5 302.5 c 128,-1,54
 789 349 789 349 789 411 c 0,55,56
 789 491 789 491 760 539.5 c 128,-1,57
 731 588 731 588 677 611 c 128,-1,58
 623 634 623 634 549 634 c 2,59,-1
 395 634 l 1,29,-1
EndSplineSet
Substitution2: "'subs' Subscript lookup 30 subtable" uni2083
Substitution2: "'sups' Superscript lookup 29 subtable" uni00B3
Substitution2: "'numr' Numerators lookup 28 subtable" uni00B3
Substitution2: "'dnom' Denominators lookup 27 subtable" three.dnom
Substitution2: "'frac' Diagonal Fractions lookup 26 subtable" uni00B3
Substitution2: "Single Substitution lookup 25 subtable" three.dnom
Substitution2: "'pnum' Proportional Numbers lookup 20 subtable" three.pnum
Substitution2: "'onum' Oldstyle Figures lookup 19 subtable" three.oldstyle
Substitution2: "'c2sc' Capitals to Small Capitals lookup 0 subtable" three.c2sc
Position2: "'cpsp' Capital Spacing lookup 0 subtable" dx=36 dy=0 dh=72 dv=0
EndChar

StartChar: four
Encoding: 52 52 24
Width: 1175
GlyphClass: 1
Flags: W
LayerCount: 2
Fore
SplineSet
1120 544 m 1,0,-1
 1120 318 l 1,1,-1
 71 318 l 1,2,-1
 57 493 l 1,3,-1
 664 1456 l 1,4,-1
 893 1456 l 1,5,-1
 645 1041 l 1,6,-1
 343 544 l 1,7,-1
 1120 544 l 1,0,-1
955 1456 m 1,8,-1
 955 0 l 1,9,-1
 667 0 l 1,10,-1
 667 1456 l 1,11,-1
 955 1456 l 1,8,-1
EndSplineSet
Substitution2: "'subs' Subscript lookup 30 subtable" uni2084
Substitution2: "'sups' Superscript lookup 29 subtable" uni2074
Substitution2: "'numr' Numerators lookup 28 subtable" four.frac
Substitution2: "'dnom' Denominators lookup 27 subtable" four.dnom
Substitution2: "'frac' Diagonal Fractions lookup 26 subtable" four.frac
Substitution2: "Single Substitution lookup 25 subtable" four.dnom
Substitution2: "'pnum' Proportional Numbers lookup 20 subtable" four.pnum
Substitution2: "'onum' Oldstyle Figures lookup 19 subtable" four.oldstyle
Substitution2: "'c2sc' Capitals to Small Capitals lookup 0 subtable" four.c2sc
Position2: "'cpsp' Capital Spacing lookup 0 subtable" dx=36 dy=0 dh=72 dv=0
EndChar

StartChar: five
Encoding: 53 53 25
Width: 1175
GlyphClass: 1
Flags: W
LayerCount: 2
Fore
SplineSet
371 663 m 1,0,-1
 141 718 l 1,1,-1
 224 1456 l 1,2,-1
 1042 1456 l 1,3,-1
 1042 1223 l 1,4,-1
 461 1223 l 1,5,-1
 425 900 l 1,6,7
 454 917 454 917 513 936.5 c 128,-1,8
 572 956 572 956 645 956 c 0,9,10
 751 956 751 956 833 923 c 128,-1,11
 915 890 915 890 972.5 827 c 128,-1,12
 1030 764 1030 764 1060 673 c 128,-1,13
 1090 582 1090 582 1090 467 c 0,14,15
 1090 370 1090 370 1060 282.5 c 128,-1,16
 1030 195 1030 195 969 126.5 c 128,-1,17
 908 58 908 58 816 19 c 128,-1,18
 724 -20 724 -20 598 -20 c 0,19,20
 504 -20 504 -20 416.5 8 c 128,-1,21
 329 36 329 36 259.5 91 c 128,-1,22
 190 146 190 146 148.5 224.5 c 128,-1,23
 107 303 107 303 105 404 c 1,24,-1
 391 404 l 1,25,26
 397 342 397 342 423.5 297.5 c 128,-1,27
 450 253 450 253 494 229 c 128,-1,28
 538 205 538 205 597 205 c 0,29,30
 652 205 652 205 691 226 c 128,-1,31
 730 247 730 247 754 284.5 c 128,-1,32
 778 322 778 322 789.5 372.5 c 128,-1,33
 801 423 801 423 801 482 c 256,34,35
 801 541 801 541 787 589 c 128,-1,36
 773 637 773 637 744 672 c 128,-1,37
 715 707 715 707 670.5 726 c 128,-1,38
 626 745 626 745 567 745 c 0,39,40
 487 745 487 745 443.5 720 c 128,-1,41
 400 695 400 695 371 663 c 1,0,-1
EndSplineSet
Substitution2: "'subs' Subscript lookup 30 subtable" uni2085
Substitution2: "'sups' Superscript lookup 29 subtable" uni2075
Substitution2: "'numr' Numerators lookup 28 subtable" five.frac
Substitution2: "'dnom' Denominators lookup 27 subtable" five.dnom
Substitution2: "'frac' Diagonal Fractions lookup 26 subtable" five.frac
Substitution2: "Single Substitution lookup 25 subtable" five.dnom
Substitution2: "'pnum' Proportional Numbers lookup 20 subtable" five.pnum
Substitution2: "'onum' Oldstyle Figures lookup 19 subtable" five.oldstyle
Substitution2: "'c2sc' Capitals to Small Capitals lookup 0 subtable" five.c2sc
Position2: "'cpsp' Capital Spacing lookup 0 subtable" dx=36 dy=0 dh=72 dv=0
EndChar

StartChar: six
Encoding: 54 54 26
Width: 1175
GlyphClass: 1
Flags: W
LayerCount: 2
Fore
SplineSet
843 1471 m 2,0,-1
 885 1471 l 1,1,-1
 885 1241 l 1,2,-1
 868 1241 l 2,3,4
 754 1241 754 1241 665 1207 c 128,-1,5
 576 1173 576 1173 514.5 1110.5 c 128,-1,6
 453 1048 453 1048 420.5 960 c 128,-1,7
 388 872 388 872 388 763 c 2,8,-1
 388 521 l 2,9,10
 388 443 388 443 403.5 383.5 c 128,-1,11
 419 324 419 324 448.5 284.5 c 128,-1,12
 478 245 478 245 518 225 c 128,-1,13
 558 205 558 205 608 205 c 0,14,15
 655 205 655 205 693.5 225.5 c 128,-1,16
 732 246 732 246 759.5 282.5 c 128,-1,17
 787 319 787 319 801.5 368.5 c 128,-1,18
 816 418 816 418 816 477 c 256,19,20
 816 536 816 536 801.5 586 c 128,-1,21
 787 636 787 636 759 672.5 c 128,-1,22
 731 709 731 709 691 729 c 128,-1,23
 651 749 651 749 601 749 c 0,24,25
 533 749 533 749 481.5 717.5 c 128,-1,26
 430 686 430 686 401 637 c 128,-1,27
 372 588 372 588 370 534 c 1,28,-1
 283 590 l 1,29,30
 286 667 286 667 315.5 736 c 128,-1,31
 345 805 345 805 397.5 858.5 c 128,-1,32
 450 912 450 912 524 942.5 c 128,-1,33
 598 973 598 973 691 973 c 0,34,35
 793 973 793 973 870.5 934 c 128,-1,36
 948 895 948 895 1000 827 c 128,-1,37
 1052 759 1052 759 1078 670 c 128,-1,38
 1104 581 1104 581 1104 480 c 0,39,40
 1104 374 1104 374 1069.5 283 c 128,-1,41
 1035 192 1035 192 970.5 124 c 128,-1,42
 906 56 906 56 816 18 c 128,-1,43
 726 -20 726 -20 614 -20 c 0,44,45
 498 -20 498 -20 403.5 22.5 c 128,-1,46
 309 65 309 65 241 142 c 128,-1,47
 173 219 173 219 136.5 325 c 128,-1,48
 100 431 100 431 100 557 c 2,49,-1
 100 669 l 2,50,51
 100 845 100 845 151.5 991.5 c 128,-1,52
 203 1138 203 1138 300 1245.5 c 128,-1,53
 397 1353 397 1353 534 1412 c 128,-1,54
 671 1471 671 1471 843 1471 c 2,0,-1
EndSplineSet
Substitution2: "'subs' Subscript lookup 30 subtable" uni2086
Substitution2: "'sups' Superscript lookup 29 subtable" uni2076
Substitution2: "'numr' Numerators lookup 28 subtable" six.frac
Substitution2: "'dnom' Denominators lookup 27 subtable" six.dnom
Substitution2: "'frac' Diagonal Fractions lookup 26 subtable" six.frac
Substitution2: "Single Substitution lookup 25 subtable" six.dnom
Substitution2: "'lnum' Lining Figures lookup 22 subtable" six.pnum
Substitution2: "'tnum' Tabular Numbers lookup 21 subtable" six.oldstyle
Substitution2: "'pnum' Proportional Numbers lookup 20 subtable" six.pnum
Substitution2: "'onum' Oldstyle Figures lookup 19 subtable" six.oldstyle
Substitution2: "'c2sc' Capitals to Small Capitals lookup 0 subtable" six.c2sc
Position2: "'cpsp' Capital Spacing lookup 0 subtable" dx=36 dy=0 dh=72 dv=0
EndChar

StartChar: seven
Encoding: 55 55 27
Width: 1175
GlyphClass: 1
Flags: W
LayerCount: 2
Fore
SplineSet
1089 1456 m 1,0,-1
 1089 1301 l 1,1,-1
 526 0 l 1,2,-1
 222 0 l 1,3,-1
 785 1231 l 1,4,-1
 60 1231 l 1,5,-1
 60 1456 l 1,6,-1
 1089 1456 l 1,0,-1
EndSplineSet
Substitution2: "'subs' Subscript lookup 30 subtable" uni2087
Substitution2: "'sups' Superscript lookup 29 subtable" uni2077
Substitution2: "'numr' Numerators lookup 28 subtable" seven.frac
Substitution2: "'dnom' Denominators lookup 27 subtable" seven.dnom
Substitution2: "'frac' Diagonal Fractions lookup 26 subtable" seven.frac
Substitution2: "Single Substitution lookup 25 subtable" seven.dnom
Substitution2: "'pnum' Proportional Numbers lookup 20 subtable" seven.pnum
Substitution2: "'onum' Oldstyle Figures lookup 19 subtable" seven.oldstyle
Substitution2: "'c2sc' Capitals to Small Capitals lookup 0 subtable" seven.c2sc
Position2: "'cpsp' Capital Spacing lookup 0 subtable" dx=36 dy=0 dh=72 dv=0
EndChar

StartChar: eight
Encoding: 56 56 28
Width: 1175
GlyphClass: 1
Flags: W
LayerCount: 2
Fore
SplineSet
1081 399 m 0,0,1
 1081 262 1081 262 1017 168.5 c 128,-1,2
 953 75 953 75 841.5 27.5 c 128,-1,3
 730 -20 730 -20 589 -20 c 256,4,5
 448 -20 448 -20 336 27.5 c 128,-1,6
 224 75 224 75 159 168.5 c 128,-1,7
 94 262 94 262 94 399 c 0,8,9
 94 491 94 491 131 565.5 c 128,-1,10
 168 640 168 640 234.5 693.5 c 128,-1,11
 301 747 301 747 391 775.5 c 128,-1,12
 481 804 481 804 587 804 c 0,13,14
 729 804 729 804 841 754 c 128,-1,15
 953 704 953 704 1017 613 c 128,-1,16
 1081 522 1081 522 1081 399 c 0,0,1
791 418 m 0,17,18
 791 485 791 485 765.5 533.5 c 128,-1,19
 740 582 740 582 694 608 c 128,-1,20
 648 634 648 634 587 634 c 256,21,22
 526 634 526 634 480 608 c 128,-1,23
 434 582 434 582 408.5 533.5 c 128,-1,24
 383 485 383 485 383 418 c 0,25,26
 383 352 383 352 408.5 304 c 128,-1,27
 434 256 434 256 480.5 230.5 c 128,-1,28
 527 205 527 205 589 205 c 256,29,30
 651 205 651 205 696.5 230.5 c 128,-1,31
 742 256 742 256 766.5 304 c 128,-1,32
 791 352 791 352 791 418 c 0,17,18
1050 1070 m 0,33,34
 1050 959 1050 959 991 873.5 c 128,-1,35
 932 788 932 788 827.5 740 c 128,-1,36
 723 692 723 692 589 692 c 0,37,38
 454 692 454 692 349 740 c 128,-1,39
 244 788 244 788 185 873.5 c 128,-1,40
 126 959 126 959 126 1070 c 0,41,42
 126 1202 126 1202 185.5 1292.5 c 128,-1,43
 245 1383 245 1383 349.5 1430 c 128,-1,44
 454 1477 454 1477 587 1477 c 0,45,46
 722 1477 722 1477 826.5 1430 c 128,-1,47
 931 1383 931 1383 990.5 1292.5 c 128,-1,48
 1050 1202 1050 1202 1050 1070 c 0,33,34
762 1057 m 256,49,50
 762 1116 762 1116 741 1159.5 c 128,-1,51
 720 1203 720 1203 681.5 1227.5 c 128,-1,52
 643 1252 643 1252 587 1252 c 0,53,54
 533 1252 533 1252 494.5 1228.5 c 128,-1,55
 456 1205 456 1205 435.5 1161.5 c 128,-1,56
 415 1118 415 1118 415 1057 c 0,57,58
 415 998 415 998 435.5 953.5 c 128,-1,59
 456 909 456 909 495 884 c 128,-1,60
 534 859 534 859 589 859 c 256,61,62
 644 859 644 859 682.5 884 c 128,-1,63
 721 909 721 909 741.5 953.5 c 128,-1,64
 762 998 762 998 762 1057 c 256,49,50
EndSplineSet
Substitution2: "'subs' Subscript lookup 30 subtable" uni2088
Substitution2: "'sups' Superscript lookup 29 subtable" uni2078
Substitution2: "'numr' Numerators lookup 28 subtable" eight.frac
Substitution2: "'dnom' Denominators lookup 27 subtable" eight.dnom
Substitution2: "'frac' Diagonal Fractions lookup 26 subtable" eight.frac
Substitution2: "Single Substitution lookup 25 subtable" eight.dnom
Substitution2: "'lnum' Lining Figures lookup 22 subtable" eight.pnum
Substitution2: "'tnum' Tabular Numbers lookup 21 subtable" eight.oldstyle
Substitution2: "'pnum' Proportional Numbers lookup 20 subtable" eight.pnum
Substitution2: "'onum' Oldstyle Figures lookup 19 subtable" eight.oldstyle
Substitution2: "'c2sc' Capitals to Small Capitals lookup 0 subtable" eight.c2sc
Position2: "'cpsp' Capital Spacing lookup 0 subtable" dx=36 dy=0 dh=72 dv=0
EndChar

StartChar: nine
Encoding: 57 57 29
Width: 1175
GlyphClass: 1
Flags: W
LayerCount: 2
Fore
SplineSet
304 219 m 1,0,-1
 323 219 l 2,1,2
 443 219 443 219 529.5 248.5 c 128,-1,3
 616 278 616 278 672 334 c 128,-1,4
 728 390 728 390 755 471.5 c 128,-1,5
 782 553 782 553 782 657 c 2,6,-1
 782 933 l 2,7,8
 782 1012 782 1012 766.5 1072 c 128,-1,9
 751 1132 751 1132 722.5 1171.5 c 128,-1,10
 694 1211 694 1211 656.5 1231 c 128,-1,11
 619 1251 619 1251 574 1251 c 0,12,13
 526 1251 526 1251 489 1227.5 c 128,-1,14
 452 1204 452 1204 426.5 1164 c 128,-1,15
 401 1124 401 1124 387.5 1072.5 c 128,-1,16
 374 1021 374 1021 374 965 c 256,17,18
 374 909 374 909 387 858.5 c 128,-1,19
 400 808 400 808 426 769.5 c 128,-1,20
 452 731 452 731 491 708.5 c 128,-1,21
 530 686 530 686 583 686 c 0,22,23
 634 686 634 686 674.5 705.5 c 128,-1,24
 715 725 715 725 743.5 757 c 128,-1,25
 772 789 772 789 787.5 828 c 128,-1,26
 803 867 803 867 803 907 c 1,27,-1
 898 855 l 1,28,29
 898 785 898 785 868 717 c 128,-1,30
 838 649 838 649 784.5 593.5 c 128,-1,31
 731 538 731 538 661 505 c 128,-1,32
 591 472 591 472 511 472 c 0,33,34
 409 472 409 472 330 509.5 c 128,-1,35
 251 547 251 547 196.5 613.5 c 128,-1,36
 142 680 142 680 114 769 c 128,-1,37
 86 858 86 858 86 962 c 0,38,39
 86 1068 86 1068 120.5 1161 c 128,-1,40
 155 1254 155 1254 219.5 1325 c 128,-1,41
 284 1396 284 1396 374.5 1436.5 c 128,-1,42
 465 1477 465 1477 576 1477 c 256,43,44
 687 1477 687 1477 778 1434 c 128,-1,45
 869 1391 869 1391 934 1312.5 c 128,-1,46
 999 1234 999 1234 1034.5 1125 c 128,-1,47
 1070 1016 1070 1016 1070 883 c 2,48,-1
 1070 783 l 2,49,50
 1070 641 1070 641 1039.5 519 c 128,-1,51
 1009 397 1009 397 948.5 298.5 c 128,-1,52
 888 200 888 200 798.5 130 c 128,-1,53
 709 60 709 60 591 23 c 128,-1,54
 473 -14 473 -14 327 -14 c 2,55,-1
 304 -14 l 1,56,-1
 304 219 l 1,0,-1
EndSplineSet
Substitution2: "'subs' Subscript lookup 30 subtable" uni2089
Substitution2: "'sups' Superscript lookup 29 subtable" uni2079
Substitution2: "'numr' Numerators lookup 28 subtable" nine.frac
Substitution2: "'dnom' Denominators lookup 27 subtable" nine.dnom
Substitution2: "'frac' Diagonal Fractions lookup 26 subtable" nine.frac
Substitution2: "Single Substitution lookup 25 subtable" nine.dnom
Substitution2: "'pnum' Proportional Numbers lookup 20 subtable" nine.pnum
Substitution2: "'onum' Oldstyle Figures lookup 19 subtable" nine.oldstyle
Substitution2: "'c2sc' Capitals to Small Capitals lookup 0 subtable" nine.c2sc
Position2: "'cpsp' Capital Spacing lookup 0 subtable" dx=36 dy=0 dh=72 dv=0
EndChar

StartChar: less
Encoding: 60 60 32
Width: 1044
GlyphClass: 1
Flags: W
LayerCount: 2
Fore
SplineSet
282 644 m 1,0,-1
 918 414 l 1,1,-1
 918 143 l 1,2,-1
 54 509 l 1,3,-1
 54 701 l 1,4,-1
 282 644 l 1,0,-1
918 832 m 1,5,-1
 281 598 l 1,6,-1
 54 544 l 1,7,-1
 54 736 l 1,8,-1
 918 1102 l 1,9,-1
 918 832 l 1,5,-1
EndSplineSet
EndChar

StartChar: equal
Encoding: 61 61 33
Width: 1175
GlyphClass: 1
Flags: W
LayerCount: 2
Fore
SplineSet
1033 980 m 1,0,-1
 1033 752 l 1,1,-1
 136 752 l 1,2,-1
 136 980 l 1,3,-1
 1033 980 l 1,0,-1
1033 548 m 1,4,-1
 1033 320 l 1,5,-1
 136 320 l 1,6,-1
 136 548 l 1,7,-1
 1033 548 l 1,4,-1
EndSplineSet
EndChar

StartChar: greater
Encoding: 62 62 34
Width: 1057
GlyphClass: 1
Flags: W
LayerCount: 2
Fore
SplineSet
760 604 m 1,0,-1
 119 833 l 1,1,-1
 119 1102 l 1,2,-1
 990 736 l 1,3,-1
 990 543 l 1,4,-1
 760 604 l 1,0,-1
119 412 m 1,5,-1
 761 646 l 1,6,-1
 990 701 l 1,7,-1
 990 509 l 1,8,-1
 119 143 l 1,9,-1
 119 412 l 1,5,-1
EndSplineSet
EndChar

StartChar: question
Encoding: 63 63 35
Width: 1019
GlyphClass: 1
Flags: W
LayerCount: 2
Fore
SplineSet
603 445 m 1,0,-1
 348 445 l 1,1,2
 349 535 349 535 362.5 600.5 c 128,-1,3
 376 666 376 666 409.5 719 c 128,-1,4
 443 772 443 772 499 824 c 0,5,6
 546 866 546 866 581 904 c 128,-1,7
 616 942 616 942 636 982.5 c 128,-1,8
 656 1023 656 1023 656 1073 c 0,9,10
 656 1131 656 1131 638.5 1169.5 c 128,-1,11
 621 1208 621 1208 586.5 1228 c 128,-1,12
 552 1248 552 1248 500 1248 c 0,13,14
 457 1248 457 1248 420 1229.5 c 128,-1,15
 383 1211 383 1211 359.5 1173 c 128,-1,16
 336 1135 336 1135 335 1073 c 1,17,-1
 45 1073 l 1,18,19
 48 1210 48 1210 108.5 1299.5 c 128,-1,20
 169 1389 169 1389 271 1432.5 c 128,-1,21
 373 1476 373 1476 500 1476 c 0,22,23
 640 1476 640 1476 740 1430.5 c 128,-1,24
 840 1385 840 1385 893 1297.5 c 128,-1,25
 946 1210 946 1210 946 1085 c 0,26,27
 946 998 946 998 912 930.5 c 128,-1,28
 878 863 878 863 823 805 c 128,-1,29
 768 747 768 747 702 685 c 0,30,31
 645 634 645 634 624.5 578 c 128,-1,32
 604 522 604 522 603 445 c 1,0,-1
318 136 m 0,33,34
 318 200 318 200 362 242.5 c 128,-1,35
 406 285 406 285 480 285 c 0,36,37
 553 285 553 285 597.5 242.5 c 128,-1,38
 642 200 642 200 642 136 c 0,39,40
 642 74 642 74 597.5 31 c 128,-1,41
 553 -12 553 -12 480 -12 c 0,42,43
 406 -12 406 -12 362 31 c 128,-1,44
 318 74 318 74 318 136 c 0,33,34
EndSplineSet
EndChar

StartChar: at
Encoding: 64 64 36
Width: 1245
GlyphClass: 1
Flags: W
LayerCount: 2
Fore
SplineSet
952 196 m 17,0,-1
 952 281 l 1,1,2
 870 196 870 196 788 196 c 0,3,4
 742 196 742 196 704 211 c 0,5,6
 662 227 662 227 629 259 c 0,7,8
 594 293 594 293 567.5 343 c 128,-1,9
 541 393 541 393 526 470 c 0,10,11
 510 547 510 547 510 642 c 0,12,13
 510 724 510 724 522 792 c 0,14,15
 534 861 534 861 555 910 c 0,16,17
 573 953 573 953 604 997 c 0,18,19
 629 1032 629 1032 663 1059 c 0,20,21
 695 1084 695 1084 729.5 1098.5 c 0,22,23
 760 1112 760 1112 804 1120 c 0,24,25
 836 1126 836 1126 868 1126 c 0,26,27
 929 1126 929 1126 947 1119 c 1,28,29
 944 1138 944 1138 935 1183 c 0,30,31
 927 1219 927 1219 909 1254 c 0,32,33
 901 1269 901 1269 867 1301 c 0,34,35
 843 1323 843 1323 793 1340 c 0,36,37
 754 1353 754 1353 682 1353 c 0,38,39
 518 1353 518 1353 396 1179 c 0,40,41
 295 1036.78475336 295 1036.78475336 295 652 c 0,42,43
 295 294 295 294 395 139 c 0,44,45
 509 -36 509 -36 676 -36 c 0,46,47
 773 -36 773 -36 824 -20 c 1,48,-1
 824 -168 l 1,49,50
 765 -184 765 -184 700 -184 c 0,51,52
 589 -184 589 -184 501 -155 c 0,53,54
 418 -128 418 -128 339 -57 c 0,55,56
 261 12 261 12 211 105 c 128,-1,57
 161 198 161 198 131 344 c 0,58,59
 102 485 102 485 102 662 c 0,60,61
 102 838 102 838 131 979 c 0,62,63
 160 1124 160 1124 210 1217 c 0,64,65
 267.164746544 1322.609447 267.164746544 1322.609447 330.5 1377.5 c 0,66,67
 411 1449 411 1449 493 1475 c 0,68,69
 582 1504 582 1504 690 1504 c 0,70,71
 899 1504 899 1504 1012 1384 c 0,72,73
 1040 1354 1040 1354 1060 1322 c 0,74,75
 1082 1286 1082 1286 1093.5 1249 c 0,76,77
 1103 1221 1103 1221 1112 1176 c 0,78,79
 1120 1136 1120 1136 1122 1093 c 0,80,81
 1125 1018 1125 1018 1125 1012 c 0,82,83
 1126 929 1126 929 1126 926 c 10,84,-1
 1125 196 l 25,85,-1
 952 196 l 17,0,-1
889 995 m 0,86,87
 826 991 826 991 776 946 c 0,88,89
 698 873 698 873 698 664 c 0,90,91
 698 504 698 504 734 436 c 128,-1,92
 770 368 770 368 842 368 c 0,93,94
 893 368 893 368 952 445 c 9,95,-1
 952 988 l 17,96,97
 923 997 923 997 889 995 c 0,86,87
EndSplineSet
EndChar

StartChar: A
Encoding: 65 65 37
Width: 1376
GlyphClass: 2
Flags: W
LayerCount: 2
Fore
SplineSet
722 1207 m 1,0,-1
 326 0 l 1,1,-1
 7 0 l 1,2,-1
 548 1456 l 1,3,-1
 751 1456 l 1,4,-1
 722 1207 l 1,0,-1
1051 0 m 1,5,-1
 654 1207 l 1,6,-1
 622 1456 l 1,7,-1
 827 1456 l 1,8,-1
 1371 0 l 1,9,-1
 1051 0 l 1,5,-1
1033 542 m 1,10,-1
 1033 307 l 1,11,-1
 264 307 l 1,12,-1
 264 542 l 1,13,-1
 1033 542 l 1,10,-1
EndSplineSet
Substitution2: "'c2sc' Capitals to Small Capitals lookup 0 subtable" A.c2sc
Position2: "'cpsp' Capital Spacing lookup 0 subtable" dx=36 dy=0 dh=72 dv=0
EndChar

StartChar: B
Encoding: 66 66 38
Width: 1307
GlyphClass: 2
Flags: W
LayerCount: 2
Fore
SplineSet
700 639 m 1,0,-1
 326 639 l 1,1,-1
 324 845 l 1,2,-1
 638 845 l 2,3,4
 721 845 721 845 774 866.5 c 128,-1,5
 827 888 827 888 853.5 929.5 c 128,-1,6
 880 971 880 971 880 1031 c 0,7,8
 880 1099 880 1099 854.5 1141 c 128,-1,9
 829 1183 829 1183 775.5 1202 c 128,-1,10
 722 1221 722 1221 638 1221 c 2,11,-1
 430 1221 l 1,12,-1
 430 0 l 1,13,-1
 130 0 l 1,14,-1
 130 1456 l 1,15,-1
 638 1456 l 2,16,17
 765 1456 765 1456 865.5 1432 c 128,-1,18
 966 1408 966 1408 1036 1359 c 128,-1,19
 1106 1310 1106 1310 1143 1235.5 c 128,-1,20
 1180 1161 1180 1161 1180 1059 c 0,21,22
 1180 969 1180 969 1139.5 893 c 128,-1,23
 1099 817 1099 817 1012.5 769 c 128,-1,24
 926 721 926 721 787 716 c 1,25,-1
 700 639 l 1,0,-1
687 0 m 2,26,-1
 244 0 l 1,27,-1
 361 234 l 1,28,-1
 687 234 l 2,29,30
 766 234 766 234 816 259.5 c 128,-1,31
 866 285 866 285 890 329 c 128,-1,32
 914 373 914 373 914 430 c 0,33,34
 914 494 914 494 892.5 541 c 128,-1,35
 871 588 871 588 824 613.5 c 128,-1,36
 777 639 777 639 700 639 c 2,37,-1
 411 639 l 1,38,-1
 413 845 l 1,39,-1
 773 845 l 1,40,-1
 842 764 l 1,41,42
 975 766 975 766 1056.5 717.5 c 128,-1,43
 1138 669 1138 669 1175.5 592 c 128,-1,44
 1213 515 1213 515 1213 427 c 0,45,46
 1213 287 1213 287 1152 191.5 c 128,-1,47
 1091 96 1091 96 973.5 48 c 128,-1,48
 856 0 856 0 687 0 c 2,26,-1
EndSplineSet
Substitution2: "'c2sc' Capitals to Small Capitals lookup 0 subtable" B.c2sc
Position2: "'cpsp' Capital Spacing lookup 0 subtable" dx=36 dy=0 dh=72 dv=0
EndChar

StartChar: C
Encoding: 67 67 39
Width: 1340
GlyphClass: 2
Flags: W
LayerCount: 2
Fore
SplineSet
974 483 m 1,0,-1
 1273 483 l 1,1,2
 1264 336 1264 336 1192.5 222 c 128,-1,3
 1121 108 1121 108 993.5 44 c 128,-1,4
 866 -20 866 -20 687 -20 c 0,5,6
 547 -20 547 -20 436 28.5 c 128,-1,7
 325 77 325 77 246.5 168 c 128,-1,8
 168 259 168 259 127 388 c 128,-1,9
 86 517 86 517 86 677 c 2,10,-1
 86 778 l 2,11,12
 86 938 86 938 128.5 1067.5 c 128,-1,13
 171 1197 171 1197 250.5 1288 c 128,-1,14
 330 1379 330 1379 441 1428 c 128,-1,15
 552 1477 552 1477 689 1477 c 0,16,17
 871 1477 871 1477 996.5 1411 c 128,-1,18
 1122 1345 1122 1345 1191.5 1229 c 128,-1,19
 1261 1113 1261 1113 1275 965 c 1,20,-1
 976 965 l 1,21,22
 970 1053 970 1053 940 1114.5 c 128,-1,23
 910 1176 910 1176 849.5 1207.5 c 128,-1,24
 789 1239 789 1239 689 1239 c 0,25,26
 614 1239 614 1239 558 1211 c 128,-1,27
 502 1183 502 1183 464 1126 c 128,-1,28
 426 1069 426 1069 407.5 982.5 c 128,-1,29
 389 896 389 896 389 780 c 2,30,-1
 389 677 l 2,31,32
 389 564 389 564 406 478.5 c 128,-1,33
 423 393 423 393 458.5 334.5 c 128,-1,34
 494 276 494 276 550.5 246.5 c 128,-1,35
 607 217 607 217 687 217 c 0,36,37
 781 217 781 217 842 247 c 128,-1,38
 903 277 903 277 935.5 336 c 128,-1,39
 968 395 968 395 974 483 c 1,0,-1
EndSplineSet
Substitution2: "'ss06' Style Set 6 lookup 17 subtable" C.ss06
Substitution2: "'c2sc' Capitals to Small Capitals lookup 0 subtable" C.c2sc
Position2: "'cpsp' Capital Spacing lookup 0 subtable" dx=36 dy=0 dh=72 dv=0
EndChar

StartChar: D
Encoding: 68 68 40
Width: 1331
GlyphClass: 2
Flags: W
LayerCount: 2
Fore
SplineSet
577 0 m 2,0,-1
 260 0 l 1,1,-1
 262 234 l 1,2,-1
 577 234 l 2,3,4
 695 234 695 234 776 287.5 c 128,-1,5
 857 341 857 341 898.5 444 c 128,-1,6
 940 547 940 547 940 693 c 2,7,-1
 940 764 l 2,8,9
 940 876 940 876 916.5 961 c 128,-1,10
 893 1046 893 1046 847 1104 c 128,-1,11
 801 1162 801 1162 734 1191.5 c 128,-1,12
 667 1221 667 1221 580 1221 c 2,13,-1
 254 1221 l 1,14,-1
 254 1456 l 1,15,-1
 580 1456 l 2,16,17
 726 1456 726 1456 847.5 1406.5 c 128,-1,18
 969 1357 969 1357 1058 1265 c 128,-1,19
 1147 1173 1147 1173 1195.5 1045.5 c 128,-1,20
 1244 918 1244 918 1244 762 c 2,21,-1
 1244 693 l 2,22,23
 1244 538 1244 538 1195.5 410 c 128,-1,24
 1147 282 1147 282 1058.5 190.5 c 128,-1,25
 970 99 970 99 847.5 49.5 c 128,-1,26
 725 0 725 0 577 0 c 2,0,-1
430 1456 m 1,27,-1
 430 0 l 1,28,-1
 130 0 l 1,29,-1
 130 1456 l 1,30,-1
 430 1456 l 1,27,-1
EndSplineSet
Substitution2: "'ss06' Style Set 6 lookup 17 subtable" D.ss06
Substitution2: "'c2sc' Capitals to Small Capitals lookup 0 subtable" D.c2sc
Position2: "'cpsp' Capital Spacing lookup 0 subtable" dx=36 dy=0 dh=72 dv=0
EndChar

StartChar: E
Encoding: 69 69 41
Width: 1152
GlyphClass: 2
Flags: W
LayerCount: 2
Fore
SplineSet
1107 234 m 1,0,-1
 1107 0 l 1,1,-1
 332 0 l 1,2,-1
 332 234 l 1,3,-1
 1107 234 l 1,0,-1
430 1456 m 1,4,-1
 430 0 l 1,5,-1
 130 0 l 1,6,-1
 130 1456 l 1,7,-1
 430 1456 l 1,4,-1
1006 863 m 1,8,-1
 1006 635 l 1,9,-1
 332 635 l 1,10,-1
 332 863 l 1,11,-1
 1006 863 l 1,8,-1
1106 1456 m 1,12,-1
 1106 1221 l 1,13,-1
 332 1221 l 1,14,-1
 332 1456 l 1,15,-1
 1106 1456 l 1,12,-1
EndSplineSet
Substitution2: "'c2sc' Capitals to Small Capitals lookup 0 subtable" E.c2sc
Position2: "'cpsp' Capital Spacing lookup 0 subtable" dx=36 dy=0 dh=72 dv=0
EndChar

StartChar: F
Encoding: 70 70 42
Width: 1124
GlyphClass: 2
Flags: W
LayerCount: 2
Fore
SplineSet
430 1456 m 1,0,-1
 430 0 l 1,1,-1
 130 0 l 1,2,-1
 130 1456 l 1,3,-1
 430 1456 l 1,0,-1
1010 834 m 1,4,-1
 1010 600 l 1,5,-1
 348 600 l 1,6,-1
 348 834 l 1,7,-1
 1010 834 l 1,4,-1
1080 1456 m 1,8,-1
 1080 1221 l 1,9,-1
 348 1221 l 1,10,-1
 348 1456 l 1,11,-1
 1080 1456 l 1,8,-1
EndSplineSet
Substitution2: "'c2sc' Capitals to Small Capitals lookup 0 subtable" F.c2sc
Position2: "'cpsp' Capital Spacing lookup 0 subtable" dx=36 dy=0 dh=72 dv=0
EndChar

StartChar: G
Encoding: 71 71 43
Width: 1396
GlyphClass: 2
Flags: W
LayerCount: 2
Fore
SplineSet
1284 761 m 1,0,-1
 1284 184 l 1,1,2
 1250 143 1250 143 1179 95.5 c 128,-1,3
 1108 48 1108 48 996 14 c 128,-1,4
 884 -20 884 -20 725 -20 c 0,5,6
 584 -20 584 -20 468 26.5 c 128,-1,7
 352 73 352 73 268.5 163 c 128,-1,8
 185 253 185 253 140 383.5 c 128,-1,9
 95 514 95 514 95 682 c 2,10,-1
 95 773 l 2,11,12
 95 941 95 941 138.5 1072 c 128,-1,13
 182 1203 182 1203 263 1293 c 128,-1,14
 344 1383 344 1383 456 1430 c 128,-1,15
 568 1477 568 1477 705 1477 c 0,16,17
 895 1477 895 1477 1017 1415.5 c 128,-1,18
 1139 1354 1139 1354 1203.5 1245.5 c 128,-1,19
 1268 1137 1268 1137 1283 997 c 1,20,-1
 992 997 l 1,21,22
 981 1071 981 1071 950 1126 c 128,-1,23
 919 1181 919 1181 861.5 1212 c 128,-1,24
 804 1243 804 1243 713 1243 c 0,25,26
 638 1243 638 1243 579.5 1212.5 c 128,-1,27
 521 1182 521 1182 481 1123 c 128,-1,28
 441 1064 441 1064 420 977 c 128,-1,29
 399 890 399 890 399 775 c 2,30,-1
 399 682 l 2,31,32
 399 568 399 568 421 480.5 c 128,-1,33
 443 393 443 393 486.5 333.5 c 128,-1,34
 530 274 530 274 594 244 c 128,-1,35
 658 214 658 214 743 214 c 0,36,37
 814 214 814 214 861.5 226 c 128,-1,38
 909 238 909 238 938.5 255.5 c 128,-1,39
 968 273 968 273 984 289 c 1,40,-1
 984 547 l 1,41,-1
 710 547 l 1,42,-1
 710 761 l 1,43,-1
 1284 761 l 1,0,-1
EndSplineSet
Substitution2: "'ss06' Style Set 6 lookup 17 subtable" G.ss06
Substitution2: "'c2sc' Capitals to Small Capitals lookup 0 subtable" G.c2sc
Position2: "'cpsp' Capital Spacing lookup 0 subtable" dx=36 dy=0 dh=72 dv=0
EndChar

StartChar: H
Encoding: 72 72 44
Width: 1446
GlyphClass: 2
Flags: W
LayerCount: 2
Fore
SplineSet
1101 863 m 1,0,-1
 1101 629 l 1,1,-1
 341 629 l 1,2,-1
 341 863 l 1,3,-1
 1101 863 l 1,0,-1
430 1456 m 1,4,-1
 430 0 l 1,5,-1
 130 0 l 1,6,-1
 130 1456 l 1,7,-1
 430 1456 l 1,4,-1
1315 1456 m 1,8,-1
 1315 0 l 1,9,-1
 1016 0 l 1,10,-1
 1016 1456 l 1,11,-1
 1315 1456 l 1,8,-1
EndSplineSet
Substitution2: "'c2sc' Capitals to Small Capitals lookup 0 subtable" H.c2sc
Position2: "'cpsp' Capital Spacing lookup 0 subtable" dx=36 dy=0 dh=72 dv=0
EndChar

StartChar: I
Encoding: 73 73 45
Width: 599
GlyphClass: 2
Flags: W
LayerCount: 2
Fore
SplineSet
449 1456 m 1,0,-1
 449 0 l 1,1,-1
 150 0 l 1,2,-1
 150 1456 l 1,3,-1
 449 1456 l 1,0,-1
EndSplineSet
Substitution2: "'c2sc' Capitals to Small Capitals lookup 0 subtable" I.c2sc
Position2: "'cpsp' Capital Spacing lookup 0 subtable" dx=36 dy=0 dh=72 dv=0
EndChar

StartChar: J
Encoding: 74 74 46
Width: 1144
GlyphClass: 2
Flags: W
LayerCount: 2
Fore
SplineSet
719 447 m 2,0,-1
 719 1456 l 1,1,-1
 1018 1456 l 1,2,-1
 1018 447 l 2,3,4
 1018 301 1018 301 954 196.5 c 128,-1,5
 890 92 890 92 779.5 36 c 128,-1,6
 669 -20 669 -20 531 -20 c 0,7,8
 388 -20 388 -20 278 28 c 128,-1,9
 168 76 168 76 105 175.5 c 128,-1,10
 42 275 42 275 42 428 c 1,11,-1
 343 428 l 1,12,13
 343 348 343 348 365.5 301 c 128,-1,14
 388 254 388 254 430 234 c 128,-1,15
 472 214 472 214 531 214 c 0,16,17
 588 214 588 214 630 241 c 128,-1,18
 672 268 672 268 695.5 320 c 128,-1,19
 719 372 719 372 719 447 c 2,0,-1
EndSplineSet
Substitution2: "'c2sc' Capitals to Small Capitals lookup 0 subtable" J.c2sc
Position2: "'cpsp' Capital Spacing lookup 0 subtable" dx=36 dy=0 dh=72 dv=0
EndChar

StartChar: K
Encoding: 75 75 47
Width: 1302
GlyphClass: 2
Flags: W
LayerCount: 2
Fore
SplineSet
430 1456 m 1,0,-1
 430 0 l 1,1,-1
 130 0 l 1,2,-1
 130 1456 l 1,3,-1
 430 1456 l 1,0,-1
1302 1456 m 1,4,-1
 725 737 l 1,5,-1
 392 379 l 1,6,-1
 338 663 l 1,7,-1
 563 971 l 1,8,-1
 934 1456 l 1,9,-1
 1302 1456 l 1,4,-1
961 0 m 1,10,-1
 532 673 l 1,11,-1
 754 859 l 1,12,-1
 1316 0 l 1,13,-1
 961 0 l 1,10,-1
EndSplineSet
Substitution2: "'ss05' Style Set 5 lookup 16 subtable" K.ss05
Substitution2: "'ss04' Style Set 4 lookup 15 subtable" K.ss04
Substitution2: "'c2sc' Capitals to Small Capitals lookup 0 subtable" K.c2sc
Position2: "'cpsp' Capital Spacing lookup 0 subtable" dx=36 dy=0 dh=72 dv=0
EndChar

StartChar: L
Encoding: 76 76 48
Width: 1108
GlyphClass: 2
Flags: W
LayerCount: 2
Fore
SplineSet
1066 234 m 1,0,-1
 1066 0 l 1,1,-1
 333 0 l 1,2,-1
 333 234 l 1,3,-1
 1066 234 l 1,0,-1
430 1456 m 1,4,-1
 430 0 l 1,5,-1
 130 0 l 1,6,-1
 130 1456 l 1,7,-1
 430 1456 l 1,4,-1
EndSplineSet
Substitution2: "'c2sc' Capitals to Small Capitals lookup 0 subtable" L.c2sc
Position2: "'cpsp' Capital Spacing lookup 0 subtable" dx=36 dy=0 dh=72 dv=0
EndChar

StartChar: M
Encoding: 77 77 49
Width: 1793
GlyphClass: 2
Flags: W
LayerCount: 2
Fore
SplineSet
267 1456 m 1,0,-1
 521 1456 l 1,1,-1
 895 387 l 1,2,-1
 1269 1456 l 1,3,-1
 1523 1456 l 1,4,-1
 997 0 l 1,5,-1
 793 0 l 1,6,-1
 267 1456 l 1,0,-1
130 1456 m 1,7,-1
 383 1456 l 1,8,-1
 429 414 l 1,9,-1
 429 0 l 1,10,-1
 130 0 l 1,11,-1
 130 1456 l 1,7,-1
1407 1456 m 1,12,-1
 1661 1456 l 1,13,-1
 1661 0 l 1,14,-1
 1361 0 l 1,15,-1
 1361 414 l 1,16,-1
 1407 1456 l 1,12,-1
EndSplineSet
Substitution2: "'c2sc' Capitals to Small Capitals lookup 0 subtable" M.c2sc
Position2: "'cpsp' Capital Spacing lookup 0 subtable" dx=36 dy=0 dh=72 dv=0
EndChar

StartChar: N
Encoding: 78 78 50
Width: 1445
GlyphClass: 2
Flags: W
LayerCount: 2
Fore
SplineSet
1315 1456 m 1,0,-1
 1315 0 l 1,1,-1
 1015 0 l 1,2,-1
 430 976 l 1,3,-1
 430 0 l 1,4,-1
 130 0 l 1,5,-1
 130 1456 l 1,6,-1
 430 1456 l 1,7,-1
 1016 479 l 1,8,-1
 1016 1456 l 1,9,-1
 1315 1456 l 1,0,-1
EndSplineSet
Substitution2: "'c2sc' Capitals to Small Capitals lookup 0 subtable" N.c2sc
Position2: "'cpsp' Capital Spacing lookup 0 subtable" dx=36 dy=0 dh=72 dv=0
EndChar

StartChar: O
Encoding: 79 79 51
Width: 1412
GlyphClass: 2
Flags: W
LayerCount: 2
Fore
SplineSet
1326 762 m 2,0,-1
 1326 693 l 2,1,2
 1326 527 1326 527 1281 395 c 128,-1,3
 1236 263 1236 263 1154 170.5 c 128,-1,4
 1072 78 1072 78 958.5 29 c 128,-1,5
 845 -20 845 -20 707 -20 c 0,6,7
 570 -20 570 -20 456.5 29 c 128,-1,8
 343 78 343 78 260 170.5 c 128,-1,9
 177 263 177 263 131.5 395 c 128,-1,10
 86 527 86 527 86 693 c 2,11,-1
 86 762 l 2,12,13
 86 929 86 929 131 1060.5 c 128,-1,14
 176 1192 176 1192 258.5 1285 c 128,-1,15
 341 1378 341 1378 454.5 1427 c 128,-1,16
 568 1476 568 1476 705 1476 c 0,17,18
 843 1476 843 1476 956.5 1427 c 128,-1,19
 1070 1378 1070 1378 1152.5 1285 c 128,-1,20
 1235 1192 1235 1192 1280.5 1060.5 c 128,-1,21
 1326 929 1326 929 1326 762 c 2,0,-1
1023 693 m 2,22,-1
 1023 764 l 2,23,24
 1023 880 1023 880 1002 968 c 128,-1,25
 981 1056 981 1056 940 1116 c 128,-1,26
 899 1176 899 1176 840 1206.5 c 128,-1,27
 781 1237 781 1237 705 1237 c 256,28,29
 629 1237 629 1237 570.5 1206.5 c 128,-1,30
 512 1176 512 1176 471.5 1116 c 128,-1,31
 431 1056 431 1056 410 968 c 128,-1,32
 389 880 389 880 389 764 c 2,33,-1
 389 693 l 2,34,35
 389 578 389 578 410 489.5 c 128,-1,36
 431 401 431 401 472 340.5 c 128,-1,37
 513 280 513 280 572 249 c 128,-1,38
 631 218 631 218 707 218 c 256,39,40
 783 218 783 218 842 249 c 128,-1,41
 901 280 901 280 941 340.5 c 128,-1,42
 981 401 981 401 1002 489.5 c 128,-1,43
 1023 578 1023 578 1023 693 c 2,22,-1
EndSplineSet
Substitution2: "'ss06' Style Set 6 lookup 17 subtable" O.ss06
Substitution2: "'c2sc' Capitals to Small Capitals lookup 0 subtable" O.c2sc
Position2: "'cpsp' Capital Spacing lookup 0 subtable" dx=36 dy=0 dh=72 dv=0
EndChar

StartChar: P
Encoding: 80 80 52
Width: 1320
GlyphClass: 2
Flags: W
LayerCount: 2
Fore
SplineSet
697 519 m 2,0,-1
 326 519 l 1,1,-1
 326 753 l 1,2,-1
 697 753 l 2,3,4
 783 753 783 753 837 781.5 c 128,-1,5
 891 810 891 810 916 861 c 128,-1,6
 941 912 941 912 941 976 c 0,7,8
 941 1041 941 1041 916 1097 c 128,-1,9
 891 1153 891 1153 837 1187 c 128,-1,10
 783 1221 783 1221 697 1221 c 2,11,-1
 430 1221 l 1,12,-1
 430 0 l 1,13,-1
 130 0 l 1,14,-1
 130 1456 l 1,15,-1
 697 1456 l 2,16,17
 868 1456 868 1456 990.5 1394.5 c 128,-1,18
 1113 1333 1113 1333 1178 1225 c 128,-1,19
 1243 1117 1243 1117 1243 978 c 0,20,21
 1243 837 1243 837 1178 734 c 128,-1,22
 1113 631 1113 631 990.5 575 c 128,-1,23
 868 519 868 519 697 519 c 2,0,-1
EndSplineSet
Substitution2: "'c2sc' Capitals to Small Capitals lookup 0 subtable" P.c2sc
Position2: "'cpsp' Capital Spacing lookup 0 subtable" dx=36 dy=0 dh=72 dv=0
EndChar

StartChar: Q
Encoding: 81 81 53
Width: 1412
GlyphClass: 2
Flags: W
LayerCount: 2
Fore
SplineSet
921 216 m 1,0,-1
 1315 -96 l 1,1,-1
 1126 -260 l 1,2,-1
 738 52 l 1,3,-1
 921 216 l 1,0,-1
1325 762 m 2,4,-1
 1325 693 l 2,5,6
 1325 527 1325 527 1280.5 395 c 128,-1,7
 1236 263 1236 263 1153 170.5 c 128,-1,8
 1070 78 1070 78 957 29 c 128,-1,9
 844 -20 844 -20 706 -20 c 0,10,11
 569 -20 569 -20 455 29 c 128,-1,12
 341 78 341 78 258 170.5 c 128,-1,13
 175 263 175 263 129.5 395 c 128,-1,14
 84 527 84 527 84 693 c 2,15,-1
 84 762 l 2,16,17
 84 929 84 929 129.5 1060.5 c 128,-1,18
 175 1192 175 1192 257 1285 c 128,-1,19
 339 1378 339 1378 453 1427 c 128,-1,20
 567 1476 567 1476 704 1476 c 0,21,22
 842 1476 842 1476 955.5 1427 c 128,-1,23
 1069 1378 1069 1378 1152 1285 c 128,-1,24
 1235 1192 1235 1192 1280 1060.5 c 128,-1,25
 1325 929 1325 929 1325 762 c 2,4,-1
1022 693 m 2,26,-1
 1022 764 l 2,27,28
 1022 880 1022 880 1000.5 968 c 128,-1,29
 979 1056 979 1056 938.5 1116 c 128,-1,30
 898 1176 898 1176 839 1206.5 c 128,-1,31
 780 1237 780 1237 704 1237 c 256,32,33
 628 1237 628 1237 569 1206.5 c 128,-1,34
 510 1176 510 1176 469.5 1116 c 128,-1,35
 429 1056 429 1056 408.5 968 c 128,-1,36
 388 880 388 880 388 764 c 2,37,-1
 388 693 l 2,38,39
 388 578 388 578 408.5 489.5 c 128,-1,40
 429 401 429 401 470 340.5 c 128,-1,41
 511 280 511 280 570.5 249 c 128,-1,42
 630 218 630 218 706 218 c 256,43,44
 782 218 782 218 840.5 249 c 128,-1,45
 899 280 899 280 939.5 340.5 c 128,-1,46
 980 401 980 401 1001 489.5 c 128,-1,47
 1022 578 1022 578 1022 693 c 2,26,-1
EndSplineSet
Substitution2: "'ss06' Style Set 6 lookup 17 subtable" Q.ss06
Substitution2: "'c2sc' Capitals to Small Capitals lookup 0 subtable" Q.c2sc
Position2: "'cpsp' Capital Spacing lookup 0 subtable" dx=36 dy=0 dh=72 dv=0
EndChar

StartChar: R
Encoding: 82 82 54
Width: 1312
GlyphClass: 2
Flags: W
LayerCount: 2
Fore
SplineSet
130 1456 m 1,0,-1
 673 1456 l 2,1,2
 840 1456 840 1456 960.5 1406 c 128,-1,3
 1081 1356 1081 1356 1146 1258 c 128,-1,4
 1211 1160 1211 1160 1211 1017 c 0,5,6
 1211 900 1211 900 1171.5 816.5 c 128,-1,7
 1132 733 1132 733 1060.5 677.5 c 128,-1,8
 989 622 989 622 893 589 c 1,9,-1
 798 539 l 1,10,-1
 326 539 l 1,11,-1
 324 773 l 1,12,-1
 675 773 l 2,13,14
 754 773 754 773 806 801 c 128,-1,15
 858 829 858 829 884.5 879 c 128,-1,16
 911 929 911 929 911 995 c 0,17,18
 911 1065 911 1065 885 1116 c 128,-1,19
 859 1167 859 1167 806 1194 c 128,-1,20
 753 1221 753 1221 673 1221 c 2,21,-1
 430 1221 l 1,22,-1
 430 0 l 1,23,-1
 130 0 l 1,24,-1
 130 1456 l 1,0,-1
944 0 m 1,25,-1
 612 649 l 1,26,-1
 929 651 l 1,27,-1
 1265 14 l 1,28,-1
 1265 0 l 1,29,-1
 944 0 l 1,25,-1
EndSplineSet
Substitution2: "'ss03' Style Set 3 lookup 14 subtable" R.ss03
Substitution2: "'c2sc' Capitals to Small Capitals lookup 0 subtable" R.c2sc
Position2: "'cpsp' Capital Spacing lookup 0 subtable" dx=36 dy=0 dh=72 dv=0
EndChar

StartChar: S
Encoding: 83 83 55
Width: 1261
GlyphClass: 2
Flags: W
LayerCount: 2
Fore
SplineSet
888 381 m 0,0,1
 888 420 888 420 876.5 451.5 c 128,-1,2
 865 483 865 483 834 509.5 c 128,-1,3
 803 536 803 536 747 562 c 128,-1,4
 691 588 691 588 602 616 c 0,5,6
 503 648 503 648 414.5 688 c 128,-1,7
 326 728 326 728 258.5 781.5 c 128,-1,8
 191 835 191 835 152.5 906 c 128,-1,9
 114 977 114 977 114 1071 c 0,10,11
 114 1162 114 1162 154 1236.5 c 128,-1,12
 194 1311 194 1311 266 1364.5 c 128,-1,13
 338 1418 338 1418 436.5 1447 c 128,-1,14
 535 1476 535 1476 653 1476 c 0,15,16
 814 1476 814 1476 934 1418 c 128,-1,17
 1054 1360 1054 1360 1120.5 1259 c 128,-1,18
 1187 1158 1187 1158 1187 1028 c 1,19,-1
 889 1028 l 1,20,21
 889 1092 889 1092 862.5 1140.5 c 128,-1,22
 836 1189 836 1189 782.5 1217.5 c 128,-1,23
 729 1246 729 1246 648 1246 c 0,24,25
 570 1246 570 1246 518 1222 c 128,-1,26
 466 1198 466 1198 440 1158.5 c 128,-1,27
 414 1119 414 1119 414 1070 c 0,28,29
 414 1033 414 1033 432.5 1003 c 128,-1,30
 451 973 451 973 488 947 c 128,-1,31
 525 921 525 921 579 898 c 128,-1,32
 633 875 633 875 704 853 c 0,33,34
 823 817 823 817 913.5 772 c 128,-1,35
 1004 727 1004 727 1065 671 c 128,-1,36
 1126 615 1126 615 1157 544 c 128,-1,37
 1188 473 1188 473 1188 383 c 0,38,39
 1188 288 1188 288 1151 213 c 128,-1,40
 1114 138 1114 138 1044 86 c 128,-1,41
 974 34 974 34 877 7 c 128,-1,42
 780 -20 780 -20 660 -20 c 0,43,44
 552 -20 552 -20 447 8.5 c 128,-1,45
 342 37 342 37 256.5 95 c 128,-1,46
 171 153 171 153 120 243 c 128,-1,47
 69 333 69 333 69 456 c 1,48,-1
 370 456 l 1,49,50
 370 388 370 388 391 341 c 128,-1,51
 412 294 412 294 450.5 265 c 128,-1,52
 489 236 489 236 542.5 222.5 c 128,-1,53
 596 209 596 209 660 209 c 0,54,55
 738 209 738 209 788.5 231.5 c 128,-1,56
 839 254 839 254 863.5 293 c 128,-1,57
 888 332 888 332 888 381 c 0,0,1
EndSplineSet
Substitution2: "'c2sc' Capitals to Small Capitals lookup 0 subtable" S.c2sc
Position2: "'cpsp' Capital Spacing lookup 0 subtable" dx=36 dy=0 dh=72 dv=0
EndChar

StartChar: T
Encoding: 84 84 56
Width: 1269
GlyphClass: 2
Flags: W
LayerCount: 2
Fore
SplineSet
781 1456 m 1,0,-1
 781 0 l 1,1,-1
 482 0 l 1,2,-1
 482 1456 l 1,3,-1
 781 1456 l 1,0,-1
1229 1456 m 1,4,-1
 1229 1221 l 1,5,-1
 41 1221 l 1,6,-1
 41 1456 l 1,7,-1
 1229 1456 l 1,4,-1
EndSplineSet
Substitution2: "'c2sc' Capitals to Small Capitals lookup 0 subtable" T.c2sc
Position2: "'cpsp' Capital Spacing lookup 0 subtable" dx=36 dy=0 dh=72 dv=0
EndChar

StartChar: U
Encoding: 85 85 57
Width: 1350
GlyphClass: 2
Flags: W
LayerCount: 2
Fore
SplineSet
934 1456 m 1,0,-1
 1233 1456 l 1,1,-1
 1233 494 l 2,2,3
 1233 326 1233 326 1161.5 211 c 128,-1,4
 1090 96 1090 96 964.5 38 c 128,-1,5
 839 -20 839 -20 676 -20 c 256,6,7
 513 -20 513 -20 386.5 38 c 128,-1,8
 260 96 260 96 188.5 211 c 128,-1,9
 117 326 117 326 117 494 c 2,10,-1
 117 1456 l 1,11,-1
 417 1456 l 1,12,-1
 417 494 l 2,13,14
 417 396 417 396 448 334 c 128,-1,15
 479 272 479 272 537.5 243 c 128,-1,16
 596 214 596 214 676 214 c 0,17,18
 758 214 758 214 815.5 243 c 128,-1,19
 873 272 873 272 903.5 334 c 128,-1,20
 934 396 934 396 934 494 c 2,21,-1
 934 1456 l 1,0,-1
EndSplineSet
Substitution2: "'c2sc' Capitals to Small Capitals lookup 0 subtable" U.c2sc
Position2: "'cpsp' Capital Spacing lookup 0 subtable" dx=36 dy=0 dh=72 dv=0
EndChar

StartChar: V
Encoding: 86 86 58
Width: 1338
GlyphClass: 2
Flags: W
LayerCount: 2
Fore
SplineSet
655 304 m 1,0,-1
 998 1456 l 1,1,-1
 1332 1456 l 1,2,-1
 825 0 l 1,3,-1
 605 0 l 1,4,-1
 655 304 l 1,0,-1
339 1456 m 1,5,-1
 681 304 l 1,6,-1
 733 0 l 1,7,-1
 511 0 l 1,8,-1
 7 1456 l 1,9,-1
 339 1456 l 1,5,-1
EndSplineSet
Substitution2: "'c2sc' Capitals to Small Capitals lookup 0 subtable" V.c2sc
Position2: "'cpsp' Capital Spacing lookup 0 subtable" dx=36 dy=0 dh=72 dv=0
EndChar

StartChar: W
Encoding: 87 87 59
Width: 1792
GlyphClass: 2
Flags: W
LayerCount: 2
Fore
SplineSet
481 231 m 1,0,-1
 771 1456 l 1,1,-1
 933 1456 l 1,2,-1
 970 1252 l 1,3,-1
 661 0 l 1,4,-1
 487 0 l 1,5,-1
 481 231 l 1,0,-1
332 1456 m 1,6,-1
 572 231 l 1,7,-1
 552 0 l 1,8,-1
 358 0 l 1,9,-1
 35 1456 l 1,10,-1
 332 1456 l 1,6,-1
1225 236 m 1,11,-1
 1462 1456 l 1,12,-1
 1759 1456 l 1,13,-1
 1437 0 l 1,14,-1
 1243 0 l 1,15,-1
 1225 236 l 1,11,-1
1024 1456 m 1,16,-1
 1316 226 l 1,17,-1
 1308 0 l 1,18,-1
 1134 0 l 1,19,-1
 823 1253 l 1,20,-1
 863 1456 l 1,21,-1
 1024 1456 l 1,16,-1
EndSplineSet
Substitution2: "'c2sc' Capitals to Small Capitals lookup 0 subtable" W.c2sc
Position2: "'cpsp' Capital Spacing lookup 0 subtable" dx=36 dy=0 dh=72 dv=0
EndChar

StartChar: X
Encoding: 88 88 60
Width: 1300
GlyphClass: 2
Flags: W
LayerCount: 2
Fore
SplineSet
377 1456 m 1,0,-1
 651 948 l 1,1,-1
 925 1456 l 1,2,-1
 1268 1456 l 1,3,-1
 845 734 l 1,4,-1
 1279 0 l 1,5,-1
 933 0 l 1,6,-1
 651 518 l 1,7,-1
 369 0 l 1,8,-1
 21 0 l 1,9,-1
 457 734 l 1,10,-1
 32 1456 l 1,11,-1
 377 1456 l 1,0,-1
EndSplineSet
Substitution2: "'c2sc' Capitals to Small Capitals lookup 0 subtable" X.c2sc
Position2: "'cpsp' Capital Spacing lookup 0 subtable" dx=36 dy=0 dh=72 dv=0
EndChar

StartChar: Y
Encoding: 89 89 61
Width: 1268
GlyphClass: 2
Flags: W
LayerCount: 2
Fore
SplineSet
330 1456 m 1,0,-1
 634 792 l 1,1,-1
 938 1456 l 1,2,-1
 1265 1456 l 1,3,-1
 786 530 l 1,4,-1
 786 0 l 1,5,-1
 482 0 l 1,6,-1
 482 530 l 1,7,-1
 2 1456 l 1,8,-1
 330 1456 l 1,0,-1
EndSplineSet
Substitution2: "'c2sc' Capitals to Small Capitals lookup 0 subtable" Y.c2sc
Position2: "'cpsp' Capital Spacing lookup 0 subtable" dx=36 dy=0 dh=72 dv=0
EndChar

StartChar: Z
Encoding: 90 90 62
Width: 1243
GlyphClass: 2
Flags: W
LayerCount: 2
Fore
SplineSet
1183 234 m 1,0,-1
 1183 0 l 1,1,-1
 151 0 l 1,2,-1
 151 234 l 1,3,-1
 1183 234 l 1,0,-1
1168 1289 m 1,4,-1
 284 0 l 1,5,-1
 73 0 l 1,6,-1
 73 172 l 1,7,-1
 964 1456 l 1,8,-1
 1168 1456 l 1,9,-1
 1168 1289 l 1,4,-1
1065 1456 m 1,10,-1
 1065 1221 l 1,11,-1
 74 1221 l 1,12,-1
 74 1456 l 1,13,-1
 1065 1456 l 1,10,-1
EndSplineSet
Substitution2: "'c2sc' Capitals to Small Capitals lookup 0 subtable" Z.c2sc
Position2: "'cpsp' Capital Spacing lookup 0 subtable" dx=36 dy=0 dh=72 dv=0
EndChar

StartChar: bracketleft
Encoding: 91 91 63
Width: 567
GlyphClass: 1
Flags: W
LayerCount: 2
Fore
SplineSet
551 1692 m 1,0,-1
 551 1477 l 1,1,-1
 410 1477 l 1,2,-1
 410 -122 l 1,3,-1
 551 -122 l 1,4,-1
 551 -337 l 1,5,-1
 121 -337 l 1,6,-1
 121 1692 l 1,7,-1
 551 1692 l 1,0,-1
EndSplineSet
EndChar

StartChar: backslash
Encoding: 92 92 64
Width: 863
GlyphClass: 1
Flags: W
LayerCount: 2
Fore
SplineSet
606 -125 m 1,0,-1
 -1 1456 l 1,1,-1
 295 1456 l 1,2,-1
 903 -125 l 1,3,-1
 606 -125 l 1,0,-1
EndSplineSet
EndChar

StartChar: bracketright
Encoding: 93 93 65
Width: 567
GlyphClass: 1
Flags: W
LayerCount: 2
Fore
SplineSet
13 1477 m 1,0,-1
 13 1692 l 1,1,-1
 444 1692 l 1,2,-1
 444 -337 l 1,3,-1
 13 -337 l 1,4,-1
 13 -122 l 1,5,-1
 156 -122 l 1,6,-1
 156 1477 l 1,7,-1
 13 1477 l 1,0,-1
EndSplineSet
EndChar

StartChar: asciicircum
Encoding: 94 94 66
Width: 897
GlyphClass: 1
Flags: W
LayerCount: 2
Fore
SplineSet
458 1214 m 1,0,-1
 273 729 l 1,1,-1
 45 729 l 1,2,-1
 344 1456 l 1,3,-1
 508 1456 l 1,4,-1
 458 1214 l 1,0,-1
626 729 m 1,5,-1
 441 1214 l 1,6,-1
 391 1456 l 1,7,-1
 555 1456 l 1,8,-1
 853 729 l 1,9,-1
 626 729 l 1,5,-1
EndSplineSet
EndChar

StartChar: underscore
Encoding: 95 95 67
Width: 911
GlyphClass: 1
Flags: W
LayerCount: 2
Fore
SplineSet
909 0 m 1,0,-1
 909 -219 l 1,1,-1
 1 -219 l 1,2,-1
 1 0 l 1,3,-1
 909 0 l 1,0,-1
EndSplineSet
EndChar

StartChar: grave
Encoding: 96 96 68
Width: 676
GlyphClass: 2
Flags: W
LayerCount: 2
Fore
SplineSet
369 1536 m 1,0,-1
 566 1228 l 1,1,-1
 330 1228 l 1,2,-1
 56 1536 l 1,3,-1
 369 1536 l 1,0,-1
EndSplineSet
EndChar

StartChar: a
Encoding: 97 97 69
Width: 1096
GlyphClass: 2
Flags: W
LayerCount: 2
Fore
SplineSet
696 244 m 2,0,-1
 696 726 l 2,1,2
 696 778 696 778 679 815.5 c 128,-1,3
 662 853 662 853 626.5 874 c 128,-1,4
 591 895 591 895 535 895 c 0,5,6
 487 895 487 895 452 878.5 c 128,-1,7
 417 862 417 862 398 831.5 c 128,-1,8
 379 801 379 801 379 760 c 1,9,-1
 91 760 l 1,10,11
 91 829 91 829 123 891 c 128,-1,12
 155 953 155 953 216 1000.5 c 128,-1,13
 277 1048 277 1048 361.5 1075 c 128,-1,14
 446 1102 446 1102 551 1102 c 0,15,16
 677 1102 677 1102 775 1060 c 128,-1,17
 873 1018 873 1018 929.5 934 c 128,-1,18
 986 850 986 850 986 724 c 2,19,-1
 986 261 l 2,20,21
 986 172 986 172 997 115.5 c 128,-1,22
 1008 59 1008 59 1029 17 c 1,23,-1
 1029 0 l 1,24,-1
 738 0 l 1,25,26
 717 44 717 44 706.5 110.5 c 128,-1,27
 696 177 696 177 696 244 c 2,0,-1
734 659 m 1,28,-1
 736 496 l 1,29,-1
 575 496 l 2,30,31
 518 496 518 496 476 483 c 128,-1,32
 434 470 434 470 407 446.5 c 128,-1,33
 380 423 380 423 367.5 392 c 128,-1,34
 355 361 355 361 355 324 c 256,35,36
 355 287 355 287 372 257.5 c 128,-1,37
 389 228 389 228 421 211.5 c 128,-1,38
 453 195 453 195 496 195 c 0,39,40
 561 195 561 195 609 221 c 128,-1,41
 657 247 657 247 683.5 285 c 128,-1,42
 710 323 710 323 711 357 c 1,43,-1
 787 235 l 1,44,45
 771 194 771 194 743.5 150 c 128,-1,46
 716 106 716 106 674 67.5 c 128,-1,47
 632 29 632 29 573 4.5 c 128,-1,48
 514 -20 514 -20 433 -20 c 0,49,50
 330 -20 330 -20 246.5 21.5 c 128,-1,51
 163 63 163 63 114.5 136.5 c 128,-1,52
 66 210 66 210 66 304 c 0,53,54
 66 389 66 389 98 455 c 128,-1,55
 130 521 130 521 192.5 566.5 c 128,-1,56
 255 612 255 612 349 635.5 c 128,-1,57
 443 659 443 659 567 659 c 2,58,-1
 734 659 l 1,28,-1
EndSplineSet
Substitution2: "'smcp' Lowercase to Small Capitals lookup 1 subtable" A.c2sc
EndChar

StartChar: b
Encoding: 98 98 70
Width: 1152
GlyphClass: 2
Flags: W
LayerCount: 2
Fore
SplineSet
112 1536 m 1,0,-1
 400 1536 l 1,1,-1
 400 248 l 1,2,-1
 371 0 l 1,3,-1
 112 0 l 1,4,-1
 112 1536 l 1,0,-1
1085 552 m 2,5,-1
 1085 531 l 2,6,7
 1085 410 1085 410 1059.5 309 c 128,-1,8
 1034 208 1034 208 981 134.5 c 128,-1,9
 928 61 928 61 849.5 20.5 c 128,-1,10
 771 -20 771 -20 665 -20 c 0,11,12
 566 -20 566 -20 493.5 20 c 128,-1,13
 421 60 421 60 372 133 c 128,-1,14
 323 206 323 206 293 304 c 128,-1,15
 263 402 263 402 248 518 c 1,16,-1
 248 564 l 1,17,18
 263 680 263 680 293 778 c 128,-1,19
 323 876 323 876 372 949 c 128,-1,20
 421 1022 421 1022 493 1062 c 128,-1,21
 565 1102 565 1102 663 1102 c 0,22,23
 770 1102 770 1102 849.5 1061.5 c 128,-1,24
 929 1021 929 1021 981.5 947.5 c 128,-1,25
 1034 874 1034 874 1059.5 773.5 c 128,-1,26
 1085 673 1085 673 1085 552 c 2,5,-1
797 531 m 2,27,-1
 797 552 l 2,28,29
 797 618 797 618 787.5 676.5 c 128,-1,30
 778 735 778 735 755 779.5 c 128,-1,31
 732 824 732 824 692.5 850 c 128,-1,32
 653 876 653 876 591 876 c 0,33,34
 532 876 532 876 491 856 c 128,-1,35
 450 836 450 836 423.5 800 c 128,-1,36
 397 764 397 764 383.5 714.5 c 128,-1,37
 370 665 370 665 368 606 c 2,38,-1
 368 475 l 2,39,40
 371 396 371 396 394.5 335.5 c 128,-1,41
 418 275 418 275 466.5 240.5 c 128,-1,42
 515 206 515 206 593 206 c 0,43,44
 654 206 654 206 694 230 c 128,-1,45
 734 254 734 254 756.5 298 c 128,-1,46
 779 342 779 342 788 401.5 c 128,-1,47
 797 461 797 461 797 531 c 2,27,-1
EndSplineSet
Substitution2: "'ss06' Style Set 6 lookup 17 subtable" b.ss06
Substitution2: "'smcp' Lowercase to Small Capitals lookup 1 subtable" B.c2sc
EndChar

StartChar: c
Encoding: 99 99 71
Width: 1067
GlyphClass: 2
Flags: W
LayerCount: 2
Fore
SplineSet
559 205 m 0,0,1
 612 205 612 205 653 225.5 c 128,-1,2
 694 246 694 246 717.5 283.5 c 128,-1,3
 741 321 741 321 742 372 c 1,4,-1
 1013 372 l 1,5,6
 1012 258 1012 258 952 169.5 c 128,-1,7
 892 81 892 81 791 30.5 c 128,-1,8
 690 -20 690 -20 565 -20 c 0,9,10
 439 -20 439 -20 345.5 22 c 128,-1,11
 252 64 252 64 190 138.5 c 128,-1,12
 128 213 128 213 97 312.5 c 128,-1,13
 66 412 66 412 66 526 c 2,14,-1
 66 555 l 2,15,16
 66 670 66 670 97 769.5 c 128,-1,17
 128 869 128 869 190 943.5 c 128,-1,18
 252 1018 252 1018 345 1060 c 128,-1,19
 438 1102 438 1102 563 1102 c 0,20,21
 696 1102 696 1102 796.5 1051 c 128,-1,22
 897 1000 897 1000 954.5 905.5 c 128,-1,23
 1012 811 1012 811 1013 682 c 1,24,-1
 742 682 l 1,25,26
 741 736 741 736 719.5 780 c 128,-1,27
 698 824 698 824 657.5 850.5 c 128,-1,28
 617 877 617 877 558 877 c 0,29,30
 495 877 495 877 455 850.5 c 128,-1,31
 415 824 415 824 393 778.5 c 128,-1,32
 371 733 371 733 362.5 675.5 c 128,-1,33
 354 618 354 618 354 555 c 2,34,-1
 354 526 l 2,35,36
 354 463 354 463 362 405 c 128,-1,37
 370 347 370 347 392.5 302 c 128,-1,38
 415 257 415 257 455 231 c 128,-1,39
 495 205 495 205 559 205 c 0,0,1
EndSplineSet
Substitution2: "'ss06' Style Set 6 lookup 17 subtable" c.ss06
Substitution2: "'smcp' Lowercase to Small Capitals lookup 1 subtable" C.c2sc
EndChar

StartChar: d
Encoding: 100 100 72
Width: 1153
GlyphClass: 2
Flags: W
LayerCount: 2
Fore
SplineSet
751 236 m 1,0,-1
 751 1536 l 1,1,-1
 1041 1536 l 1,2,-1
 1041 0 l 1,3,-1
 780 0 l 1,4,-1
 751 236 l 1,0,-1
67 528 m 2,5,-1
 67 549 l 2,6,7
 67 673 67 673 95 774.5 c 128,-1,8
 123 876 123 876 177 949 c 128,-1,9
 231 1022 231 1022 310 1062 c 128,-1,10
 389 1102 389 1102 490 1102 c 0,11,12
 585 1102 585 1102 656.5 1062 c 128,-1,13
 728 1022 728 1022 778.5 948.5 c 128,-1,14
 829 875 829 875 860 775.5 c 128,-1,15
 891 676 891 676 905 558 c 1,16,-1
 905 512 l 1,17,18
 891 399 891 399 860 302 c 128,-1,19
 829 205 829 205 778.5 132.5 c 128,-1,20
 728 60 728 60 656 20 c 128,-1,21
 584 -20 584 -20 488 -20 c 0,22,23
 387 -20 387 -20 308.5 21 c 128,-1,24
 230 62 230 62 176.5 136 c 128,-1,25
 123 210 123 210 95 310 c 128,-1,26
 67 410 67 410 67 528 c 2,5,-1
355 549 m 2,27,-1
 355 528 l 2,28,29
 355 461 355 461 365.5 403 c 128,-1,30
 376 345 376 345 400.5 300.5 c 128,-1,31
 425 256 425 256 464.5 231.5 c 128,-1,32
 504 207 504 207 561 207 c 0,33,34
 635 207 635 207 683 240.5 c 128,-1,35
 731 274 731 274 756.5 333 c 128,-1,36
 782 392 782 392 786 469 c 1,37,-1
 786 600 l 2,38,39
 783 663 783 663 768.5 713.5 c 128,-1,40
 754 764 754 764 726.5 800 c 128,-1,41
 699 836 699 836 658.5 856 c 128,-1,42
 618 876 618 876 563 876 c 0,43,44
 507 876 507 876 467 850.5 c 128,-1,45
 427 825 427 825 402.5 781 c 128,-1,46
 378 737 378 737 366.5 677.5 c 128,-1,47
 355 618 355 618 355 549 c 2,27,-1
EndSplineSet
Substitution2: "'ss06' Style Set 6 lookup 17 subtable" d.ss06
Substitution2: "'smcp' Lowercase to Small Capitals lookup 1 subtable" D.c2sc
EndChar

StartChar: e
Encoding: 101 101 73
Width: 1106
GlyphClass: 2
Flags: W
LayerCount: 2
Fore
SplineSet
610 -20 m 0,0,1
 484 -20 484 -20 384 20.5 c 128,-1,2
 284 61 284 61 214.5 133 c 128,-1,3
 145 205 145 205 108 300.5 c 128,-1,4
 71 396 71 396 71 504 c 2,5,-1
 71 544 l 2,6,7
 71 667 71 667 106 769 c 128,-1,8
 141 871 141 871 206.5 946 c 128,-1,9
 272 1021 272 1021 366 1061.5 c 128,-1,10
 460 1102 460 1102 578 1102 c 0,11,12
 693 1102 693 1102 782 1064 c 128,-1,13
 871 1026 871 1026 931.5 956 c 128,-1,14
 992 886 992 886 1023 788.5 c 128,-1,15
 1054 691 1054 691 1054 572 c 2,16,-1
 1054 452 l 1,17,-1
 194 452 l 1,18,-1
 194 644 l 1,19,-1
 771 644 l 1,20,-1
 771 666 l 2,21,22
 771 726 771 726 749.5 773.5 c 128,-1,23
 728 821 728 821 685 849 c 128,-1,24
 642 877 642 877 575 877 c 0,25,26
 518 877 518 877 477 852 c 128,-1,27
 436 827 436 827 410.5 782 c 128,-1,28
 385 737 385 737 372.5 676.5 c 128,-1,29
 360 616 360 616 360 544 c 2,30,-1
 360 504 l 2,31,32
 360 439 360 439 378.5 384 c 128,-1,33
 397 329 397 329 431.5 289 c 128,-1,34
 466 249 466 249 515.5 227 c 128,-1,35
 565 205 565 205 628 205 c 0,36,37
 706 205 706 205 773.5 235.5 c 128,-1,38
 841 266 841 266 890 328 c 1,39,-1
 1030 176 l 1,40,41
 996 127 996 127 937.5 82 c 128,-1,42
 879 37 879 37 797 8.5 c 128,-1,43
 715 -20 715 -20 610 -20 c 0,0,1
EndSplineSet
Substitution2: "'ss07' Style Set 7 lookup 18 subtable" e.ss07
Substitution2: "'smcp' Lowercase to Small Capitals lookup 1 subtable" E.c2sc
EndChar

StartChar: f
Encoding: 102 102 74
Width: 733
GlyphClass: 2
Flags: W
LayerCount: 2
Fore
SplineSet
479 0 m 1,0,-1
 189 0 l 1,1,-1
 189 1178 l 2,2,3
 189 1301 189 1301 237.5 1385.5 c 128,-1,4
 286 1470 286 1470 374.5 1513.5 c 128,-1,5
 463 1557 463 1557 585 1557 c 0,6,7
 625 1557 625 1557 662 1551.5 c 128,-1,8
 699 1546 699 1546 734 1538 c 1,9,-1
 731 1321 l 1,10,11
 712 1326 712 1326 691 1328 c 128,-1,12
 670 1330 670 1330 642 1330 c 0,13,14
 590 1330 590 1330 553.5 1312.5 c 128,-1,15
 517 1295 517 1295 498 1261 c 128,-1,16
 479 1227 479 1227 479 1178 c 2,17,-1
 479 0 l 1,0,-1
695 1082 m 1,18,-1
 695 878 l 1,19,-1
 28 878 l 1,20,-1
 28 1082 l 1,21,-1
 695 1082 l 1,18,-1
EndSplineSet
Substitution2: "'smcp' Lowercase to Small Capitals lookup 1 subtable" F.c2sc
EndChar

StartChar: g
Encoding: 103 103 75
Width: 1170
GlyphClass: 2
Flags: W
LayerCount: 2
Fore
SplineSet
797 1082 m 1,0,-1
 1058 1082 l 1,1,-1
 1058 36 l 2,2,3
 1058 -112 1058 -112 992.5 -215.5 c 128,-1,4
 927 -319 927 -319 810 -372.5 c 128,-1,5
 693 -426 693 -426 538 -426 c 0,6,7
 470 -426 470 -426 394.5 -408 c 128,-1,8
 319 -390 319 -390 250.5 -352 c 128,-1,9
 182 -314 182 -314 136 -256 c 1,10,-1
 263 -86 l 1,11,12
 313 -144 313 -144 379 -176.5 c 128,-1,13
 445 -209 445 -209 525 -209 c 0,14,15
 603 -209 603 -209 657 -180.5 c 128,-1,16
 711 -152 711 -152 740 -97.5 c 128,-1,17
 769 -43 769 -43 769 34 c 2,18,-1
 769 832 l 1,19,-1
 797 1082 l 1,0,-1
69 528 m 2,20,-1
 69 549 l 2,21,22
 69 673 69 673 99.5 774.5 c 128,-1,23
 130 876 130 876 186.5 949 c 128,-1,24
 243 1022 243 1022 324 1062 c 128,-1,25
 405 1102 405 1102 507 1102 c 0,26,27
 615 1102 615 1102 688 1062 c 128,-1,28
 761 1022 761 1022 808 948.5 c 128,-1,29
 855 875 855 875 881.5 775.5 c 128,-1,30
 908 676 908 676 923 558 c 1,31,-1
 923 512 l 1,32,33
 908 399 908 399 878 302 c 128,-1,34
 848 205 848 205 799 132.5 c 128,-1,35
 750 60 750 60 677.5 20 c 128,-1,36
 605 -20 605 -20 505 -20 c 256,37,38
 405 -20 405 -20 324.5 21 c 128,-1,39
 244 62 244 62 187 136 c 128,-1,40
 130 210 130 210 99.5 310 c 128,-1,41
 69 410 69 410 69 528 c 2,20,-1
357 549 m 2,42,-1
 357 528 l 2,43,44
 357 461 357 461 370 403 c 128,-1,45
 383 345 383 345 410.5 300.5 c 128,-1,46
 438 256 438 256 479.5 231.5 c 128,-1,47
 521 207 521 207 578 207 c 0,48,49
 657 207 657 207 707 240.5 c 128,-1,50
 757 274 757 274 782 333 c 128,-1,51
 807 392 807 392 811 469 c 1,52,-1
 811 600 l 2,53,54
 809 663 809 663 794 713.5 c 128,-1,55
 779 764 779 764 752 800 c 128,-1,56
 725 836 725 836 682 856 c 128,-1,57
 639 876 639 876 580 876 c 0,58,59
 523 876 523 876 481.5 850.5 c 128,-1,60
 440 825 440 825 412.5 781 c 128,-1,61
 385 737 385 737 371 677.5 c 128,-1,62
 357 618 357 618 357 549 c 2,42,-1
EndSplineSet
Substitution2: "'ss07' Style Set 7 lookup 18 subtable" g.ss07
Substitution2: "'ss06' Style Set 6 lookup 17 subtable" g.ss06
Substitution2: "'ss01' Style Set 1 lookup 12 subtable" g.ss01
Substitution2: "'smcp' Lowercase to Small Capitals lookup 1 subtable" G.c2sc
EndChar

StartChar: h
Encoding: 104 104 76
Width: 1147
GlyphClass: 2
Flags: W
LayerCount: 2
Fore
SplineSet
393 1536 m 1,0,-1
 393 0 l 1,1,-1
 105 0 l 1,2,-1
 105 1536 l 1,3,-1
 393 1536 l 1,0,-1
352 579 m 1,4,-1
 273 579 l 1,5,6
 274 692 274 692 303 787.5 c 128,-1,7
 332 883 332 883 386 953.5 c 128,-1,8
 440 1024 440 1024 515.5 1063 c 128,-1,9
 591 1102 591 1102 683 1102 c 0,10,11
 763 1102 763 1102 828.5 1079.5 c 128,-1,12
 894 1057 894 1057 941.5 1007.5 c 128,-1,13
 989 958 989 958 1015 878 c 128,-1,14
 1041 798 1041 798 1041 684 c 2,15,-1
 1041 0 l 1,16,-1
 751 0 l 1,17,-1
 751 686 l 2,18,19
 751 758 751 758 730.5 799.5 c 128,-1,20
 710 841 710 841 671.5 858.5 c 128,-1,21
 633 876 633 876 577 876 c 0,22,23
 515 876 515 876 471.5 853 c 128,-1,24
 428 830 428 830 402 789.5 c 128,-1,25
 376 749 376 749 364 695 c 128,-1,26
 352 641 352 641 352 579 c 1,4,-1
EndSplineSet
Substitution2: "'smcp' Lowercase to Small Capitals lookup 1 subtable" H.c2sc
EndChar

StartChar: i
Encoding: 105 105 77
Width: 542
GlyphClass: 2
Flags: W
LayerCount: 2
Fore
SplineSet
416 1082 m 1,0,-1
 416 0 l 1,1,-1
 127 0 l 1,2,-1
 127 1082 l 1,3,-1
 416 1082 l 1,0,-1
109 1376 m 260,4,5
 109 1439 109 1439 153 1480 c 132,-1,6
 197 1521 197 1521 271 1521 c 4,7,8
 344 1521 344 1521 388.5 1480 c 132,-1,9
 433 1439 433 1439 433 1376 c 260,10,11
 433 1313 433 1313 388.5 1272 c 132,-1,12
 344 1231 344 1231 271 1231 c 4,13,14
 197 1231 197 1231 153 1272 c 132,-1,15
 109 1313 109 1313 109 1376 c 260,4,5
EndSplineSet
Substitution2: "Single Substitution lookup 3 subtable" glyph635
Substitution2: "'smcp' Lowercase to Small Capitals lookup 1 subtable" I.c2sc
EndChar

StartChar: j
Encoding: 106 106 78
Width: 533
GlyphClass: 2
Flags: W
LayerCount: 2
Fore
SplineSet
128 1082 m 1,0,-1
 417 1082 l 1,1,-1
 417 -65 l 2,2,3
 417 -185 417 -185 373 -268 c 128,-1,4
 329 -351 329 -351 246 -394 c 128,-1,5
 163 -437 163 -437 45 -437 c 0,6,7
 8 -437 8 -437 -27.5 -433 c 128,-1,8
 -63 -429 -63 -429 -101 -420 c 1,9,-1
 -100 -199 l 1,10,11
 -76 -203 -76 -203 -53.5 -205.5 c 128,-1,12
 -31 -208 -31 -208 -8 -208 c 0,13,14
 37 -208 37 -208 67 -193 c 128,-1,15
 97 -178 97 -178 112.5 -146.5 c 128,-1,16
 128 -115 128 -115 128 -65 c 2,17,-1
 128 1082 l 1,0,-1
105 1376 m 260,18,19
 105 1439 105 1439 149.5 1480 c 132,-1,20
 194 1521 194 1521 267 1521 c 4,21,22
 341 1521 341 1521 385 1480 c 132,-1,23
 429 1439 429 1439 429 1376 c 260,24,25
 429 1313 429 1313 385 1272 c 132,-1,26
 341 1231 341 1231 267 1231 c 4,27,28
 194 1231 194 1231 149.5 1272 c 132,-1,29
 105 1313 105 1313 105 1376 c 260,18,19
EndSplineSet
Substitution2: "Single Substitution lookup 3 subtable" glyph633
Substitution2: "'smcp' Lowercase to Small Capitals lookup 1 subtable" J.c2sc
EndChar

StartChar: k
Encoding: 107 107 79
Width: 1094
GlyphClass: 2
Flags: W
LayerCount: 2
Fore
SplineSet
400 1537 m 1,0,-1
 400 0 l 1,1,-1
 112 0 l 1,2,-1
 112 1537 l 1,3,-1
 400 1537 l 1,0,-1
1082 1082 m 1,4,-1
 612 546 l 1,5,-1
 360 291 l 1,6,-1
 255 499 l 1,7,-1
 455 753 l 1,8,-1
 736 1082 l 1,9,-1
 1082 1082 l 1,4,-1
783 0 m 1,10,-1
 463 500 l 1,11,-1
 662 674 l 1,12,-1
 1115 0 l 1,13,-1
 783 0 l 1,10,-1
EndSplineSet
Substitution2: "'ss05' Style Set 5 lookup 16 subtable" k.ss05
Substitution2: "'ss04' Style Set 4 lookup 15 subtable" k.ss04
Substitution2: "'smcp' Lowercase to Small Capitals lookup 1 subtable" K.c2sc
EndChar

StartChar: l
Encoding: 108 108 80
Width: 542
GlyphClass: 2
Flags: W
LayerCount: 2
Fore
SplineSet
416 1536 m 1,0,-1
 416 0 l 1,1,-1
 127 0 l 1,2,-1
 127 1536 l 1,3,-1
 416 1536 l 1,0,-1
EndSplineSet
Substitution2: "'smcp' Lowercase to Small Capitals lookup 1 subtable" L.c2sc
EndChar

StartChar: m
Encoding: 109 109 81
Width: 1774
GlyphClass: 2
Flags: W
LayerCount: 2
Fore
SplineSet
400 858 m 1,0,-1
 400 0 l 1,1,-1
 111 0 l 1,2,-1
 111 1082 l 1,3,-1
 382 1082 l 1,4,-1
 400 858 l 1,0,-1
359 579 m 1,5,-1
 280 579 l 1,6,7
 280 692 280 692 307.5 787.5 c 128,-1,8
 335 883 335 883 388.5 953.5 c 128,-1,9
 442 1024 442 1024 521 1063 c 128,-1,10
 600 1102 600 1102 704 1102 c 0,11,12
 776 1102 776 1102 836 1080.5 c 128,-1,13
 896 1059 896 1059 939.5 1013.5 c 128,-1,14
 983 968 983 968 1007 895.5 c 128,-1,15
 1031 823 1031 823 1031 722 c 2,16,-1
 1031 0 l 1,17,-1
 743 0 l 1,18,-1
 743 690 l 2,19,20
 743 764 743 764 723 804 c 128,-1,21
 703 844 703 844 666.5 860 c 128,-1,22
 630 876 630 876 579 876 c 0,23,24
 523 876 523 876 481.5 853 c 128,-1,25
 440 830 440 830 413 789.5 c 128,-1,26
 386 749 386 749 372.5 695 c 128,-1,27
 359 641 359 641 359 579 c 1,5,-1
1004 612 m 1,28,-1
 901 599 l 1,29,30
 901 705 901 705 927.5 796 c 128,-1,31
 954 887 954 887 1006.5 956 c 128,-1,32
 1059 1025 1059 1025 1137 1063.5 c 128,-1,33
 1215 1102 1215 1102 1317 1102 c 0,34,35
 1395 1102 1395 1102 1459 1079.5 c 128,-1,36
 1523 1057 1523 1057 1568.5 1008.5 c 128,-1,37
 1614 960 1614 960 1638.5 882 c 128,-1,38
 1663 804 1663 804 1663 691 c 2,39,-1
 1663 0 l 1,40,-1
 1374 0 l 1,41,-1
 1374 691 l 2,42,43
 1374 766 1374 766 1354.5 805.5 c 128,-1,44
 1335 845 1335 845 1298.5 860.5 c 128,-1,45
 1262 876 1262 876 1212 876 c 0,46,47
 1160 876 1160 876 1121 855.5 c 128,-1,48
 1082 835 1082 835 1056 799 c 128,-1,49
 1030 763 1030 763 1017 715.5 c 128,-1,50
 1004 668 1004 668 1004 612 c 1,28,-1
EndSplineSet
Substitution2: "'smcp' Lowercase to Small Capitals lookup 1 subtable" M.c2sc
EndChar

StartChar: n
Encoding: 110 110 82
Width: 1148
GlyphClass: 2
Flags: W
LayerCount: 2
Fore
SplineSet
394 851 m 1,0,-1
 394 0 l 1,1,-1
 106 0 l 1,2,-1
 106 1082 l 1,3,-1
 376 1082 l 1,4,-1
 394 851 l 1,0,-1
352 579 m 1,5,-1
 274 579 l 1,6,7
 274 699 274 699 305 795.5 c 128,-1,8
 336 892 336 892 392 960.5 c 128,-1,9
 448 1029 448 1029 525.5 1065.5 c 128,-1,10
 603 1102 603 1102 699 1102 c 0,11,12
 775 1102 775 1102 838 1080 c 128,-1,13
 901 1058 901 1058 946.5 1010 c 128,-1,14
 992 962 992 962 1016.5 883 c 128,-1,15
 1041 804 1041 804 1041 690 c 2,16,-1
 1041 0 l 1,17,-1
 751 0 l 1,18,-1
 751 691 l 2,19,20
 751 763 751 763 731 803 c 128,-1,21
 711 843 711 843 672.5 859.5 c 128,-1,22
 634 876 634 876 578 876 c 0,23,24
 520 876 520 876 477.5 853 c 128,-1,25
 435 830 435 830 407.5 789.5 c 128,-1,26
 380 749 380 749 366 695 c 128,-1,27
 352 641 352 641 352 579 c 1,5,-1
EndSplineSet
Substitution2: "'smcp' Lowercase to Small Capitals lookup 1 subtable" N.c2sc
EndChar

StartChar: o
Encoding: 111 111 83
Width: 1156
GlyphClass: 2
Flags: W
LayerCount: 2
Fore
SplineSet
66 530 m 2,0,-1
 66 551 l 2,1,2
 66 670 66 670 100 770.5 c 128,-1,3
 134 871 134 871 199 945 c 128,-1,4
 264 1019 264 1019 359 1060.5 c 128,-1,5
 454 1102 454 1102 577 1102 c 256,6,7
 700 1102 700 1102 796 1060.5 c 128,-1,8
 892 1019 892 1019 957.5 945 c 128,-1,9
 1023 871 1023 871 1057 770.5 c 128,-1,10
 1091 670 1091 670 1091 551 c 2,11,-1
 1091 530 l 2,12,13
 1091 412 1091 412 1057 311.5 c 128,-1,14
 1023 211 1023 211 957.5 136.5 c 128,-1,15
 892 62 892 62 797 21 c 128,-1,16
 702 -20 702 -20 579 -20 c 256,17,18
 456 -20 456 -20 360.5 21 c 128,-1,19
 265 62 265 62 199.5 136.5 c 128,-1,20
 134 211 134 211 100 311.5 c 128,-1,21
 66 412 66 412 66 530 c 2,0,-1
354 551 m 2,22,-1
 354 530 l 2,23,24
 354 462 354 462 366 403 c 128,-1,25
 378 344 378 344 404.5 299.5 c 128,-1,26
 431 255 431 255 474 230 c 128,-1,27
 517 205 517 205 579 205 c 0,28,29
 639 205 639 205 682 230 c 128,-1,30
 725 255 725 255 751 299.5 c 128,-1,31
 777 344 777 344 789.5 403 c 128,-1,32
 802 462 802 462 802 530 c 2,33,-1
 802 551 l 2,34,35
 802 617 802 617 789.5 675.5 c 128,-1,36
 777 734 777 734 750.5 779.5 c 128,-1,37
 724 825 724 825 681 851 c 128,-1,38
 638 877 638 877 577 877 c 256,39,40
 516 877 516 877 473.5 851 c 128,-1,41
 431 825 431 825 404.5 779.5 c 128,-1,42
 378 734 378 734 366 675.5 c 128,-1,43
 354 617 354 617 354 551 c 2,22,-1
EndSplineSet
Substitution2: "'ss06' Style Set 6 lookup 17 subtable" o.ss06
Substitution2: "'smcp' Lowercase to Small Capitals lookup 1 subtable" O.c2sc
EndChar

StartChar: p
Encoding: 112 112 84
Width: 1152
GlyphClass: 2
Flags: W
LayerCount: 2
Fore
SplineSet
400 874 m 1,0,-1
 400 -416 l 1,1,-1
 112 -416 l 1,2,-1
 112 1082 l 1,3,-1
 379 1082 l 1,4,-1
 400 874 l 1,0,-1
1085 553 m 2,5,-1
 1085 532 l 2,6,7
 1085 414 1085 414 1057.5 313 c 128,-1,8
 1030 212 1030 212 977 137.5 c 128,-1,9
 924 63 924 63 845.5 21.5 c 128,-1,10
 767 -20 767 -20 665 -20 c 0,11,12
 566 -20 566 -20 493 20 c 128,-1,13
 420 60 420 60 370.5 132.5 c 128,-1,14
 321 205 321 205 291 301 c 128,-1,15
 261 397 261 397 245 507 c 1,16,-1
 245 562 l 1,17,18
 261 680 261 680 291 778.5 c 128,-1,19
 321 877 321 877 370.5 949.5 c 128,-1,20
 420 1022 420 1022 492.5 1062 c 128,-1,21
 565 1102 565 1102 663 1102 c 0,22,23
 766 1102 766 1102 844.5 1063 c 128,-1,24
 923 1024 923 1024 976.5 951 c 128,-1,25
 1030 878 1030 878 1057.5 777 c 128,-1,26
 1085 676 1085 676 1085 553 c 2,5,-1
797 532 m 2,27,-1
 797 553 l 2,28,29
 797 622 797 622 785 680.5 c 128,-1,30
 773 739 773 739 748.5 783 c 128,-1,31
 724 827 724 827 684.5 851.5 c 128,-1,32
 645 876 645 876 589 876 c 0,33,34
 530 876 530 876 488.5 857 c 128,-1,35
 447 838 447 838 421 802 c 128,-1,36
 395 766 395 766 382 716 c 128,-1,37
 369 666 369 666 366 603 c 2,38,-1
 366 464 l 1,39,40
 371 390 371 390 394 331.5 c 128,-1,41
 417 273 417 273 465 239 c 128,-1,42
 513 205 513 205 591 205 c 0,43,44
 648 205 648 205 687 230.5 c 128,-1,45
 726 256 726 256 750.5 301 c 128,-1,46
 775 346 775 346 786 405 c 128,-1,47
 797 464 797 464 797 532 c 2,27,-1
EndSplineSet
Substitution2: "'ss06' Style Set 6 lookup 17 subtable" p.ss06
Substitution2: "'smcp' Lowercase to Small Capitals lookup 1 subtable" P.c2sc
EndChar

StartChar: q
Encoding: 113 113 85
Width: 1155
GlyphClass: 2
Flags: W
LayerCount: 2
Fore
SplineSet
751 -416 m 1,0,-1
 751 861 l 1,1,-1
 788 1082 l 1,2,-1
 1041 1082 l 1,3,-1
 1041 -416 l 1,4,-1
 751 -416 l 1,0,-1
67 530 m 2,5,-1
 67 551 l 2,6,7
 67 675 67 675 94.5 776.5 c 128,-1,8
 122 878 122 878 176 950.5 c 128,-1,9
 230 1023 230 1023 308.5 1062.5 c 128,-1,10
 387 1102 387 1102 490 1102 c 0,11,12
 589 1102 589 1102 661 1062 c 128,-1,13
 733 1022 733 1022 782.5 949 c 128,-1,14
 832 876 832 876 862 777 c 128,-1,15
 892 678 892 678 908 560 c 1,16,-1
 908 514 l 1,17,18
 893 401 893 401 862.5 304 c 128,-1,19
 832 207 832 207 782.5 134 c 128,-1,20
 733 61 733 61 660.5 20.5 c 128,-1,21
 588 -20 588 -20 488 -20 c 0,22,23
 387 -20 387 -20 308.5 21.5 c 128,-1,24
 230 63 230 63 176 137 c 128,-1,25
 122 211 122 211 94.5 311.5 c 128,-1,26
 67 412 67 412 67 530 c 2,5,-1
355 551 m 2,27,-1
 355 530 l 2,28,29
 355 463 355 463 366 404.5 c 128,-1,30
 377 346 377 346 401.5 301 c 128,-1,31
 426 256 426 256 465 230.5 c 128,-1,32
 504 205 504 205 561 205 c 0,33,34
 640 205 640 205 688.5 239.5 c 128,-1,35
 737 274 737 274 760.5 334 c 128,-1,36
 784 394 784 394 788 471 c 1,37,-1
 788 602 l 2,38,39
 785 665 785 665 771.5 715.5 c 128,-1,40
 758 766 758 766 731.5 802 c 128,-1,41
 705 838 705 838 663.5 857.5 c 128,-1,42
 622 877 622 877 563 877 c 0,43,44
 507 877 507 877 467 852 c 128,-1,45
 427 827 427 827 402.5 782.5 c 128,-1,46
 378 738 378 738 366.5 679 c 128,-1,47
 355 620 355 620 355 551 c 2,27,-1
EndSplineSet
Substitution2: "'ss06' Style Set 6 lookup 17 subtable" q.ss06
Substitution2: "'smcp' Lowercase to Small Capitals lookup 1 subtable" Q.c2sc
EndChar

StartChar: r
Encoding: 114 114 86
Width: 750
GlyphClass: 2
Flags: W
LayerCount: 2
Fore
SplineSet
400 846 m 1,0,-1
 400 0 l 1,1,-1
 112 0 l 1,2,-1
 112 1082 l 1,3,-1
 383 1082 l 1,4,-1
 400 846 l 1,0,-1
726 1089 m 1,5,-1
 721 822 l 1,6,7
 700 825 700 825 670.5 827.5 c 128,-1,8
 641 830 641 830 617 830 c 0,9,10
 556 830 556 830 511.5 814.5 c 128,-1,11
 467 799 467 799 437.5 769.5 c 128,-1,12
 408 740 408 740 393.5 696.5 c 128,-1,13
 379 653 379 653 377 598 c 1,14,-1
 319 616 l 1,15,16
 319 721 319 721 340 809.5 c 128,-1,17
 361 898 361 898 401.5 964 c 128,-1,18
 442 1030 442 1030 501 1066 c 128,-1,19
 560 1102 560 1102 636 1102 c 0,20,21
 660 1102 660 1102 685 1098.5 c 128,-1,22
 710 1095 710 1095 726 1089 c 1,5,-1
EndSplineSet
Substitution2: "'smcp' Lowercase to Small Capitals lookup 1 subtable" R.c2sc
EndChar

StartChar: s
Encoding: 115 115 87
Width: 1052
GlyphClass: 2
Flags: W
LayerCount: 2
Fore
SplineSet
697 299 m 0,0,1
 697 330 697 330 679 355 c 128,-1,2
 661 380 661 380 612.5 401.5 c 128,-1,3
 564 423 564 423 473 441 c 0,4,5
 391 459 391 459 320.5 486.5 c 128,-1,6
 250 514 250 514 198.5 553 c 128,-1,7
 147 592 147 592 118 645.5 c 128,-1,8
 89 699 89 699 89 768 c 0,9,10
 89 836 89 836 118.5 896 c 128,-1,11
 148 956 148 956 203.5 1002.5 c 128,-1,12
 259 1049 259 1049 339.5 1075.5 c 128,-1,13
 420 1102 420 1102 521 1102 c 0,14,15
 662 1102 662 1102 763.5 1057 c 128,-1,16
 865 1012 865 1012 919.5 933.5 c 128,-1,17
 974 855 974 855 974 755 c 1,18,-1
 686 755 l 1,19,20
 686 797 686 797 668.5 830.5 c 128,-1,21
 651 864 651 864 614.5 883.5 c 128,-1,22
 578 903 578 903 520 903 c 0,23,24
 472 903 472 903 437 886.5 c 128,-1,25
 402 870 402 870 383.5 842.5 c 128,-1,26
 365 815 365 815 365 782 c 0,27,28
 365 757 365 757 375.5 737.5 c 128,-1,29
 386 718 386 718 410 702 c 128,-1,30
 434 686 434 686 472.5 672.5 c 128,-1,31
 511 659 511 659 568 648 c 0,32,33
 685 624 685 624 777 585.5 c 128,-1,34
 869 547 869 547 923 481.5 c 128,-1,35
 977 416 977 416 977 310 c 0,36,37
 977 238 977 238 945 178 c 128,-1,38
 913 118 913 118 853 73.5 c 128,-1,39
 793 29 793 29 709.5 4.5 c 128,-1,40
 626 -20 626 -20 522 -20 c 0,41,42
 371 -20 371 -20 266.5 34 c 128,-1,43
 162 88 162 88 108.5 171.5 c 128,-1,44
 55 255 55 255 55 343 c 1,45,-1
 328 343 l 1,46,47
 330 284 330 284 358.5 248 c 128,-1,48
 387 212 387 212 431.5 196 c 128,-1,49
 476 180 476 180 528 180 c 0,50,51
 584 180 584 180 621 195.5 c 128,-1,52
 658 211 658 211 677.5 237.5 c 128,-1,53
 697 264 697 264 697 299 c 0,0,1
EndSplineSet
Substitution2: "'smcp' Lowercase to Small Capitals lookup 1 subtable" S.c2sc
EndChar

StartChar: t
Encoding: 116 116 88
Width: 693
GlyphClass: 2
Flags: W
LayerCount: 2
Fore
SplineSet
642 1082 m 1,0,-1
 642 878 l 1,1,-1
 12 878 l 1,2,-1
 12 1082 l 1,3,-1
 642 1082 l 1,0,-1
168 1349 m 1,4,-1
 456 1349 l 1,5,-1
 456 326 l 2,6,7
 456 279 456 279 468.5 254 c 128,-1,8
 481 229 481 229 506 219.5 c 128,-1,9
 531 210 531 210 569 210 c 0,10,11
 596 210 596 210 617.5 212.5 c 128,-1,12
 639 215 639 215 654 218 c 1,13,-1
 655 6 l 1,14,15
 618 -6 618 -6 575 -13 c 128,-1,16
 532 -20 532 -20 480 -20 c 0,17,18
 385 -20 385 -20 314.5 11.5 c 128,-1,19
 244 43 244 43 206 113 c 128,-1,20
 168 183 168 183 168 297 c 2,21,-1
 168 1349 l 1,4,-1
EndSplineSet
Substitution2: "'smcp' Lowercase to Small Capitals lookup 1 subtable" T.c2sc
EndChar

StartChar: u
Encoding: 117 117 89
Width: 1147
GlyphClass: 2
Flags: W
LayerCount: 2
Fore
SplineSet
752 259 m 1,0,-1
 752 1082 l 1,1,-1
 1040 1082 l 1,2,-1
 1040 0 l 1,3,-1
 769 0 l 1,4,-1
 752 259 l 1,0,-1
784 481 m 1,5,-1
 869 483 l 1,6,7
 869 375 869 375 844 282.5 c 128,-1,8
 819 190 819 190 769 122.5 c 128,-1,9
 719 55 719 55 643 17.5 c 128,-1,10
 567 -20 567 -20 464 -20 c 0,11,12
 385 -20 385 -20 318.5 2.5 c 128,-1,13
 252 25 252 25 204.5 73.5 c 128,-1,14
 157 122 157 122 130.5 198.5 c 128,-1,15
 104 275 104 275 104 383 c 2,16,-1
 104 1082 l 1,17,-1
 392 1082 l 1,18,-1
 392 381 l 2,19,20
 392 333 392 333 403.5 300 c 128,-1,21
 415 267 415 267 436 246 c 128,-1,22
 457 225 457 225 485.5 216 c 128,-1,23
 514 207 514 207 549 207 c 0,24,25
 638 207 638 207 689.5 243 c 128,-1,26
 741 279 741 279 762.5 341.5 c 128,-1,27
 784 404 784 404 784 481 c 1,5,-1
EndSplineSet
Substitution2: "'smcp' Lowercase to Small Capitals lookup 1 subtable" U.c2sc
EndChar

StartChar: v
Encoding: 118 118 90
Width: 1037
GlyphClass: 2
Flags: W
LayerCount: 2
Fore
SplineSet
480 210 m 1,0,-1
 720 1082 l 1,1,-1
 1021 1082 l 1,2,-1
 656 0 l 1,3,-1
 474 0 l 1,4,-1
 480 210 l 1,0,-1
315 1082 m 1,5,-1
 556 209 l 1,6,-1
 561 0 l 1,7,-1
 378 0 l 1,8,-1
 13 1082 l 1,9,-1
 315 1082 l 1,5,-1
EndSplineSet
Substitution2: "'smcp' Lowercase to Small Capitals lookup 1 subtable" V.c2sc
EndChar

StartChar: w
Encoding: 119 119 91
Width: 1504
GlyphClass: 2
Flags: W
LayerCount: 2
Fore
SplineSet
421 280 m 1,0,-1
 646 1082 l 1,1,-1
 829 1082 l 1,2,-1
 770 767 l 1,3,-1
 545 0 l 1,4,-1
 392 0 l 1,5,-1
 421 280 l 1,0,-1
307 1082 m 1,6,-1
 468 281 l 1,7,-1
 483 0 l 1,8,-1
 303 0 l 1,9,-1
 29 1082 l 1,10,-1
 307 1082 l 1,6,-1
1035 294 m 1,11,-1
 1192 1082 l 1,12,-1
 1471 1082 l 1,13,-1
 1197 0 l 1,14,-1
 1018 0 l 1,15,-1
 1035 294 l 1,11,-1
854 1082 m 1,16,-1
 1078 286 l 1,17,-1
 1109 0 l 1,18,-1
 955 0 l 1,19,-1
 730 766 l 1,20,-1
 673 1082 l 1,21,-1
 854 1082 l 1,16,-1
EndSplineSet
Substitution2: "'smcp' Lowercase to Small Capitals lookup 1 subtable" W.c2sc
EndChar

StartChar: x
Encoding: 120 120 92
Width: 1042
GlyphClass: 2
Flags: W
LayerCount: 2
Fore
SplineSet
344 1082 m 1,0,-1
 523 753 l 1,1,-1
 707 1082 l 1,2,-1
 1014 1082 l 1,3,-1
 708 553 l 1,4,-1
 1028 0 l 1,5,-1
 720 0 l 1,6,-1
 525 348 l 1,7,-1
 330 0 l 1,8,-1
 22 0 l 1,9,-1
 342 553 l 1,10,-1
 36 1082 l 1,11,-1
 344 1082 l 1,0,-1
EndSplineSet
Substitution2: "'smcp' Lowercase to Small Capitals lookup 1 subtable" X.c2sc
EndChar

StartChar: y
Encoding: 121 121 93
Width: 1031
GlyphClass: 2
Flags: W
LayerCount: 2
Fore
SplineSet
433 122 m 1,0,-1
 720 1082 l 1,1,-1
 1029 1082 l 1,2,-1
 594 -163 l 2,3,4
 580 -204 580 -204 556.5 -251 c 128,-1,5
 533 -298 533 -298 493.5 -340.5 c 128,-1,6
 454 -383 454 -383 394.5 -410 c 128,-1,7
 335 -437 335 -437 249 -437 c 0,8,9
 208 -437 208 -437 182 -432 c 128,-1,10
 156 -427 156 -427 120 -418 c 1,11,-1
 120 -207 l 1,12,13
 131 -207 131 -207 143 -207.5 c 128,-1,14
 155 -208 155 -208 166 -208 c 0,15,16
 223 -208 223 -208 259 -195 c 128,-1,17
 295 -182 295 -182 317 -155.5 c 128,-1,18
 339 -129 339 -129 352 -87 c 2,19,-1
 433 122 l 1,0,-1
313 1082 m 1,20,-1
 548 298 l 1,21,-1
 589 -7 l 1,22,-1
 393 -28 l 1,23,-1
 4 1082 l 1,24,-1
 313 1082 l 1,20,-1
EndSplineSet
Substitution2: "'smcp' Lowercase to Small Capitals lookup 1 subtable" Y.c2sc
EndChar

StartChar: z
Encoding: 122 122 94
Width: 1042
GlyphClass: 2
Flags: W
LayerCount: 2
Fore
SplineSet
973 225 m 1,0,-1
 973 0 l 1,1,-1
 151 0 l 1,2,-1
 151 225 l 1,3,-1
 973 225 l 1,0,-1
957 916 m 1,4,-1
 267 0 l 1,5,-1
 74 0 l 1,6,-1
 74 171 l 1,7,-1
 761 1082 l 1,8,-1
 957 1082 l 1,9,-1
 957 916 l 1,4,-1
855 1082 m 1,10,-1
 855 857 l 1,11,-1
 90 857 l 1,12,-1
 90 1082 l 1,13,-1
 855 1082 l 1,10,-1
EndSplineSet
Substitution2: "'smcp' Lowercase to Small Capitals lookup 1 subtable" Z.c2sc
EndChar

StartChar: braceleft
Encoding: 123 123 95
Width: 675
GlyphClass: 1
Flags: W
LayerCount: 2
Fore
SplineSet
585 1597 m 1,0,-1
 641 1441 l 1,1,2
 550 1408 550 1408 517 1324.5 c 128,-1,3
 484 1241 484 1241 484 1132 c 2,4,-1
 484 928 l 2,5,6
 484 827 484 827 439.5 745 c 128,-1,7
 395 663 395 663 299 614.5 c 128,-1,8
 203 566 203 566 48 566 c 1,9,-1
 48 718 l 1,10,11
 143 718 143 718 184.5 775 c 128,-1,12
 226 832 226 832 226 928 c 2,13,-1
 226 1132 l 2,14,15
 226 1237 226 1237 258.5 1328.5 c 128,-1,16
 291 1420 291 1420 369.5 1489.5 c 128,-1,17
 448 1559 448 1559 585 1597 c 1,0,-1
641 -205 m 1,18,-1
 585 -362 l 1,19,20
 448 -323 448 -323 369.5 -253.5 c 128,-1,21
 291 -184 291 -184 258.5 -92.5 c 128,-1,22
 226 -1 226 -1 226 104 c 2,23,-1
 226 308 l 2,24,25
 226 372 226 372 207.5 419 c 128,-1,26
 189 466 189 466 150 491.5 c 128,-1,27
 111 517 111 517 48 517 c 1,28,-1
 48 670 l 1,29,30
 203 670 203 670 299 621.5 c 128,-1,31
 395 573 395 573 439.5 491 c 128,-1,32
 484 409 484 409 484 308 c 2,33,-1
 484 104 l 2,34,35
 484 31 484 31 498.5 -31 c 128,-1,36
 513 -93 513 -93 546.5 -138 c 128,-1,37
 580 -183 580 -183 641 -205 c 1,18,-1
EndSplineSet
EndChar

StartChar: bar
Encoding: 124 124 96
Width: 516
GlyphClass: 1
Flags: W
LayerCount: 2
Fore
SplineSet
346 1456 m 1,0,-1
 346 -270 l 1,1,-1
 174 -270 l 1,2,-1
 174 1456 l 1,3,-1
 346 1456 l 1,0,-1
EndSplineSet
EndChar

StartChar: braceright
Encoding: 125 125 97
Width: 675
GlyphClass: 1
Flags: W
LayerCount: 2
Fore
SplineSet
34 1441 m 1,0,-1
 90 1597 l 1,1,2
 228 1559 228 1559 306 1489.5 c 128,-1,3
 384 1420 384 1420 416.5 1328.5 c 128,-1,4
 449 1237 449 1237 449 1132 c 2,5,-1
 449 928 l 2,6,7
 449 864 449 864 467 817 c 128,-1,8
 485 770 485 770 524.5 744 c 128,-1,9
 564 718 564 718 627 718 c 1,10,-1
 627 570 l 1,11,12
 472 570 472 570 376 617 c 128,-1,13
 280 664 280 664 235 745.5 c 128,-1,14
 190 827 190 827 190 928 c 2,15,-1
 190 1132 l 2,16,17
 190 1205 190 1205 176.5 1267 c 128,-1,18
 163 1329 163 1329 129 1374 c 128,-1,19
 95 1419 95 1419 34 1441 c 1,0,-1
90 -362 m 1,20,-1
 34 -205 l 1,21,22
 95 -183 95 -183 129 -138 c 128,-1,23
 163 -93 163 -93 176.5 -31 c 128,-1,24
 190 31 190 31 190 104 c 2,25,-1
 190 308 l 2,26,27
 190 409 190 409 235 490 c 128,-1,28
 280 571 280 571 376 618.5 c 128,-1,29
 472 666 472 666 627 666 c 1,30,-1
 627 517 l 1,31,32
 533 517 533 517 491 460 c 128,-1,33
 449 403 449 403 449 308 c 2,34,-1
 449 104 l 2,35,36
 449 -1 449 -1 416.5 -92.5 c 128,-1,37
 384 -184 384 -184 306 -253.5 c 128,-1,38
 228 -323 228 -323 90 -362 c 1,20,-1
EndSplineSet
EndChar

StartChar: asciitilde
Encoding: 126 126 98
Width: 1327
GlyphClass: 1
Flags: W
LayerCount: 2
Fore
SplineSet
1007 793 m 1,0,-1
 1219 792 l 1,1,2
 1219 699 1219 699 1195 623 c 128,-1,3
 1171 547 1171 547 1126.5 492.5 c 128,-1,4
 1082 438 1082 438 1021.5 408.5 c 128,-1,5
 961 379 961 379 888 379 c 0,6,7
 807 379 807 379 744 411 c 128,-1,8
 681 443 681 443 609 511 c 0,9,10
 567 553 567 553 529.5 575 c 128,-1,11
 492 597 492 597 451 597 c 0,12,13
 411 597 411 597 382 573.5 c 128,-1,14
 353 550 353 550 336.5 509 c 128,-1,15
 320 468 320 468 320 416 c 1,16,-1
 106 418 l 1,17,18
 106 512 106 512 130 587.5 c 128,-1,19
 154 663 154 663 198 716 c 128,-1,20
 242 769 242 769 302.5 797 c 128,-1,21
 363 825 363 825 436 825 c 0,22,23
 516 825 516 825 582.5 791.5 c 128,-1,24
 649 758 649 758 716 693 c 0,25,26
 760 651 760 651 796 629.5 c 128,-1,27
 832 608 832 608 873 608 c 0,28,29
 912 608 912 608 942 632 c 128,-1,30
 972 656 972 656 989.5 698 c 128,-1,31
 1007 740 1007 740 1007 793 c 1,0,-1
EndSplineSet
EndChar

StartChar: exclamdown
Encoding: 161 161 99
Width: 579
GlyphClass: 1
Flags: W
LayerCount: 2
Fore
SplineSet
137 -368 m 1,0,-1
 171 643 l 1,1,-1
 410 643 l 1,2,-1
 444 -368 l 1,3,-1
 137 -368 l 1,0,-1
452 953 m 256,4,5
 452 890 452 890 408 847.5 c 128,-1,6
 364 805 364 805 290 805 c 0,7,8
 217 805 217 805 172.5 847.5 c 128,-1,9
 128 890 128 890 128 953 c 256,10,11
 128 1016 128 1016 172.5 1059 c 128,-1,12
 217 1102 217 1102 290 1102 c 0,13,14
 364 1102 364 1102 408 1059 c 128,-1,15
 452 1016 452 1016 452 953 c 256,4,5
EndSplineSet
EndChar

StartChar: cent
Encoding: 162 162 100
Width: 1181
GlyphClass: 1
Flags: W
LayerCount: 2
Fore
SplineSet
698 1318 m 1,0,-1
 698 1027 l 1,1,-1
 502 1027 l 1,2,-1
 502 1318 l 1,3,-1
 698 1318 l 1,0,-1
698 45 m 1,4,-1
 698 -245 l 1,5,-1
 502 -245 l 1,6,-1
 502 45 l 1,7,-1
 698 45 l 1,4,-1
594 205 m 0,8,9
 648 205 648 205 688.5 225.5 c 128,-1,10
 729 246 729 246 752.5 283.5 c 128,-1,11
 776 321 776 321 777 372 c 1,12,-1
 1048 372 l 1,13,14
 1048 258 1048 258 987.5 169.5 c 128,-1,15
 927 81 927 81 826 30.5 c 128,-1,16
 725 -20 725 -20 600 -20 c 0,17,18
 474 -20 474 -20 380.5 22 c 128,-1,19
 287 64 287 64 225 138.5 c 128,-1,20
 163 213 163 213 132 312.5 c 128,-1,21
 101 412 101 412 101 526 c 2,22,-1
 101 555 l 2,23,24
 101 670 101 670 132 769.5 c 128,-1,25
 163 869 163 869 225 943.5 c 128,-1,26
 287 1018 287 1018 380.5 1060 c 128,-1,27
 474 1102 474 1102 599 1102 c 0,28,29
 731 1102 731 1102 831.5 1051 c 128,-1,30
 932 1000 932 1000 990 905.5 c 128,-1,31
 1048 811 1048 811 1048 682 c 1,32,-1
 777 682 l 1,33,34
 776 736 776 736 754.5 780 c 128,-1,35
 733 824 733 824 692.5 850.5 c 128,-1,36
 652 877 652 877 593 877 c 0,37,38
 530 877 530 877 490 850.5 c 128,-1,39
 450 824 450 824 428 778.5 c 128,-1,40
 406 733 406 733 397.5 675.5 c 128,-1,41
 389 618 389 618 389 555 c 2,42,-1
 389 526 l 2,43,44
 389 463 389 463 397.5 405 c 128,-1,45
 406 347 406 347 428 302 c 128,-1,46
 450 257 450 257 490.5 231 c 128,-1,47
 531 205 531 205 594 205 c 0,8,9
EndSplineSet
EndChar

StartChar: sterling
Encoding: 163 163 101
Width: 1217
GlyphClass: 1
Flags: W
LayerCount: 2
Fore
SplineSet
1161 0 m 1,0,-1
 102 0 l 1,1,-1
 102 234 l 1,2,-1
 1160 234 l 1,3,-1
 1161 0 l 1,0,-1
868 581 m 1,4,-1
 99 581 l 1,5,-1
 99 808 l 1,6,-1
 868 808 l 1,7,-1
 868 581 l 1,4,-1
547 1039 m 2,8,-1
 572 434 l 2,9,10
 573 335 573 335 531 264.5 c 128,-1,11
 489 194 489 194 387 149 c 1,12,-1
 198 234 l 1,13,14
 229 242 229 242 244.5 270.5 c 128,-1,15
 260 299 260 299 264 339 c 128,-1,16
 268 379 268 379 268 418 c 2,17,-1
 249 1039 l 1,18,19
 249 1177 249 1177 305.5 1274.5 c 128,-1,20
 362 1372 362 1372 463.5 1423.5 c 128,-1,21
 565 1475 565 1475 700 1475 c 0,22,23
 846 1475 846 1475 947.5 1423 c 128,-1,24
 1049 1371 1049 1371 1101.5 1278 c 128,-1,25
 1154 1185 1154 1185 1154 1061 c 1,26,-1
 869 1061 l 1,27,28
 869 1128 869 1128 846 1167.5 c 128,-1,29
 823 1207 823 1207 785 1224.5 c 128,-1,30
 747 1242 747 1242 701 1242 c 0,31,32
 656 1242 656 1242 621.5 1219 c 128,-1,33
 587 1196 587 1196 567 1151 c 128,-1,34
 547 1106 547 1106 547 1039 c 2,8,-1
EndSplineSet
Substitution2: "'c2sc' Capitals to Small Capitals lookup 0 subtable" sterling.c2sc
Position2: "'cpsp' Capital Spacing lookup 0 subtable" dx=36 dy=0 dh=72 dv=0
EndChar

StartChar: currency
Encoding: 164 164 102
Width: 1418
GlyphClass: 1
Flags: W
LayerCount: 2
Fore
SplineSet
297 608 m 256,0,1
 297 515 297 515 329 434.5 c 128,-1,2
 361 354 361 354 418 294 c 128,-1,3
 475 234 475 234 550 200 c 128,-1,4
 625 166 625 166 711 166 c 256,5,6
 797 166 797 166 872 200 c 128,-1,7
 947 234 947 234 1003.5 294 c 128,-1,8
 1060 354 1060 354 1092 434.5 c 128,-1,9
 1124 515 1124 515 1124 608 c 256,10,11
 1124 701 1124 701 1092 781 c 128,-1,12
 1060 861 1060 861 1003.5 921 c 128,-1,13
 947 981 947 981 872 1014.5 c 128,-1,14
 797 1048 797 1048 711 1048 c 256,15,16
 625 1048 625 1048 550 1014.5 c 128,-1,17
 475 981 475 981 418 921 c 128,-1,18
 361 861 361 861 329 781 c 128,-1,19
 297 701 297 701 297 608 c 256,0,1
116 608 m 256,20,21
 116 741 116 741 162.5 855 c 128,-1,22
 209 969 209 969 290.5 1054 c 128,-1,23
 372 1139 372 1139 480 1186.5 c 128,-1,24
 588 1234 588 1234 711 1234 c 256,25,26
 834 1234 834 1234 942 1186.5 c 128,-1,27
 1050 1139 1050 1139 1132 1054 c 128,-1,28
 1214 969 1214 969 1260 855 c 128,-1,29
 1306 741 1306 741 1306 608 c 256,30,31
 1306 475 1306 475 1260 361 c 128,-1,32
 1214 247 1214 247 1132 161.5 c 128,-1,33
 1050 76 1050 76 942 28 c 128,-1,34
 834 -20 834 -20 711 -20 c 256,35,36
 588 -20 588 -20 480 28 c 128,-1,37
 372 76 372 76 290.5 161.5 c 128,-1,38
 209 247 209 247 162.5 361 c 128,-1,39
 116 475 116 475 116 608 c 256,20,21
1347 1123 m 1,40,-1
 1145 917 l 1,41,-1
 1007 1059 l 1,42,-1
 1208 1265 l 1,43,-1
 1347 1123 l 1,40,-1
420 180 m 1,44,-1
 218 -26 l 1,45,-1
 81 115 l 1,46,-1
 283 320 l 1,47,-1
 420 180 l 1,44,-1
1208 -27 m 1,48,-1
 1007 179 l 1,49,-1
 1145 320 l 1,50,-1
 1347 115 l 1,51,-1
 1208 -27 l 1,48,-1
283 917 m 1,52,-1
 81 1123 l 1,53,-1
 218 1264 l 1,54,-1
 420 1058 l 1,55,-1
 283 917 l 1,52,-1
EndSplineSet
EndChar

StartChar: yen
Encoding: 165 165 103
Width: 1098
GlyphClass: 1
Flags: W
LayerCount: 2
Fore
SplineSet
984 740 m 1,0,-1
 984 571 l 1,1,-1
 88 571 l 1,2,-1
 88 740 l 1,3,-1
 984 740 l 1,0,-1
984 450 m 1,4,-1
 984 282 l 1,5,-1
 88 282 l 1,6,-1
 88 450 l 1,7,-1
 984 450 l 1,4,-1
481 709 m 1,8,-1
 775 1456 l 1,9,-1
 1086 1456 l 1,10,-1
 681 561 l 1,11,-1
 516 561 l 1,12,-1
 481 709 l 1,8,-1
323 1456 m 1,13,-1
 623 700 l 1,14,-1
 584 561 l 1,15,-1
 418 561 l 1,16,-1
 12 1456 l 1,17,-1
 323 1456 l 1,13,-1
695 759 m 1,18,-1
 695 0 l 1,19,-1
 396 0 l 1,20,-1
 396 759 l 1,21,-1
 695 759 l 1,18,-1
EndSplineSet
Substitution2: "'c2sc' Capitals to Small Capitals lookup 0 subtable" yen.c2sc
Position2: "'cpsp' Capital Spacing lookup 0 subtable" dx=36 dy=0 dh=72 dv=0
EndChar

StartChar: brokenbar
Encoding: 166 166 104
Width: 514
GlyphClass: 1
Flags: W
LayerCount: 2
Fore
SplineSet
386 -270 m 1,0,-1
 128 -270 l 1,1,-1
 128 524 l 1,2,-1
 386 524 l 1,3,-1
 386 -270 l 1,0,-1
386 1456 m 1,4,-1
 386 698 l 1,5,-1
 128 698 l 1,6,-1
 128 1456 l 1,7,-1
 386 1456 l 1,4,-1
EndSplineSet
EndChar

StartChar: section
Encoding: 167 167 105
Width: 1287
GlyphClass: 1
Flags: W
LayerCount: 2
Fore
SplineSet
677 137 m 1,0,-1
 677 277 l 1,1,2
 747 277 747 277 795.5 299 c 128,-1,3
 844 321 844 321 869.5 360.5 c 128,-1,4
 895 400 895 400 895 451 c 0,5,6
 895 487 895 487 880.5 515.5 c 128,-1,7
 866 544 866 544 832.5 568 c 128,-1,8
 799 592 799 592 742 615 c 128,-1,9
 685 638 685 638 599 665 c 0,10,11
 487 696 487 696 398.5 732 c 128,-1,12
 310 768 310 768 248 816.5 c 128,-1,13
 186 865 186 865 153.5 933 c 128,-1,14
 121 1001 121 1001 121 1097 c 0,15,16
 121 1183 121 1183 157.5 1253 c 128,-1,17
 194 1323 194 1323 262.5 1373 c 128,-1,18
 331 1423 331 1423 426.5 1449.5 c 128,-1,19
 522 1476 522 1476 640 1476 c 0,20,21
 801 1476 801 1476 917.5 1427 c 128,-1,22
 1034 1378 1034 1378 1096.5 1282.5 c 128,-1,23
 1159 1187 1159 1187 1159 1049 c 1,24,-1
 871 1049 l 1,25,26
 871 1106 871 1106 845 1151.5 c 128,-1,27
 819 1197 819 1197 767.5 1224 c 128,-1,28
 716 1251 716 1251 640 1251 c 0,29,30
 559 1251 559 1251 508.5 1230.5 c 128,-1,31
 458 1210 458 1210 434 1175.5 c 128,-1,32
 410 1141 410 1141 410 1099 c 0,33,34
 410 1062 410 1062 422.5 1034.5 c 128,-1,35
 435 1007 435 1007 466 985 c 128,-1,36
 497 963 497 963 553.5 943 c 128,-1,37
 610 923 610 923 698 899 c 0,38,39
 813 869 813 869 902.5 833.5 c 128,-1,40
 992 798 992 798 1053.5 749.5 c 128,-1,41
 1115 701 1115 701 1147.5 634.5 c 128,-1,42
 1180 568 1180 568 1180 478 c 0,43,44
 1180 394 1180 394 1144 330.5 c 128,-1,45
 1108 267 1108 267 1042.5 224 c 128,-1,46
 977 181 977 181 884 159 c 128,-1,47
 791 137 791 137 677 137 c 1,0,-1
581 877 m 1,48,-1
 581 734 l 1,49,50
 512 734 512 734 468 711.5 c 128,-1,51
 424 689 424 689 403.5 651 c 128,-1,52
 383 613 383 613 383 563 c 0,53,54
 383 523 383 523 395.5 494 c 128,-1,55
 408 465 408 465 439.5 442 c 128,-1,56
 471 419 471 419 528 397 c 128,-1,57
 585 375 585 375 674 348 c 0,58,59
 789 317 789 317 878 281.5 c 128,-1,60
 967 246 967 246 1028.5 198 c 128,-1,61
 1090 150 1090 150 1122 81.5 c 128,-1,62
 1154 13 1154 13 1154 -83 c 0,63,64
 1154 -173 1154 -173 1117 -242.5 c 128,-1,65
 1080 -312 1080 -312 1012 -359.5 c 128,-1,66
 944 -407 944 -407 849 -431.5 c 128,-1,67
 754 -456 754 -456 637 -456 c 0,68,69
 536 -456 536 -456 439 -435 c 128,-1,70
 342 -414 342 -414 264 -366.5 c 128,-1,71
 186 -319 186 -319 140 -238.5 c 128,-1,72
 94 -158 94 -158 94 -38 c 1,73,-1
 382 -37 l 1,74,75
 382 -95 382 -95 404 -133 c 128,-1,76
 426 -171 426 -171 463 -191.5 c 128,-1,77
 500 -212 500 -212 545.5 -221 c 128,-1,78
 591 -230 591 -230 637 -230 c 0,79,80
 712 -230 712 -230 762.5 -211.5 c 128,-1,81
 813 -193 813 -193 839.5 -160.5 c 128,-1,82
 866 -128 866 -128 866 -84 c 0,83,84
 866 -50 866 -50 852 -24 c 128,-1,85
 838 2 838 2 805 24.5 c 128,-1,86
 772 47 772 47 715.5 68.5 c 128,-1,87
 659 90 659 90 574 114 c 0,88,89
 462 144 462 144 373 180 c 128,-1,90
 284 216 284 216 222 264 c 128,-1,91
 160 312 160 312 127.5 378.5 c 128,-1,92
 95 445 95 445 95 535 c 0,93,94
 95 617 95 617 129.5 680 c 128,-1,95
 164 743 164 743 227.5 787 c 128,-1,96
 291 831 291 831 380.5 854 c 128,-1,97
 470 877 470 877 581 877 c 1,48,-1
EndSplineSet
EndChar

StartChar: dieresis
Encoding: 168 168 106
Width: 963
GlyphClass: 2
Flags: W
LayerCount: 2
Fore
SplineSet
97 1367 m 256,0,1
 97 1419 97 1419 136.5 1455.5 c 128,-1,2
 176 1492 176 1492 234 1492 c 0,3,4
 294 1492 294 1492 333 1455.5 c 128,-1,5
 372 1419 372 1419 372 1367 c 256,6,7
 372 1315 372 1315 333 1279 c 128,-1,8
 294 1243 294 1243 234 1243 c 0,9,10
 176 1243 176 1243 136.5 1279 c 128,-1,11
 97 1315 97 1315 97 1367 c 256,0,1
588 1366 m 0,12,13
 588 1419 588 1419 627 1455 c 128,-1,14
 666 1491 666 1491 725 1491 c 256,15,16
 784 1491 784 1491 823.5 1455 c 128,-1,17
 863 1419 863 1419 863 1366 c 0,18,19
 863 1314 863 1314 823.5 1278.5 c 128,-1,20
 784 1243 784 1243 725 1243 c 256,21,22
 666 1243 666 1243 627 1278.5 c 128,-1,23
 588 1314 588 1314 588 1366 c 0,12,13
EndSplineSet
EndChar

StartChar: copyright
Encoding: 169 169 107
Width: 1609
GlyphClass: 1
Flags: W
LayerCount: 2
Fore
SplineSet
965 597 m 1,0,-1
 1118 597 l 1,1,2
 1118 440 1118 440 1028 361.5 c 128,-1,3
 938 283 938 283 784 283 c 0,4,5
 677 283 677 283 599 332 c 128,-1,6
 521 381 521 381 478.5 468 c 128,-1,7
 436 555 436 555 436 670 c 2,8,-1
 436 787 l 2,9,10
 436 902 436 902 478.5 989 c 128,-1,11
 521 1076 521 1076 599 1125 c 128,-1,12
 677 1174 677 1174 784 1174 c 0,13,14
 938 1174 938 1174 1028.5 1096 c 128,-1,15
 1119 1018 1119 1018 1119 861 c 1,16,-1
 966 861 l 1,17,18
 966 958 966 958 920 1000 c 128,-1,19
 874 1042 874 1042 784 1042 c 0,20,21
 719 1042 719 1042 675.5 1009.5 c 128,-1,22
 632 977 632 977 609.5 920 c 128,-1,23
 587 863 587 863 587 788 c 2,24,-1
 587 670 l 2,25,26
 587 595 587 595 609.5 537.5 c 128,-1,27
 632 480 632 480 675.5 447.5 c 128,-1,28
 719 415 719 415 784 415 c 0,29,30
 874 415 874 415 919.5 457 c 128,-1,31
 965 499 965 499 965 597 c 1,0,-1
208 729 m 0,32,33
 208 597 208 597 253.5 483 c 128,-1,34
 299 369 299 369 380.5 283.5 c 128,-1,35
 462 198 462 198 569 150.5 c 128,-1,36
 676 103 676 103 798 103 c 256,37,38
 920 103 920 103 1026.5 150.5 c 128,-1,39
 1133 198 1133 198 1214.5 283.5 c 128,-1,40
 1296 369 1296 369 1341.5 483 c 128,-1,41
 1387 597 1387 597 1387 729 c 0,42,43
 1387 862 1387 862 1341.5 975.5 c 128,-1,44
 1296 1089 1296 1089 1214.5 1174 c 128,-1,45
 1133 1259 1133 1259 1026.5 1306 c 128,-1,46
 920 1353 920 1353 798 1353 c 256,47,48
 676 1353 676 1353 569 1306 c 128,-1,49
 462 1259 462 1259 380.5 1174 c 128,-1,50
 299 1089 299 1089 253.5 975.5 c 128,-1,51
 208 862 208 862 208 729 c 0,32,33
88 729 m 256,52,53
 88 888 88 888 143 1024 c 128,-1,54
 198 1160 198 1160 296 1261.5 c 128,-1,55
 394 1363 394 1363 522.5 1419.5 c 128,-1,56
 651 1476 651 1476 798 1476 c 256,57,58
 945 1476 945 1476 1073.5 1419.5 c 128,-1,59
 1202 1363 1202 1363 1299.5 1261.5 c 128,-1,60
 1397 1160 1397 1160 1452.5 1024 c 128,-1,61
 1508 888 1508 888 1508 729 c 256,62,63
 1508 570 1508 570 1452.5 434 c 128,-1,64
 1397 298 1397 298 1299.5 196 c 128,-1,65
 1202 94 1202 94 1073.5 37 c 128,-1,66
 945 -20 945 -20 798 -20 c 256,67,68
 651 -20 651 -20 522.5 37 c 128,-1,69
 394 94 394 94 296 196 c 128,-1,70
 198 298 198 298 143 434 c 128,-1,71
 88 570 88 570 88 729 c 256,52,53
EndSplineSet
EndChar

StartChar: ordfeminine
Encoding: 170 170 108
Width: 909
GlyphClass: 1
Flags: W
LayerCount: 2
Fore
SplineSet
583 861 m 2,0,-1
 583 1201 l 2,1,2
 583 1243 583 1243 570 1272 c 128,-1,3
 557 1301 557 1301 530.5 1316 c 128,-1,4
 504 1331 504 1331 464 1331 c 0,5,6
 399 1331 399 1331 361 1305 c 128,-1,7
 323 1279 323 1279 323 1230 c 1,8,-1
 154 1243 l 1,9,10
 154 1311 154 1311 192.5 1363.5 c 128,-1,11
 231 1416 231 1416 301 1446 c 128,-1,12
 371 1476 371 1476 464 1476 c 0,13,14
 551 1476 551 1476 616 1445 c 128,-1,15
 681 1414 681 1414 717.5 1353 c 128,-1,16
 754 1292 754 1292 754 1200 c 2,17,-1
 754 886 l 2,18,19
 754 837 754 837 760 793 c 128,-1,20
 766 749 766 749 780 705 c 1,21,-1
 607 705 l 1,22,23
 583 778 583 778 583 861 c 2,0,-1
625 1150 m 1,24,-1
 626 1035 l 1,25,-1
 480 1035 l 2,26,27
 421 1035 421 1035 383 1019 c 128,-1,28
 345 1003 345 1003 327 978 c 128,-1,29
 309 953 309 953 309 923 c 0,30,31
 309 881 309 881 338.5 857 c 128,-1,32
 368 833 368 833 429 833 c 0,33,34
 471 833 471 833 513 852 c 128,-1,35
 555 871 555 871 583.5 898 c 128,-1,36
 612 925 612 925 612 950 c 1,37,-1
 630 834 l 1,38,39
 615 802 615 802 584 769 c 128,-1,40
 553 736 553 736 504 713.5 c 128,-1,41
 455 691 455 691 387 691 c 0,42,43
 267 691 267 691 202.5 753.5 c 128,-1,44
 138 816 138 816 138 919 c 0,45,46
 138 993 138 993 175.5 1044.5 c 128,-1,47
 213 1096 213 1096 288.5 1123 c 128,-1,48
 364 1150 364 1150 479 1150 c 2,49,-1
 625 1150 l 1,24,-1
EndSplineSet
EndChar

StartChar: logicalnot
Encoding: 172 172 110
Width: 1128
GlyphClass: 1
Flags: W
LayerCount: 2
Fore
SplineSet
960 804 m 1,0,-1
 960 636 l 1,1,-1
 126 636 l 1,2,-1
 126 804 l 1,3,-1
 960 804 l 1,0,-1
960 727 m 1,4,-1
 960 375 l 1,5,-1
 765 375 l 1,6,-1
 765 727 l 1,7,-1
 960 727 l 1,4,-1
EndSplineSet
EndChar

StartChar: registered
Encoding: 174 174 111
Width: 1609
GlyphClass: 1
Flags: W
LayerCount: 2
Fore
SplineSet
822 654 m 2,0,-1
 607 654 l 1,1,-1
 605 786 l 1,2,-1
 789 786 l 2,3,4
 835 786 835 786 874 799.5 c 128,-1,5
 913 813 913 813 937 839 c 128,-1,6
 961 865 961 865 961 903 c 0,7,8
 961 953 961 953 944.5 981 c 128,-1,9
 928 1009 928 1009 889 1022 c 128,-1,10
 850 1035 850 1035 784 1035 c 2,11,-1
 652 1035 l 1,12,-1
 652 316 l 1,13,-1
 505 316 l 1,14,-1
 505 1166 l 1,15,-1
 784 1166 l 2,16,17
 883 1166 883 1166 956 1136.5 c 128,-1,18
 1029 1107 1029 1107 1068.5 1049 c 128,-1,19
 1108 991 1108 991 1108 905 c 0,20,21
 1108 851 1108 851 1082.5 809 c 128,-1,22
 1057 767 1057 767 1009 737 c 128,-1,23
 961 707 961 707 890 688 c 0,24,25
 887 688 887 688 883.5 681.5 c 128,-1,26
 880 675 880 675 877 675 c 0,27,28
 860 665 860 665 855.5 660.5 c 128,-1,29
 851 656 851 656 846.5 655 c 128,-1,30
 842 654 842 654 822 654 c 2,0,-1
812 654 m 1,31,-1
 833 761 l 1,32,33
 989 761 989 761 1046.5 691 c 128,-1,34
 1104 621 1104 621 1104 515 c 2,35,-1
 1104 459 l 2,36,37
 1104 422 1104 422 1108 388.5 c 128,-1,38
 1112 355 1112 355 1121 332 c 1,39,-1
 1121 316 l 1,40,-1
 970 316 l 1,41,42
 960 342 960 342 958.5 390 c 128,-1,43
 957 438 957 438 957 460 c 2,44,-1
 957 514 l 2,45,46
 957 585 957 585 924 619.5 c 128,-1,47
 891 654 891 654 812 654 c 1,31,-1
207 729 m 0,48,49
 207 597 207 597 253 483 c 128,-1,50
 299 369 299 369 380 283.5 c 128,-1,51
 461 198 461 198 568 150.5 c 128,-1,52
 675 103 675 103 798 103 c 0,53,54
 920 103 920 103 1026.5 150.5 c 128,-1,55
 1133 198 1133 198 1214 283.5 c 128,-1,56
 1295 369 1295 369 1341 483 c 128,-1,57
 1387 597 1387 597 1387 729 c 0,58,59
 1387 862 1387 862 1341 975.5 c 128,-1,60
 1295 1089 1295 1089 1214 1174 c 128,-1,61
 1133 1259 1133 1259 1026.5 1306 c 128,-1,62
 920 1353 920 1353 798 1353 c 0,63,64
 675 1353 675 1353 568 1306 c 128,-1,65
 461 1259 461 1259 380 1174 c 128,-1,66
 299 1089 299 1089 253 975.5 c 128,-1,67
 207 862 207 862 207 729 c 0,48,49
88 729 m 256,68,69
 88 888 88 888 143 1024 c 128,-1,70
 198 1160 198 1160 296 1261.5 c 128,-1,71
 394 1363 394 1363 522.5 1419.5 c 128,-1,72
 651 1476 651 1476 798 1476 c 256,73,74
 945 1476 945 1476 1073.5 1419.5 c 128,-1,75
 1202 1363 1202 1363 1299.5 1261.5 c 128,-1,76
 1397 1160 1397 1160 1452 1024 c 128,-1,77
 1507 888 1507 888 1507 729 c 256,78,79
 1507 570 1507 570 1452 434 c 128,-1,80
 1397 298 1397 298 1299.5 196 c 128,-1,81
 1202 94 1202 94 1073.5 37 c 128,-1,82
 945 -20 945 -20 798 -20 c 256,83,84
 651 -20 651 -20 522.5 37 c 128,-1,85
 394 94 394 94 296 196 c 128,-1,86
 198 298 198 298 143 434 c 128,-1,87
 88 570 88 570 88 729 c 256,68,69
EndSplineSet
EndChar

StartChar: macron
Encoding: 175 175 112
Width: 1025
GlyphClass: 2
Flags: W
LayerCount: 2
Fore
SplineSet
855 1454 m 1,0,-1
 855 1291 l 1,1,-1
 169 1291 l 1,2,-1
 169 1454 l 1,3,-1
 855 1454 l 1,0,-1
EndSplineSet
EndChar

StartChar: degree
Encoding: 176 176 113
Width: 798
GlyphClass: 1
Flags: W
LayerCount: 2
Fore
SplineSet
128 1202 m 256,0,1
 128 1277 128 1277 165 1339.5 c 128,-1,2
 202 1402 202 1402 264 1439 c 128,-1,3
 326 1476 326 1476 400 1476 c 0,4,5
 473 1476 473 1476 534 1439 c 128,-1,6
 595 1402 595 1402 631 1339.5 c 128,-1,7
 667 1277 667 1277 667 1202 c 256,8,9
 667 1127 667 1127 631 1065.5 c 128,-1,10
 595 1004 595 1004 534 968 c 128,-1,11
 473 932 473 932 400 932 c 0,12,13
 326 932 326 932 264 968 c 128,-1,14
 202 1004 202 1004 165 1065.5 c 128,-1,15
 128 1127 128 1127 128 1202 c 256,0,1
272 1202 m 0,16,17
 272 1148 272 1148 310 1112 c 128,-1,18
 348 1076 348 1076 400 1076 c 256,19,20
 452 1076 452 1076 487 1112 c 128,-1,21
 522 1148 522 1148 522 1202 c 0,22,23
 522 1257 522 1257 487 1294 c 128,-1,24
 452 1331 452 1331 400 1331 c 256,25,26
 348 1331 348 1331 310 1294 c 128,-1,27
 272 1257 272 1257 272 1202 c 0,16,17
EndSplineSet
EndChar

StartChar: plusminus
Encoding: 177 177 114
Width: 1100
GlyphClass: 1
Flags: W
LayerCount: 2
Fore
SplineSet
1004 936 m 1,0,-1
 1004 703 l 1,1,-1
 88 703 l 1,2,-1
 88 936 l 1,3,-1
 1004 936 l 1,0,-1
676 1285 m 1,4,-1
 676 334 l 1,5,-1
 423 334 l 1,6,-1
 423 1285 l 1,7,-1
 676 1285 l 1,4,-1
977 229 m 1,8,-1
 977 1 l 1,9,-1
 112 1 l 1,10,-1
 112 229 l 1,11,-1
 977 229 l 1,8,-1
EndSplineSet
EndChar

StartChar: uni00B2
Encoding: 178 178 115
Width: 763
GlyphClass: 1
Flags: W
LayerCount: 2
Fore
SplineSet
692 827 m 1,0,-1
 692 667 l 1,1,-1
 75 667 l 1,2,-1
 75 801 l 1,3,-1
 361 1060 l 2,4,5
 398 1094 398 1094 421 1124.5 c 128,-1,6
 444 1155 444 1155 455.5 1179.5 c 128,-1,7
 467 1204 467 1204 467 1220 c 0,8,9
 467 1259 467 1259 442.5 1283 c 128,-1,10
 418 1307 418 1307 370 1307 c 0,11,12
 315 1307 315 1307 287.5 1273.5 c 128,-1,13
 260 1240 260 1240 260 1194 c 1,14,-1
 57 1194 l 1,15,16
 57 1269 57 1269 94 1331 c 128,-1,17
 131 1393 131 1393 199 1430.5 c 128,-1,18
 267 1468 267 1468 361 1468 c 0,19,20
 459 1468 459 1468 528 1438.5 c 128,-1,21
 597 1409 597 1409 633.5 1354 c 128,-1,22
 670 1299 670 1299 670 1221 c 0,23,24
 670 1163 670 1163 646 1116 c 128,-1,25
 622 1069 622 1069 574 1023 c 128,-1,26
 526 977 526 977 452 920 c 2,27,-1
 341 827 l 1,28,-1
 692 827 l 1,0,-1
EndSplineSet
EndChar

StartChar: uni00B3
Encoding: 179 179 116
Width: 763
GlyphClass: 1
Flags: W
LayerCount: 2
Fore
SplineSet
273 1136 m 1,0,-1
 362 1136 l 2,1,2
 401 1136 401 1136 426 1147.5 c 128,-1,3
 451 1159 451 1159 463.5 1179.5 c 128,-1,4
 476 1200 476 1200 476 1227 c 0,5,6
 476 1257 476 1257 452 1282 c 128,-1,7
 428 1307 428 1307 368 1307 c 0,8,9
 326 1307 326 1307 296 1290 c 128,-1,10
 266 1273 266 1273 266 1243 c 1,11,-1
 63 1243 l 1,12,13
 63 1316 63 1316 105 1366 c 128,-1,14
 147 1416 147 1416 215 1442 c 128,-1,15
 283 1468 283 1468 362 1468 c 0,16,17
 456 1468 456 1468 527.5 1442 c 128,-1,18
 599 1416 599 1416 639 1365.5 c 128,-1,19
 679 1315 679 1315 679 1242 c 0,20,21
 679 1181 679 1181 641.5 1137.5 c 128,-1,22
 604 1094 604 1094 540 1071 c 128,-1,23
 476 1048 476 1048 395 1048 c 2,24,-1
 273 1048 l 1,25,-1
 273 1136 l 1,0,-1
273 1003 m 1,26,-1
 273 1088 l 1,27,-1
 395 1088 l 2,28,29
 483 1088 483 1088 550 1069 c 128,-1,30
 617 1050 617 1050 655 1006.5 c 128,-1,31
 693 963 693 963 693 888 c 0,32,33
 693 815 693 815 649.5 763 c 128,-1,34
 606 711 606 711 531 683.5 c 128,-1,35
 456 656 456 656 362 656 c 0,36,37
 289 656 289 656 216.5 680 c 128,-1,38
 144 704 144 704 96.5 758.5 c 128,-1,39
 49 813 49 813 49 902 c 1,40,-1
 253 902 l 1,41,42
 253 869 253 869 286 843 c 128,-1,43
 319 817 319 817 375 817 c 0,44,45
 436 817 436 817 463 843.5 c 128,-1,46
 490 870 490 870 490 907 c 0,47,48
 490 942 490 942 474.5 963 c 128,-1,49
 459 984 459 984 430.5 993.5 c 128,-1,50
 402 1003 402 1003 362 1003 c 2,51,-1
 273 1003 l 1,26,-1
EndSplineSet
EndChar

StartChar: acute
Encoding: 180 180 117
Width: 676
GlyphClass: 2
Flags: W
LayerCount: 2
Fore
SplineSet
101 1228 m 1,0,-1
 297 1536 l 1,1,-1
 610 1536 l 1,2,-1
 335 1228 l 1,3,-1
 101 1228 l 1,0,-1
EndSplineSet
EndChar

StartChar: mu
Encoding: 181 181 118
Width: 1265
GlyphClass: 1
Flags: W
LayerCount: 2
Fore
SplineSet
816 1082 m 1,0,-1
 1105 1082 l 1,1,-1
 1105 0 l 1,2,-1
 836 0 l 1,3,-1
 816 250 l 1,4,-1
 816 1082 l 1,0,-1
852 503 m 1,5,-1
 969 505 l 1,6,7
 969 391 969 391 946.5 295 c 128,-1,8
 924 199 924 199 878.5 128 c 128,-1,9
 833 57 833 57 764 18 c 128,-1,10
 695 -21 695 -21 603 -21 c 0,11,12
 531 -21 531 -21 472.5 2 c 128,-1,13
 414 25 414 25 370.5 74.5 c 128,-1,14
 327 124 327 124 299 201 c 1,15,-1
 273 461 l 1,16,-1
 428 461 l 1,17,18
 428 383 428 383 441 333 c 128,-1,19
 454 283 454 283 478 255.5 c 128,-1,20
 502 228 502 228 535.5 217.5 c 128,-1,21
 569 207 569 207 610 207 c 0,22,23
 679 207 679 207 726 229 c 128,-1,24
 773 251 773 251 800.5 291 c 128,-1,25
 828 331 828 331 840 385 c 128,-1,26
 852 439 852 439 852 503 c 1,5,-1
140 1082 m 1,27,-1
 428 1082 l 1,28,-1
 428 -416 l 1,29,-1
 140 -416 l 1,30,-1
 140 1082 l 1,27,-1
EndSplineSet
EndChar

StartChar: paragraph
Encoding: 182 182 119
Width: 1001
GlyphClass: 1
Flags: W
LayerCount: 2
Fore
SplineSet
869 0 m 1,0,-1
 654 0 l 1,1,-1
 654 520 l 1,2,-1
 569 520 l 2,3,4
 410 520 410 520 300.5 580.5 c 128,-1,5
 191 641 191 641 134 747 c 128,-1,6
 77 853 77 853 77 988 c 0,7,8
 77 1122 77 1122 134 1228 c 128,-1,9
 191 1334 191 1334 300.5 1395 c 128,-1,10
 410 1456 410 1456 569 1456 c 2,11,-1
 869 1456 l 1,12,-1
 869 0 l 1,0,-1
EndSplineSet
EndChar

StartChar: periodcentered
Encoding: 183 183 120
Width: 618
GlyphClass: 1
Flags: W
LayerCount: 2
Fore
SplineSet
141 699 m 0,0,1
 141 763 141 763 185.5 806.5 c 128,-1,2
 230 850 230 850 305 850 c 0,3,4
 379 850 379 850 423.5 806.5 c 128,-1,5
 468 763 468 763 468 699 c 0,6,7
 468 636 468 636 423.5 593 c 128,-1,8
 379 550 379 550 305 550 c 0,9,10
 230 550 230 550 185.5 593 c 128,-1,11
 141 636 141 636 141 699 c 0,0,1
EndSplineSet
EndChar

StartChar: cedilla
Encoding: 184 184 121
Width: 550
GlyphClass: 1
Flags: W
LayerCount: 2
Fore
SplineSet
128 7 m 1,0,-1
 345 7 l 1,1,-1
 334 -52 l 1,2,3
 391 -62 391 -62 438 -100 c 128,-1,4
 485 -138 485 -138 485 -225 c 0,5,6
 485 -278 485 -278 462.5 -321 c 128,-1,7
 440 -364 440 -364 396 -395.5 c 128,-1,8
 352 -427 352 -427 286 -443.5 c 128,-1,9
 220 -460 220 -460 134 -460 c 1,10,-1
 127 -300 l 1,11,12
 159 -300 159 -300 185 -291 c 128,-1,13
 211 -282 211 -282 226 -263.5 c 128,-1,14
 241 -245 241 -245 241 -215 c 0,15,16
 241 -187 241 -187 226 -171 c 128,-1,17
 211 -155 211 -155 179.5 -147 c 128,-1,18
 148 -139 148 -139 97 -136 c 1,19,-1
 128 7 l 1,0,-1
EndSplineSet
EndChar

StartChar: uni00B9
Encoding: 185 185 122
Width: 763
GlyphClass: 1
Flags: W
LayerCount: 2
Fore
SplineSet
528 1454 m 1,0,-1
 528 667 l 1,1,-1
 325 667 l 1,2,-1
 325 1222 l 1,3,-1
 137 1179 l 1,4,-1
 137 1334 l 1,5,-1
 509 1454 l 1,6,-1
 528 1454 l 1,0,-1
EndSplineSet
EndChar

StartChar: ordmasculine
Encoding: 186 186 123
Width: 937
GlyphClass: 1
Flags: W
LayerCount: 2
Fore
SplineSet
120 1044 m 2,0,-1
 120 1122 l 2,1,2
 120 1226 120 1226 162 1305.5 c 128,-1,3
 204 1385 204 1385 281.5 1430.5 c 128,-1,4
 359 1476 359 1476 464 1476 c 0,5,6
 572 1476 572 1476 649 1430.5 c 128,-1,7
 726 1385 726 1385 768 1305.5 c 128,-1,8
 810 1226 810 1226 810 1122 c 2,9,-1
 810 1044 l 2,10,11
 810 941 810 941 768 861 c 128,-1,12
 726 781 726 781 649.5 735.5 c 128,-1,13
 573 690 573 690 466 690 c 0,14,15
 360 690 360 690 282 735.5 c 128,-1,16
 204 781 204 781 162 861 c 128,-1,17
 120 941 120 941 120 1044 c 2,0,-1
291 1122 m 2,18,-1
 291 1044 l 2,19,20
 291 984 291 984 310 936.5 c 128,-1,21
 329 889 329 889 368 861.5 c 128,-1,22
 407 834 407 834 466 834 c 0,23,24
 524 834 524 834 562.5 861.5 c 128,-1,25
 601 889 601 889 620 936.5 c 128,-1,26
 639 984 639 984 639 1044 c 2,27,-1
 639 1122 l 2,28,29
 639 1181 639 1181 619.5 1228 c 128,-1,30
 600 1275 600 1275 561.5 1303 c 128,-1,31
 523 1331 523 1331 464 1331 c 0,32,33
 406 1331 406 1331 367.5 1303 c 128,-1,34
 329 1275 329 1275 310 1228 c 128,-1,35
 291 1181 291 1181 291 1122 c 2,18,-1
EndSplineSet
EndChar

StartChar: questiondown
Encoding: 191 191 128
Width: 1020
GlyphClass: 1
Flags: W
LayerCount: 2
Fore
SplineSet
412 646 m 1,0,-1
 667 646 l 1,1,2
 667 556 667 556 654 491.5 c 128,-1,3
 641 427 641 427 610 375.5 c 128,-1,4
 579 324 579 324 522 271 c 0,5,6
 476 228 476 228 439.5 189.5 c 128,-1,7
 403 151 403 151 381.5 107.5 c 128,-1,8
 360 64 360 64 360 7 c 0,9,10
 360 -48 360 -48 379 -85 c 128,-1,11
 398 -122 398 -122 433 -139.5 c 128,-1,12
 468 -157 468 -157 515 -157 c 0,13,14
 561 -157 561 -157 599 -138.5 c 128,-1,15
 637 -120 637 -120 660.5 -81 c 128,-1,16
 684 -42 684 -42 685 19 c 1,17,-1
 974 19 l 1,18,19
 972 -118 972 -118 911.5 -208 c 128,-1,20
 851 -298 851 -298 749 -341.5 c 128,-1,21
 647 -385 647 -385 520 -385 c 0,22,23
 380 -385 380 -385 279.5 -340 c 128,-1,24
 179 -295 179 -295 125 -208 c 128,-1,25
 71 -121 71 -121 71 6 c 0,26,27
 71 94 71 94 106.5 163.5 c 128,-1,28
 142 233 142 233 199.5 293 c 128,-1,29
 257 353 257 353 322 413 c 0,30,31
 360 448 360 448 379 481.5 c 128,-1,32
 398 515 398 515 405 555 c 128,-1,33
 412 595 412 595 412 646 c 1,0,-1
705 954 m 256,34,35
 705 891 705 891 660.5 848.5 c 128,-1,36
 616 806 616 806 543 806 c 0,37,38
 469 806 469 806 425 848.5 c 128,-1,39
 381 891 381 891 381 954 c 256,40,41
 381 1017 381 1017 425 1060 c 128,-1,42
 469 1103 469 1103 543 1103 c 0,43,44
 616 1103 616 1103 660.5 1060 c 128,-1,45
 705 1017 705 1017 705 954 c 256,34,35
EndSplineSet
EndChar

StartChar: AE
Encoding: 198 198 129
Width: 1922
GlyphClass: 2
Flags: W
LayerCount: 2
Fore
SplineSet
995 1301 m 1,0,-1
 343 0 l 1,1,-1
 6 0 l 1,2,-1
 788 1456 l 1,3,-1
 971 1456 l 1,4,-1
 995 1301 l 1,0,-1
1096 576 m 1,5,-1
 1096 337 l 1,6,-1
 347 337 l 1,7,-1
 347 576 l 1,8,-1
 1096 576 l 1,5,-1
1861 228 m 1,9,-1
 1861 0 l 1,10,-1
 1129 0 l 1,11,-1
 1129 228 l 1,12,-1
 1861 228 l 1,9,-1
1196 1456 m 1,13,-1
 1257 0 l 1,14,-1
 968 0 l 1,15,-1
 907 1456 l 1,16,-1
 1196 1456 l 1,13,-1
1719 862 m 1,17,-1
 1719 635 l 1,18,-1
 1088 635 l 1,19,-1
 1088 862 l 1,20,-1
 1719 862 l 1,17,-1
1800 1456 m 1,21,-1
 1800 1228 l 1,22,-1
 1068 1228 l 1,23,-1
 1068 1456 l 1,24,-1
 1800 1456 l 1,21,-1
EndSplineSet
Substitution2: "'c2sc' Capitals to Small Capitals lookup 0 subtable" AE.c2sc
Position2: "'cpsp' Capital Spacing lookup 0 subtable" dx=36 dy=0 dh=72 dv=0
EndChar

StartChar: multiply
Encoding: 215 215 130
Width: 1087
GlyphClass: 1
Flags: W
LayerCount: 2
Fore
SplineSet
234 201 m 1,0,-1
 65 364 l 1,1,-1
 844 1159 l 1,2,-1
 1013 995 l 1,3,-1
 234 201 l 1,0,-1
845 201 m 1,4,-1
 66 995 l 1,5,-1
 235 1159 l 1,6,-1
 1014 364 l 1,7,-1
 845 201 l 1,4,-1
EndSplineSet
EndChar

StartChar: Oslash
Encoding: 216 216 131
Width: 1410
GlyphClass: 2
Flags: W
LayerCount: 2
Fore
SplineSet
1285 1517 m 1,0,-1
 334 -94 l 1,1,-1
 147 -94 l 1,2,-1
 1099 1517 l 1,3,-1
 1285 1517 l 1,0,-1
1334 762 m 2,4,-1
 1334 693 l 2,5,6
 1334 527 1334 527 1289.5 395 c 128,-1,7
 1245 263 1245 263 1162 170.5 c 128,-1,8
 1079 78 1079 78 966 29 c 128,-1,9
 853 -20 853 -20 715 -20 c 0,10,11
 606 -20 606 -20 510.5 11.5 c 128,-1,12
 415 43 415 43 338.5 103.5 c 128,-1,13
 262 164 262 164 207 251 c 128,-1,14
 152 338 152 338 122.5 449 c 128,-1,15
 93 560 93 560 93 693 c 2,16,-1
 93 762 l 2,17,18
 93 929 93 929 138.5 1060.5 c 128,-1,19
 184 1192 184 1192 266 1285 c 128,-1,20
 348 1378 348 1378 462 1427 c 128,-1,21
 576 1476 576 1476 713 1476 c 0,22,23
 823 1476 823 1476 918 1444.5 c 128,-1,24
 1013 1413 1013 1413 1089.5 1352.5 c 128,-1,25
 1166 1292 1166 1292 1220.5 1205 c 128,-1,26
 1275 1118 1275 1118 1304.5 1007 c 128,-1,27
 1334 896 1334 896 1334 762 c 2,4,-1
1031 693 m 2,28,-1
 1031 764 l 2,29,30
 1031 856 1031 856 1017 931 c 128,-1,31
 1003 1006 1003 1006 976.5 1063 c 128,-1,32
 950 1120 950 1120 911.5 1158.5 c 128,-1,33
 873 1197 873 1197 823.5 1217 c 128,-1,34
 774 1237 774 1237 713 1237 c 0,35,36
 636 1237 636 1237 577.5 1206.5 c 128,-1,37
 519 1176 519 1176 478.5 1116 c 128,-1,38
 438 1056 438 1056 417.5 968 c 128,-1,39
 397 880 397 880 397 764 c 2,40,-1
 397 693 l 2,41,42
 397 601 397 601 410.5 526 c 128,-1,43
 424 451 424 451 450.5 393.5 c 128,-1,44
 477 336 477 336 515.5 297 c 128,-1,45
 554 258 554 258 604 238 c 128,-1,46
 654 218 654 218 715 218 c 0,47,48
 791 218 791 218 849.5 249 c 128,-1,49
 908 280 908 280 948.5 340.5 c 128,-1,50
 989 401 989 401 1010 489.5 c 128,-1,51
 1031 578 1031 578 1031 693 c 2,28,-1
EndSplineSet
Substitution2: "'c2sc' Capitals to Small Capitals lookup 0 subtable" Oslash.c2sc
Position2: "'cpsp' Capital Spacing lookup 0 subtable" dx=36 dy=0 dh=72 dv=0
EndChar

StartChar: Thorn
Encoding: 222 222 132
Width: 1248
GlyphClass: 1
Flags: W
LayerCount: 2
Fore
SplineSet
133 1456 m 1,0,-1
 422 1456 l 1,1,-1
 422 0 l 1,2,-1
 133 0 l 1,3,-1
 133 1456 l 1,0,-1
232 1187 m 1,4,-1
 646 1187 l 2,5,6
 821 1187 821 1187 940 1129 c 128,-1,7
 1059 1071 1059 1071 1121 970 c 128,-1,8
 1183 869 1183 869 1183 738 c 0,9,10
 1183 608 1183 608 1121 506.5 c 128,-1,11
 1059 405 1059 405 940 347.5 c 128,-1,12
 821 290 821 290 646 290 c 2,13,-1
 381 290 l 1,14,-1
 381 514 l 1,15,-1
 646 514 l 2,16,17
 735 514 735 514 789.5 546 c 128,-1,18
 844 578 844 578 869 628.5 c 128,-1,19
 894 679 894 679 894 736 c 0,20,21
 894 794 894 794 869 845.5 c 128,-1,22
 844 897 844 897 789.5 929.5 c 128,-1,23
 735 962 735 962 646 962 c 2,24,-1
 421 962 l 1,25,-1
 232 1187 l 1,4,-1
EndSplineSet
Substitution2: "'c2sc' Capitals to Small Capitals lookup 0 subtable" Thorn.c2sc
Position2: "'cpsp' Capital Spacing lookup 0 subtable" dx=36 dy=0 dh=72 dv=0
EndChar

StartChar: germandbls
Encoding: 223 223 133
Width: 1294
GlyphClass: 1
Flags: W
LayerCount: 2
Fore
SplineSet
424 1099 m 2,0,-1
 424 0 l 1,1,-1
 137 0 l 1,2,-1
 137 1103 l 2,3,4
 137 1216 137 1216 169.5 1301 c 128,-1,5
 202 1386 202 1386 264 1443.5 c 128,-1,6
 326 1501 326 1501 413.5 1530 c 128,-1,7
 501 1559 501 1559 611 1559 c 0,8,9
 727 1559 727 1559 822.5 1518 c 128,-1,10
 918 1477 918 1477 975 1396 c 128,-1,11
 1032 1315 1032 1315 1032 1193 c 0,12,13
 1032 1118 1032 1118 1016 1073.5 c 128,-1,14
 1000 1029 1000 1029 979.5 996 c 128,-1,15
 959 963 959 963 943 926 c 128,-1,16
 927 889 927 889 927 830 c 0,17,18
 927 789 927 789 957 751 c 128,-1,19
 987 713 987 713 1031.5 674 c 128,-1,20
 1076 635 1076 635 1121 589 c 128,-1,21
 1166 543 1166 543 1196 485 c 128,-1,22
 1226 427 1226 427 1226 352 c 0,23,24
 1226 233 1226 233 1174 150 c 128,-1,25
 1122 67 1122 67 1022 23.5 c 128,-1,26
 922 -20 922 -20 779 -20 c 0,27,28
 728 -20 728 -20 673.5 -12.5 c 128,-1,29
 619 -5 619 -5 573.5 8 c 128,-1,30
 528 21 528 21 500 38 c 1,31,-1
 554 259 l 1,32,33
 586 241 586 241 643.5 223 c 128,-1,34
 701 205 701 205 773 205 c 0,35,36
 826 205 826 205 863 222.5 c 128,-1,37
 900 240 900 240 919.5 272 c 128,-1,38
 939 304 939 304 939 347 c 0,39,40
 939 397 939 397 908.5 435.5 c 128,-1,41
 878 474 878 474 833.5 510.5 c 128,-1,42
 789 547 789 547 744 588.5 c 128,-1,43
 699 630 699 630 668.5 685.5 c 128,-1,44
 638 741 638 741 638 819 c 0,45,46
 638 885 638 885 654.5 928.5 c 128,-1,47
 671 972 671 972 692.5 1006.5 c 128,-1,48
 714 1041 714 1041 730 1080.5 c 128,-1,49
 746 1120 746 1120 746 1178 c 0,50,51
 746 1226 746 1226 726 1261 c 128,-1,52
 706 1296 706 1296 670.5 1315.5 c 128,-1,53
 635 1335 635 1335 589 1335 c 0,54,55
 539 1335 539 1335 502 1312.5 c 128,-1,56
 465 1290 465 1290 444.5 1238 c 128,-1,57
 424 1186 424 1186 424 1099 c 2,0,-1
EndSplineSet
Substitution2: "'smcp' Lowercase to Small Capitals lookup 1 subtable" germandbls.sc
EndChar

StartChar: ae
Encoding: 230 230 134
Width: 1730
GlyphClass: 2
Flags: W
LayerCount: 2
Fore
SplineSet
727 183 m 1,0,-1
 727 707 l 2,1,2
 727 760 727 760 709 798 c 128,-1,3
 691 836 691 836 655.5 856.5 c 128,-1,4
 620 877 620 877 568 877 c 0,5,6
 512 877 512 877 472 859.5 c 128,-1,7
 432 842 432 842 411 812.5 c 128,-1,8
 390 783 390 783 390 746 c 1,9,-1
 102 765 l 1,10,11
 102 839 102 839 135 900 c 128,-1,12
 168 961 168 961 229.5 1006.5 c 128,-1,13
 291 1052 291 1052 378 1077 c 128,-1,14
 465 1102 465 1102 572 1102 c 0,15,16
 704 1102 704 1102 801.5 1057.5 c 128,-1,17
 899 1013 899 1013 953 925 c 128,-1,18
 1007 837 1007 837 1007 705 c 2,19,-1
 1007 218 l 1,20,-1
 727 183 l 1,0,-1
770 649 m 1,21,-1
 772 466 l 1,22,-1
 566 466 l 2,23,24
 497 466 497 466 450 444.5 c 128,-1,25
 403 423 403 423 379 388 c 128,-1,26
 355 353 355 353 355 314 c 0,27,28
 355 276 355 276 373.5 247 c 128,-1,29
 392 218 392 218 429 202 c 128,-1,30
 466 186 466 186 524 186 c 0,31,32
 566 186 566 186 610 201 c 128,-1,33
 654 216 654 216 691 240.5 c 128,-1,34
 728 265 728 265 750.5 293 c 128,-1,35
 773 321 773 321 774 346 c 1,36,-1
 908 194 l 1,37,38
 883 145 883 145 826.5 95.5 c 128,-1,39
 770 46 770 46 680.5 13 c 128,-1,40
 591 -20 591 -20 469 -20 c 0,41,42
 339 -20 339 -20 249.5 21.5 c 128,-1,43
 160 63 160 63 113.5 139 c 128,-1,44
 67 215 67 215 67 318 c 0,45,46
 67 397 67 397 99 458.5 c 128,-1,47
 131 520 131 520 193.5 562.5 c 128,-1,48
 256 605 256 605 348.5 627 c 128,-1,49
 441 649 441 649 564 649 c 2,50,-1
 770 649 l 1,21,-1
1246 -20 m 0,51,52
 1121 -20 1121 -20 1025 18 c 128,-1,53
 929 56 929 56 863 125.5 c 128,-1,54
 797 195 797 195 763.5 289.5 c 128,-1,55
 730 384 730 384 730 496 c 2,56,-1
 730 564 l 2,57,58
 730 683 730 683 762 781.5 c 128,-1,59
 794 880 794 880 857.5 952 c 128,-1,60
 921 1024 921 1024 1013 1063.5 c 128,-1,61
 1105 1103 1105 1103 1224 1102 c 0,62,63
 1331 1102 1331 1102 1415 1068 c 128,-1,64
 1499 1034 1499 1034 1557.5 970.5 c 128,-1,65
 1616 907 1616 907 1647 816.5 c 128,-1,66
 1678 726 1678 726 1678 613 c 2,67,-1
 1678 455 l 1,68,-1
 849 455 l 1,69,-1
 849 644 l 1,70,-1
 1394 644 l 1,71,-1
 1394 672 l 2,72,73
 1394 733 1394 733 1376 779 c 128,-1,74
 1358 825 1358 825 1320.5 851 c 128,-1,75
 1283 877 1283 877 1224 877 c 0,76,77
 1166 877 1166 877 1124.5 853.5 c 128,-1,78
 1083 830 1083 830 1057.5 787.5 c 128,-1,79
 1032 745 1032 745 1020 687.5 c 128,-1,80
 1008 630 1008 630 1008 564 c 2,81,-1
 1008 496 l 2,82,83
 1008 434 1008 434 1023.5 381 c 128,-1,84
 1039 328 1039 328 1071 288.5 c 128,-1,85
 1103 249 1103 249 1154.5 227 c 128,-1,86
 1206 205 1206 205 1278 205 c 0,87,88
 1382 205 1382 205 1448 230 c 128,-1,89
 1514 255 1514 255 1572 285 c 1,90,-1
 1648 101 l 1,91,92
 1614 75 1614 75 1554.5 46.5 c 128,-1,93
 1495 18 1495 18 1416.5 -1 c 128,-1,94
 1338 -20 1338 -20 1246 -20 c 0,51,52
EndSplineSet
Substitution2: "'smcp' Lowercase to Small Capitals lookup 1 subtable" AE.c2sc
EndChar

StartChar: eth
Encoding: 240 240 135
Width: 1177
GlyphClass: 1
Flags: W
LayerCount: 2
Fore
SplineSet
236 1363 m 1,0,-1
 327 1580 l 1,1,2
 499 1544 499 1544 642 1463.5 c 128,-1,3
 785 1383 785 1383 889.5 1263 c 128,-1,4
 994 1143 994 1143 1050.5 988.5 c 128,-1,5
 1107 834 1107 834 1107 649 c 2,6,-1
 1107 574 l 2,7,8
 1107 442 1107 442 1068 333 c 128,-1,9
 1029 224 1029 224 959 144.5 c 128,-1,10
 889 65 889 65 794.5 22.5 c 128,-1,11
 700 -20 700 -20 588 -20 c 0,12,13
 475 -20 475 -20 382.5 17.5 c 128,-1,14
 290 55 290 55 223.5 122 c 128,-1,15
 157 189 157 189 121 277.5 c 128,-1,16
 85 366 85 366 85 468 c 0,17,18
 85 581 85 581 115.5 672.5 c 128,-1,19
 146 764 146 764 204 830 c 128,-1,20
 262 896 262 896 345.5 931 c 128,-1,21
 429 966 429 966 536 966 c 0,22,23
 649 966 649 966 740 916.5 c 128,-1,24
 831 867 831 867 887 781.5 c 128,-1,25
 943 696 943 696 950 589 c 1,26,-1
 847 591 l 1,27,28
 847 617 847 617 832 645.5 c 128,-1,29
 817 674 817 674 786.5 699 c 128,-1,30
 756 724 756 724 709.5 739 c 128,-1,31
 663 754 663 754 600 754 c 0,32,33
 544 754 544 754 501 734 c 128,-1,34
 458 714 458 714 430 677 c 128,-1,35
 402 640 402 640 387.5 587.5 c 128,-1,36
 373 535 373 535 373 468 c 0,37,38
 373 415 373 415 387.5 367.5 c 128,-1,39
 402 320 402 320 430.5 283.5 c 128,-1,40
 459 247 459 247 499.5 226 c 128,-1,41
 540 205 540 205 592 205 c 0,42,43
 647 205 647 205 689.5 231 c 128,-1,44
 732 257 732 257 760 303 c 128,-1,45
 788 349 788 349 802.5 411.5 c 128,-1,46
 817 474 817 474 817 547 c 2,47,-1
 817 651 l 2,48,49
 817 810 817 810 769 930 c 128,-1,50
 721 1050 721 1050 639 1136 c 128,-1,51
 557 1222 557 1222 453 1277.5 c 128,-1,52
 349 1333 349 1333 236 1363 c 1,0,-1
989 1396 m 1,53,-1
 425 1037 l 1,54,-1
 349 1149 l 1,55,-1
 913 1508 l 1,56,-1
 989 1396 l 1,53,-1
EndSplineSet
Substitution2: "'smcp' Lowercase to Small Capitals lookup 1 subtable" Eth.c2sc
EndChar

StartChar: divide
Encoding: 247 247 136
Width: 1168
GlyphClass: 1
Flags: W
LayerCount: 2
Fore
SplineSet
1093 800 m 1,0,-1
 1093 575 l 1,1,-1
 64 575 l 1,2,-1
 64 800 l 1,3,-1
 1093 800 l 1,0,-1
416 1090 m 256,4,5
 416 1154 416 1154 460.5 1195.5 c 128,-1,6
 505 1237 505 1237 579 1237 c 0,7,8
 654 1237 654 1237 698 1195.5 c 128,-1,9
 742 1154 742 1154 742 1090 c 256,10,11
 742 1026 742 1026 698 985 c 128,-1,12
 654 944 654 944 579 944 c 0,13,14
 505 944 505 944 460.5 985 c 128,-1,15
 416 1026 416 1026 416 1090 c 256,4,5
416 279 m 256,16,17
 416 343 416 343 460.5 384.5 c 128,-1,18
 505 426 505 426 579 426 c 0,19,20
 654 426 654 426 698 384.5 c 128,-1,21
 742 343 742 343 742 279 c 256,22,23
 742 215 742 215 698 173.5 c 128,-1,24
 654 132 654 132 579 132 c 0,25,26
 505 132 505 132 460.5 173.5 c 128,-1,27
 416 215 416 215 416 279 c 256,16,17
EndSplineSet
EndChar

StartChar: oslash
Encoding: 248 248 137
Width: 1155
GlyphClass: 2
Flags: W
LayerCount: 2
Fore
SplineSet
992 1216 m 1,0,-1
 329 -142 l 1,1,-1
 170 -142 l 1,2,-1
 833 1216 l 1,3,-1
 992 1216 l 1,0,-1
66 530 m 2,4,-1
 66 551 l 2,5,6
 66 670 66 670 100 770.5 c 128,-1,7
 134 871 134 871 199 945 c 128,-1,8
 264 1019 264 1019 359 1060.5 c 128,-1,9
 454 1102 454 1102 577 1102 c 256,10,11
 700 1102 700 1102 796 1060.5 c 128,-1,12
 892 1019 892 1019 957 945 c 128,-1,13
 1022 871 1022 871 1056 770.5 c 128,-1,14
 1090 670 1090 670 1090 551 c 2,15,-1
 1090 530 l 2,16,17
 1090 412 1090 412 1056 311.5 c 128,-1,18
 1022 211 1022 211 957 136.5 c 128,-1,19
 892 62 892 62 797 21 c 128,-1,20
 702 -20 702 -20 579 -20 c 256,21,22
 456 -20 456 -20 360.5 21 c 128,-1,23
 265 62 265 62 199.5 136.5 c 128,-1,24
 134 211 134 211 100 311.5 c 128,-1,25
 66 412 66 412 66 530 c 2,4,-1
354 551 m 2,26,-1
 354 530 l 2,27,28
 354 462 354 462 366 403 c 128,-1,29
 378 344 378 344 404.5 299.5 c 128,-1,30
 431 255 431 255 474 230 c 128,-1,31
 517 205 517 205 579 205 c 0,32,33
 639 205 639 205 682 230 c 128,-1,34
 725 255 725 255 751 299.5 c 128,-1,35
 777 344 777 344 789.5 403 c 128,-1,36
 802 462 802 462 802 530 c 2,37,-1
 802 551 l 2,38,39
 802 617 802 617 789.5 675.5 c 128,-1,40
 777 734 777 734 750.5 779.5 c 128,-1,41
 724 825 724 825 681 851 c 128,-1,42
 638 877 638 877 577 877 c 256,43,44
 516 877 516 877 473.5 851 c 128,-1,45
 431 825 431 825 404.5 779.5 c 128,-1,46
 378 734 378 734 366 675.5 c 128,-1,47
 354 617 354 617 354 551 c 2,26,-1
EndSplineSet
Substitution2: "'smcp' Lowercase to Small Capitals lookup 1 subtable" Oslash.c2sc
EndChar

StartChar: thorn
Encoding: 254 254 138
Width: 1159
GlyphClass: 1
Flags: W
LayerCount: 2
Fore
SplineSet
402 1536 m 1,0,-1
 402 -416 l 1,1,-1
 112 -416 l 1,2,-1
 112 1536 l 1,3,-1
 402 1536 l 1,0,-1
1086 553 m 2,4,-1
 1086 532 l 2,5,6
 1086 414 1086 414 1059 313 c 128,-1,7
 1032 212 1032 212 978.5 137.5 c 128,-1,8
 925 63 925 63 847 21.5 c 128,-1,9
 769 -20 769 -20 666 -20 c 0,10,11
 567 -20 567 -20 494.5 20 c 128,-1,12
 422 60 422 60 372 132.5 c 128,-1,13
 322 205 322 205 292 301 c 128,-1,14
 262 397 262 397 247 507 c 1,15,-1
 247 562 l 1,16,17
 262 680 262 680 292.5 778.5 c 128,-1,18
 323 877 323 877 372 949.5 c 128,-1,19
 421 1022 421 1022 493 1062 c 128,-1,20
 565 1102 565 1102 664 1102 c 0,21,22
 767 1102 767 1102 846 1063 c 128,-1,23
 925 1024 925 1024 978.5 951 c 128,-1,24
 1032 878 1032 878 1059 777 c 128,-1,25
 1086 676 1086 676 1086 553 c 2,4,-1
798 532 m 2,26,-1
 798 553 l 2,27,28
 798 622 798 622 786.5 680.5 c 128,-1,29
 775 739 775 739 750.5 783 c 128,-1,30
 726 827 726 827 686.5 851.5 c 128,-1,31
 647 876 647 876 590 876 c 0,32,33
 531 876 531 876 490 857 c 128,-1,34
 449 838 449 838 422.5 802 c 128,-1,35
 396 766 396 766 382.5 716 c 128,-1,36
 369 666 369 666 367 603 c 2,37,-1
 367 464 l 2,38,39
 370 409 370 409 383.5 361.5 c 128,-1,40
 397 314 397 314 423.5 279 c 128,-1,41
 450 244 450 244 491.5 224.5 c 128,-1,42
 533 205 533 205 592 205 c 0,43,44
 649 205 649 205 688.5 230.5 c 128,-1,45
 728 256 728 256 752 301 c 128,-1,46
 776 346 776 346 787 405 c 128,-1,47
 798 464 798 464 798 532 c 2,26,-1
EndSplineSet
Substitution2: "'smcp' Lowercase to Small Capitals lookup 1 subtable" Thorn.c2sc
EndChar

StartChar: dcroat
Encoding: 273 273 139
Width: 1290
GlyphClass: 2
Flags: W
LayerCount: 2
Fore
SplineSet
751 236 m 1,0,-1
 751 1536 l 1,1,-1
 1041 1536 l 1,2,-1
 1041 0 l 1,3,-1
 780 0 l 1,4,-1
 751 236 l 1,0,-1
67 528 m 2,5,-1
 67 549 l 2,6,7
 67 673 67 673 95 774.5 c 128,-1,8
 123 876 123 876 177 949 c 128,-1,9
 231 1022 231 1022 310 1062 c 128,-1,10
 389 1102 389 1102 490 1102 c 0,11,12
 585 1102 585 1102 656.5 1062 c 128,-1,13
 728 1022 728 1022 778.5 948.5 c 128,-1,14
 829 875 829 875 860 775.5 c 128,-1,15
 891 676 891 676 905 558 c 1,16,-1
 905 512 l 1,17,18
 891 399 891 399 860 302 c 128,-1,19
 829 205 829 205 778.5 132.5 c 128,-1,20
 728 60 728 60 656 20 c 128,-1,21
 584 -20 584 -20 488 -20 c 0,22,23
 387 -20 387 -20 308.5 21 c 128,-1,24
 230 62 230 62 176.5 136 c 128,-1,25
 123 210 123 210 95 310 c 128,-1,26
 67 410 67 410 67 528 c 2,5,-1
355 549 m 2,27,-1
 355 528 l 2,28,29
 355 461 355 461 365.5 403 c 128,-1,30
 376 345 376 345 400.5 300.5 c 128,-1,31
 425 256 425 256 464.5 231.5 c 128,-1,32
 504 207 504 207 561 207 c 0,33,34
 635 207 635 207 683 240.5 c 128,-1,35
 731 274 731 274 756.5 333 c 128,-1,36
 782 392 782 392 786 469 c 1,37,-1
 786 600 l 2,38,39
 783 663 783 663 768.5 713.5 c 128,-1,40
 754 764 754 764 726.5 800 c 128,-1,41
 699 836 699 836 658.5 856 c 128,-1,42
 618 876 618 876 563 876 c 0,43,44
 507 876 507 876 467 850.5 c 128,-1,45
 427 825 427 825 402.5 781 c 128,-1,46
 378 737 378 737 366.5 677.5 c 128,-1,47
 355 618 355 618 355 549 c 2,27,-1
1196 1399 m 1,48,-1
 1196 1221 l 1,49,-1
 496 1221 l 1,50,-1
 496 1399 l 1,51,-1
 1196 1399 l 1,48,-1
EndSplineSet
Substitution2: "'smcp' Lowercase to Small Capitals lookup 1 subtable" Dcroat.c2sc
EndChar

StartChar: Hbar
Encoding: 294 294 140
Width: 1474
GlyphClass: 2
Flags: W
LayerCount: 2
Fore
SplineSet
1452 1218 m 1,0,-1
 1452 1048 l 1,1,-1
 32 1048 l 1,2,-1
 32 1218 l 1,3,-1
 1452 1218 l 1,0,-1
1116 863 m 1,4,-1
 1116 629 l 1,5,-1
 356 629 l 1,6,-1
 356 863 l 1,7,-1
 1116 863 l 1,4,-1
445 1456 m 1,8,-1
 445 0 l 1,9,-1
 145 0 l 1,10,-1
 145 1456 l 1,11,-1
 445 1456 l 1,8,-1
1330 1456 m 1,12,-1
 1330 0 l 1,13,-1
 1031 0 l 1,14,-1
 1031 1456 l 1,15,-1
 1330 1456 l 1,12,-1
EndSplineSet
Substitution2: "'c2sc' Capitals to Small Capitals lookup 0 subtable" Hbar.c2sc
Position2: "'cpsp' Capital Spacing lookup 0 subtable" dx=36 dy=0 dh=72 dv=0
EndChar

StartChar: dotlessi
Encoding: 305 305 141
Width: 559
GlyphClass: 2
Flags: W
LayerCount: 2
Fore
SplineSet
423 1082 m 1,0,-1
 423 0 l 1,1,-1
 134 0 l 1,2,-1
 134 1082 l 1,3,-1
 423 1082 l 1,0,-1
EndSplineSet
Substitution2: "'smcp' Lowercase to Small Capitals lookup 1 subtable" I.c2sc
EndChar

StartChar: kgreenlandic
Encoding: 312 312 142
Width: 1210
GlyphClass: 2
Flags: W
LayerCount: 2
Fore
SplineSet
418 1082 m 1,0,-1
 418 0 l 1,1,-1
 130 0 l 1,2,-1
 130 1082 l 1,3,-1
 418 1082 l 1,0,-1
1154 1082 m 1,4,-1
 659 405 l 1,5,-1
 367 405 l 1,6,-1
 333 671 l 1,7,-1
 509 671 l 1,8,-1
 789 1082 l 1,9,-1
 1154 1082 l 1,4,-1
802 0 m 1,10,-1
 504 457 l 1,11,-1
 755 596 l 1,12,-1
 1171 0 l 1,13,-1
 802 0 l 1,10,-1
EndSplineSet
EndChar

StartChar: Lslash
Encoding: 321 321 143
Width: 1142
GlyphClass: 2
Flags: W
LayerCount: 2
Fore
SplineSet
680 954 m 1,0,-1
 680 794 l 1,1,-1
 29 607 l 1,2,-1
 29 767 l 1,3,-1
 680 954 l 1,0,-1
1100 234 m 1,4,-1
 1100 0 l 1,5,-1
 367 0 l 1,6,-1
 367 234 l 1,7,-1
 1100 234 l 1,4,-1
463 1456 m 1,8,-1
 463 0 l 1,9,-1
 164 0 l 1,10,-1
 164 1456 l 1,11,-1
 463 1456 l 1,8,-1
EndSplineSet
Substitution2: "'c2sc' Capitals to Small Capitals lookup 0 subtable" Lslash.c2sc
Position2: "'cpsp' Capital Spacing lookup 0 subtable" dx=36 dy=0 dh=72 dv=0
EndChar

StartChar: lslash
Encoding: 322 322 144
Width: 628
GlyphClass: 2
Flags: W
LayerCount: 2
Fore
SplineSet
595 955 m 1,0,-1
 595 794 l 1,1,-1
 30 607 l 1,2,-1
 30 768 l 1,3,-1
 595 955 l 1,0,-1
453 1536 m 1,4,-1
 453 0 l 1,5,-1
 163 0 l 1,6,-1
 163 1536 l 1,7,-1
 453 1536 l 1,4,-1
EndSplineSet
Substitution2: "'smcp' Lowercase to Small Capitals lookup 1 subtable" Lslash.c2sc
EndChar

StartChar: Eng
Encoding: 330 330 145
Width: 1442
GlyphClass: 2
Flags: W
LayerCount: 2
Fore
SplineSet
129 1456 m 1,0,-1
 429 1456 l 1,1,-1
 429 0 l 1,2,-1
 129 0 l 1,3,-1
 129 1456 l 1,0,-1
218 1337 m 1,4,-1
 429 1456 l 1,5,-1
 1227 119 l 1,6,-1
 1014 0 l 1,7,-1
 218 1337 l 1,4,-1
1014 1456 m 1,8,-1
 1314 1456 l 1,9,-1
 1314 -32 l 2,10,11
 1314 -163 1314 -163 1267.5 -253 c 128,-1,12
 1221 -343 1221 -343 1134 -390 c 128,-1,13
 1047 -437 1047 -437 926 -437 c 0,14,15
 887 -437 887 -437 852 -433.5 c 128,-1,16
 817 -430 817 -430 778 -420 c 1,17,-1
 792 -191 l 1,18,19
 815 -197 815 -197 838 -199.5 c 128,-1,20
 861 -202 861 -202 891 -202 c 0,21,22
 931 -202 931 -202 958.5 -183 c 128,-1,23
 986 -164 986 -164 1000 -125.5 c 128,-1,24
 1014 -87 1014 -87 1014 -32 c 2,25,-1
 1014 1456 l 1,8,-1
EndSplineSet
Substitution2: "'c2sc' Capitals to Small Capitals lookup 0 subtable" Eng.c2sc
Position2: "'cpsp' Capital Spacing lookup 0 subtable" dx=36 dy=0 dh=72 dv=0
EndChar

StartChar: eng
Encoding: 331 331 146
Width: 1155
GlyphClass: 2
Flags: W
LayerCount: 2
Fore
SplineSet
396 851 m 1,0,-1
 396 0 l 1,1,-1
 108 0 l 1,2,-1
 108 1082 l 1,3,-1
 377 1082 l 1,4,-1
 396 851 l 1,0,-1
337 577 m 1,5,-1
 297 575 l 1,6,7
 297 690 297 690 325.5 786 c 128,-1,8
 354 882 354 882 407 953 c 128,-1,9
 460 1024 460 1024 534 1063 c 128,-1,10
 608 1102 608 1102 700 1102 c 0,11,12
 778 1102 778 1102 841.5 1077.5 c 128,-1,13
 905 1053 905 1053 951 1001 c 128,-1,14
 997 949 997 949 1022 864.5 c 128,-1,15
 1047 780 1047 780 1047 661 c 2,16,-1
 1047 -39 l 2,17,18
 1047 -167 1047 -167 1001 -256 c 128,-1,19
 955 -345 955 -345 869.5 -391 c 128,-1,20
 784 -437 784 -437 665 -437 c 0,21,22
 627 -437 627 -437 593 -433.5 c 128,-1,23
 559 -430 559 -430 520 -420 c 1,24,-1
 534 -197 l 1,25,26
 557 -203 557 -203 581.5 -206 c 128,-1,27
 606 -209 606 -209 634 -209 c 0,28,29
 674 -209 674 -209 701.5 -190 c 128,-1,30
 729 -171 729 -171 743.5 -132.5 c 128,-1,31
 758 -94 758 -94 758 -39 c 2,32,-1
 758 661 l 2,33,34
 758 721 758 721 747 763 c 128,-1,35
 736 805 736 805 714.5 829.5 c 128,-1,36
 693 854 693 854 663 865 c 128,-1,37
 633 876 633 876 594 876 c 0,38,39
 529 876 529 876 481 853 c 128,-1,40
 433 830 433 830 401 789.5 c 128,-1,41
 369 749 369 749 353 694.5 c 128,-1,42
 337 640 337 640 337 577 c 1,5,-1
EndSplineSet
Substitution2: "'smcp' Lowercase to Small Capitals lookup 1 subtable" Eng.c2sc
EndChar

StartChar: OE
Encoding: 338 338 147
Width: 1981
GlyphClass: 2
Flags: W
LayerCount: 2
Fore
SplineSet
701 1476 m 0,0,1
 777 1476 777 1476 851 1470 c 128,-1,2
 925 1464 925 1464 992 1456 c 1,3,-1
 992 1224 l 1,4,5
 927 1235 927 1235 853 1243 c 128,-1,6
 779 1251 779 1251 701 1251 c 0,7,8
 628 1251 628 1251 569.5 1228 c 128,-1,9
 511 1205 511 1205 469.5 1158.5 c 128,-1,10
 428 1112 428 1112 406.5 1043 c 128,-1,11
 385 974 385 974 385 882 c 2,12,-1
 385 576 l 2,13,14
 385 484 385 484 407 414.5 c 128,-1,15
 429 345 429 345 470.5 298.5 c 128,-1,16
 512 252 512 252 571 228.5 c 128,-1,17
 630 205 630 205 703 205 c 0,18,19
 780 205 780 205 854 212.5 c 128,-1,20
 928 220 928 220 992 232 c 1,21,-1
 992 0 l 1,22,23
 925 -7 925 -7 852 -13.5 c 128,-1,24
 779 -20 779 -20 703 -20 c 0,25,26
 568 -20 568 -20 456.5 23 c 128,-1,27
 345 66 345 66 264.5 145.5 c 128,-1,28
 184 225 184 225 140.5 334.5 c 128,-1,29
 97 444 97 444 97 576 c 2,30,-1
 97 880 l 2,31,32
 97 1012 97 1012 140.5 1121.5 c 128,-1,33
 184 1231 184 1231 264 1310.5 c 128,-1,34
 344 1390 344 1390 455 1433 c 128,-1,35
 566 1476 566 1476 701 1476 c 0,0,1
1880 234 m 1,36,-1
 1880 0 l 1,37,-1
 1106 0 l 1,38,-1
 1106 234 l 1,39,-1
 1880 234 l 1,36,-1
1203 1456 m 1,40,-1
 1203 0 l 1,41,-1
 903 0 l 1,42,-1
 903 1456 l 1,43,-1
 1203 1456 l 1,40,-1
1780 863 m 1,44,-1
 1780 635 l 1,45,-1
 1106 635 l 1,46,-1
 1106 863 l 1,47,-1
 1780 863 l 1,44,-1
1879 1456 m 1,48,-1
 1879 1221 l 1,49,-1
 1106 1221 l 1,50,-1
 1106 1456 l 1,51,-1
 1879 1456 l 1,48,-1
EndSplineSet
Substitution2: "'c2sc' Capitals to Small Capitals lookup 0 subtable" OE.c2sc
Position2: "'cpsp' Capital Spacing lookup 0 subtable" dx=36 dy=0 dh=72 dv=0
EndChar

StartChar: oe
Encoding: 339 339 148
Width: 1850
GlyphClass: 2
Flags: W
LayerCount: 2
Fore
SplineSet
1338 -20 m 0,0,1
 1220 -20 1220 -20 1125 20 c 128,-1,2
 1030 60 1030 60 963 132 c 128,-1,3
 896 204 896 204 860.5 300.5 c 128,-1,4
 825 397 825 397 825 510 c 2,5,-1
 825 550 l 2,6,7
 825 669 825 669 858.5 769.5 c 128,-1,8
 892 870 892 870 955 945 c 128,-1,9
 1018 1020 1018 1020 1109 1061.5 c 128,-1,10
 1200 1103 1200 1103 1313 1102 c 0,11,12
 1424 1102 1424 1102 1510 1067.5 c 128,-1,13
 1596 1033 1596 1033 1654.5 969 c 128,-1,14
 1713 905 1713 905 1743.5 815 c 128,-1,15
 1774 725 1774 725 1774 615 c 2,16,-1
 1774 455 l 1,17,-1
 948 455 l 1,18,-1
 948 647 l 1,19,-1
 1490 647 l 1,20,-1
 1490 673 l 2,21,22
 1490 733 1490 733 1471.5 779 c 128,-1,23
 1453 825 1453 825 1414.5 851 c 128,-1,24
 1376 877 1376 877 1313 877 c 0,25,26
 1260 877 1260 877 1222 851 c 128,-1,27
 1184 825 1184 825 1160 780 c 128,-1,28
 1136 735 1136 735 1125 675.5 c 128,-1,29
 1114 616 1114 616 1114 550 c 2,30,-1
 1114 510 l 2,31,32
 1114 448 1114 448 1129.5 393 c 128,-1,33
 1145 338 1145 338 1177 295.5 c 128,-1,34
 1209 253 1209 253 1257 229 c 128,-1,35
 1305 205 1305 205 1370 205 c 0,36,37
 1477 205 1477 205 1543.5 228.5 c 128,-1,38
 1610 252 1610 252 1672 285 c 1,39,-1
 1749 105 l 1,40,41
 1690 58 1690 58 1584.5 19 c 128,-1,42
 1479 -20 1479 -20 1338 -20 c 0,0,1
83 530 m 2,43,-1
 83 551 l 2,44,45
 83 670 83 670 116.5 770.5 c 128,-1,46
 150 871 150 871 215.5 945 c 128,-1,47
 281 1019 281 1019 375 1060.5 c 128,-1,48
 469 1102 469 1102 592 1102 c 0,49,50
 716 1102 716 1102 811 1060.5 c 128,-1,51
 906 1019 906 1019 971 945 c 128,-1,52
 1036 871 1036 871 1069.5 770.5 c 128,-1,53
 1103 670 1103 670 1103 551 c 2,54,-1
 1103 530 l 2,55,56
 1103 412 1103 412 1069.5 311.5 c 128,-1,57
 1036 211 1036 211 971.5 136.5 c 128,-1,58
 907 62 907 62 812 21 c 128,-1,59
 717 -20 717 -20 594 -20 c 256,60,61
 471 -20 471 -20 376 21 c 128,-1,62
 281 62 281 62 215.5 136.5 c 128,-1,63
 150 211 150 211 116.5 311.5 c 128,-1,64
 83 412 83 412 83 530 c 2,43,-1
371 551 m 2,65,-1
 371 530 l 2,66,67
 371 462 371 462 383 403 c 128,-1,68
 395 344 395 344 421 299.5 c 128,-1,69
 447 255 447 255 489.5 230 c 128,-1,70
 532 205 532 205 594 205 c 0,71,72
 655 205 655 205 697.5 230 c 128,-1,73
 740 255 740 255 766 299.5 c 128,-1,74
 792 344 792 344 803.5 403 c 128,-1,75
 815 462 815 462 815 530 c 2,76,-1
 815 551 l 2,77,78
 815 617 815 617 803.5 675.5 c 128,-1,79
 792 734 792 734 765.5 779.5 c 128,-1,80
 739 825 739 825 696 851 c 128,-1,81
 653 877 653 877 592 877 c 256,82,83
 531 877 531 877 489 851 c 128,-1,84
 447 825 447 825 421 779.5 c 128,-1,85
 395 734 395 734 383 675.5 c 128,-1,86
 371 617 371 617 371 551 c 2,65,-1
EndSplineSet
Substitution2: "'smcp' Lowercase to Small Capitals lookup 1 subtable" OE.c2sc
EndChar

StartChar: longs
Encoding: 383 383 149
Width: 529
GlyphClass: 2
Flags: W
LayerCount: 2
Fore
SplineSet
404 0 m 1,0,-1
 116 0 l 1,1,-1
 116 1178 l 2,2,3
 116 1301 116 1301 163.5 1385.5 c 128,-1,4
 211 1470 211 1470 300.5 1513.5 c 128,-1,5
 390 1557 390 1557 515 1557 c 0,6,7
 556 1557 556 1557 595 1551 c 128,-1,8
 634 1545 634 1545 675 1536 c 1,9,-1
 651 1322 l 1,10,11
 629 1327 629 1327 607 1329.5 c 128,-1,12
 585 1332 585 1332 552 1332 c 0,13,14
 505 1332 505 1332 472 1314 c 128,-1,15
 439 1296 439 1296 421.5 1261.5 c 128,-1,16
 404 1227 404 1227 404 1178 c 2,17,-1
 404 0 l 1,0,-1
EndSplineSet
EndChar

StartChar: uni018F
Encoding: 399 399 150
Width: 1425
GlyphClass: 2
Flags: W
LayerCount: 2
Fore
SplineSet
704 -21 m 0,0,1
 551 -21 551 -21 433.5 27 c 128,-1,2
 316 75 316 75 237 164 c 128,-1,3
 158 253 158 253 117.5 379 c 128,-1,4
 77 505 77 505 77 661 c 2,5,-1
 77 821 l 1,6,-1
 1109 821 l 1,7,-1
 1109 586 l 1,8,-1
 376 586 l 1,9,-1
 376 554 l 2,10,11
 376 487 376 487 394 428.5 c 128,-1,12
 412 370 412 370 450.5 326 c 128,-1,13
 489 282 489 282 552 257 c 128,-1,14
 615 232 615 232 704 232 c 0,15,16
 785 232 785 232 846 265 c 128,-1,17
 907 298 907 298 948 355.5 c 128,-1,18
 989 413 989 413 1009.5 489.5 c 128,-1,19
 1030 566 1030 566 1030 653 c 2,20,-1
 1030 799 l 2,21,22
 1030 887 1030 887 1008.5 963.5 c 128,-1,23
 987 1040 987 1040 939.5 1098.5 c 128,-1,24
 892 1157 892 1157 814.5 1190 c 128,-1,25
 737 1223 737 1223 623 1223 c 0,26,27
 489 1223 489 1223 390 1201 c 128,-1,28
 291 1179 291 1179 232 1157 c 1,29,-1
 184 1395 l 1,30,31
 207 1407 207 1407 274 1426.5 c 128,-1,32
 341 1446 341 1446 436 1461.5 c 128,-1,33
 531 1477 531 1477 639 1477 c 0,34,35
 808 1477 808 1477 937 1427 c 128,-1,36
 1066 1377 1066 1377 1153 1286.5 c 128,-1,37
 1240 1196 1240 1196 1284 1072 c 128,-1,38
 1328 948 1328 948 1328 799 c 2,39,-1
 1328 653 l 2,40,41
 1328 504 1328 504 1280.5 380.5 c 128,-1,42
 1233 257 1233 257 1148.5 167 c 128,-1,43
 1064 77 1064 77 950 28 c 128,-1,44
 836 -21 836 -21 704 -21 c 0,0,1
EndSplineSet
EndChar

StartChar: florin
Encoding: 402 402 151
Width: 739
GlyphClass: 1
Flags: W
LayerCount: 2
Fore
SplineSet
684 1082 m 1,0,-1
 684 878 l 1,1,-1
 473 878 l 1,2,-1
 473 -52 l 2,3,4
 473 -177 473 -177 429 -262.5 c 128,-1,5
 385 -348 385 -348 303 -392.5 c 128,-1,6
 221 -437 221 -437 107 -437 c 0,7,8
 68 -437 68 -437 34.5 -433.5 c 128,-1,9
 1 -430 1 -430 -38 -420 c 1,10,-1
 -23 -200 l 1,11,12
 -8 -204 -8 -204 21 -208 c 128,-1,13
 50 -212 50 -212 68 -212 c 0,14,15
 112 -212 112 -212 137.5 -193.5 c 128,-1,16
 163 -175 163 -175 174 -139.5 c 128,-1,17
 185 -104 185 -104 185 -52 c 2,18,-1
 185 878 l 1,19,-1
 23 878 l 1,20,-1
 23 1082 l 1,21,-1
 185 1082 l 1,22,-1
 185 1178 l 2,23,24
 185 1301 185 1301 232.5 1385.5 c 128,-1,25
 280 1470 280 1470 369 1513.5 c 128,-1,26
 458 1557 458 1557 584 1557 c 0,27,28
 624 1557 624 1557 663.5 1551 c 128,-1,29
 703 1545 703 1545 744 1536 c 1,30,-1
 719 1320 l 1,31,32
 698 1325 698 1325 675 1327.5 c 128,-1,33
 652 1330 652 1330 619 1330 c 0,34,35
 572 1330 572 1330 539.5 1312.5 c 128,-1,36
 507 1295 507 1295 490 1261 c 128,-1,37
 473 1227 473 1227 473 1178 c 2,38,-1
 473 1082 l 1,39,-1
 684 1082 l 1,0,-1
EndSplineSet
EndChar

StartChar: Ohorn
Encoding: 416 416 152
Width: 1440
GlyphClass: 2
Flags: W
LayerCount: 2
Fore
SplineSet
1277 1568 m 1,0,-1
 1470 1568 l 1,1,2
 1470 1428 1470 1428 1430.5 1330 c 128,-1,3
 1391 1232 1391 1232 1309 1180 c 128,-1,4
 1227 1128 1227 1128 1098 1128 c 1,5,-1
 1098 1283 l 1,6,7
 1169 1283 1169 1283 1208 1317 c 128,-1,8
 1247 1351 1247 1351 1262 1415 c 128,-1,9
 1277 1479 1277 1479 1277 1568 c 1,0,-1
1322 762 m 2,10,-1
 1322 693 l 2,11,12
 1322 527 1322 527 1277.5 395 c 128,-1,13
 1233 263 1233 263 1150.5 170.5 c 128,-1,14
 1068 78 1068 78 954.5 29 c 128,-1,15
 841 -20 841 -20 704 -20 c 0,16,17
 595 -20 595 -20 499.5 11.5 c 128,-1,18
 404 43 404 43 327.5 103.5 c 128,-1,19
 251 164 251 164 196 251 c 128,-1,20
 141 338 141 338 111.5 449 c 128,-1,21
 82 560 82 560 82 693 c 2,22,-1
 82 762 l 2,23,24
 82 929 82 929 127.5 1060.5 c 128,-1,25
 173 1192 173 1192 255.5 1285 c 128,-1,26
 338 1378 338 1378 451.5 1427 c 128,-1,27
 565 1476 565 1476 702 1476 c 0,28,29
 811 1476 811 1476 906.5 1444.5 c 128,-1,30
 1002 1413 1002 1413 1078.5 1352.5 c 128,-1,31
 1155 1292 1155 1292 1209.5 1205 c 128,-1,32
 1264 1118 1264 1118 1293 1007 c 128,-1,33
 1322 896 1322 896 1322 762 c 2,10,-1
1019 693 m 2,34,-1
 1019 764 l 2,35,36
 1019 856 1019 856 1005.5 931 c 128,-1,37
 992 1006 992 1006 965.5 1063 c 128,-1,38
 939 1120 939 1120 900.5 1158.5 c 128,-1,39
 862 1197 862 1197 812.5 1217 c 128,-1,40
 763 1237 763 1237 702 1237 c 0,41,42
 626 1237 626 1237 567 1206.5 c 128,-1,43
 508 1176 508 1176 467.5 1116 c 128,-1,44
 427 1056 427 1056 406 968 c 128,-1,45
 385 880 385 880 385 764 c 2,46,-1
 385 693 l 2,47,48
 385 601 385 601 398.5 526 c 128,-1,49
 412 451 412 451 438.5 393.5 c 128,-1,50
 465 336 465 336 503.5 297 c 128,-1,51
 542 258 542 258 592.5 238 c 128,-1,52
 643 218 643 218 704 218 c 0,53,54
 780 218 780 218 838.5 249 c 128,-1,55
 897 280 897 280 937.5 340.5 c 128,-1,56
 978 401 978 401 998.5 489.5 c 128,-1,57
 1019 578 1019 578 1019 693 c 2,34,-1
EndSplineSet
EndChar

StartChar: ohorn
Encoding: 417 417 153
Width: 1190
GlyphClass: 2
Flags: W
LayerCount: 2
Fore
SplineSet
1033 1185 m 1,0,-1
 1205 1185 l 1,1,2
 1205 1065 1205 1065 1168.5 979.5 c 128,-1,3
 1132 894 1132 894 1053.5 848.5 c 128,-1,4
 975 803 975 803 849 803 c 1,5,-1
 849 925 l 1,6,7
 924 925 924 925 963.5 957 c 128,-1,8
 1003 989 1003 989 1018 1047 c 128,-1,9
 1033 1105 1033 1105 1033 1185 c 1,0,-1
64 530 m 2,10,-1
 64 551 l 2,11,12
 64 670 64 670 98 770.5 c 128,-1,13
 132 871 132 871 197.5 945 c 128,-1,14
 263 1019 263 1019 358 1060.5 c 128,-1,15
 453 1102 453 1102 576 1102 c 256,16,17
 699 1102 699 1102 794.5 1060.5 c 128,-1,18
 890 1019 890 1019 955.5 945 c 128,-1,19
 1021 871 1021 871 1055 770.5 c 128,-1,20
 1089 670 1089 670 1089 551 c 2,21,-1
 1089 530 l 2,22,23
 1089 412 1089 412 1055 311.5 c 128,-1,24
 1021 211 1021 211 955.5 136.5 c 128,-1,25
 890 62 890 62 795 21 c 128,-1,26
 700 -20 700 -20 578 -20 c 0,27,28
 455 -20 455 -20 359 21 c 128,-1,29
 263 62 263 62 197.5 136.5 c 128,-1,30
 132 211 132 211 98 311.5 c 128,-1,31
 64 412 64 412 64 530 c 2,10,-1
352 551 m 2,32,-1
 352 530 l 2,33,34
 352 462 352 462 364.5 403 c 128,-1,35
 377 344 377 344 403.5 299.5 c 128,-1,36
 430 255 430 255 473 230 c 128,-1,37
 516 205 516 205 578 205 c 0,38,39
 638 205 638 205 680.5 230 c 128,-1,40
 723 255 723 255 749 299.5 c 128,-1,41
 775 344 775 344 787.5 403 c 128,-1,42
 800 462 800 462 800 530 c 2,43,-1
 800 551 l 2,44,45
 800 617 800 617 788 675.5 c 128,-1,46
 776 734 776 734 749.5 779.5 c 128,-1,47
 723 825 723 825 680 851 c 128,-1,48
 637 877 637 877 576 877 c 256,49,50
 515 877 515 877 472.5 851 c 128,-1,51
 430 825 430 825 403.5 779.5 c 128,-1,52
 377 734 377 734 364.5 675.5 c 128,-1,53
 352 617 352 617 352 551 c 2,32,-1
EndSplineSet
EndChar

StartChar: Uhorn
Encoding: 431 431 154
Width: 1459
GlyphClass: 2
Flags: W
LayerCount: 2
Fore
SplineSet
1429 1537 m 1,0,-1
 1619 1537 l 1,1,2
 1619 1390 1619 1390 1581 1286.5 c 128,-1,3
 1543 1183 1543 1183 1450.5 1128.5 c 128,-1,4
 1358 1074 1358 1074 1195 1074 c 1,5,-1
 1195 1229 l 1,6,7
 1301 1229 1301 1229 1351 1265.5 c 128,-1,8
 1401 1302 1401 1302 1415 1371 c 128,-1,9
 1429 1440 1429 1440 1429 1537 c 1,0,-1
934 1456 m 1,10,-1
 1233 1456 l 1,11,-1
 1233 494 l 2,12,13
 1233 326 1233 326 1161.5 211 c 128,-1,14
 1090 96 1090 96 964.5 38 c 128,-1,15
 839 -20 839 -20 676 -20 c 256,16,17
 513 -20 513 -20 386.5 38 c 128,-1,18
 260 96 260 96 188.5 211 c 128,-1,19
 117 326 117 326 117 494 c 2,20,-1
 117 1456 l 1,21,-1
 417 1456 l 1,22,-1
 417 494 l 2,23,24
 417 396 417 396 448 334 c 128,-1,25
 479 272 479 272 537.5 243 c 128,-1,26
 596 214 596 214 676 214 c 0,27,28
 758 214 758 214 815.5 243 c 128,-1,29
 873 272 873 272 903.5 334 c 128,-1,30
 934 396 934 396 934 494 c 2,31,-1
 934 1456 l 1,10,-1
EndSplineSet
EndChar

StartChar: uhorn
Encoding: 432 432 155
Width: 1243
GlyphClass: 2
Flags: W
LayerCount: 2
Fore
SplineSet
1162 1177 m 1,0,-1
 1333 1177 l 1,1,2
 1333 1054 1333 1054 1297 971 c 128,-1,3
 1261 888 1261 888 1176.5 845.5 c 128,-1,4
 1092 803 1092 803 944 803 c 1,5,-1
 945 937 l 1,6,7
 1042 937 1042 937 1088.5 963 c 128,-1,8
 1135 989 1135 989 1148.5 1042.5 c 128,-1,9
 1162 1096 1162 1096 1162 1177 c 1,0,-1
752 259 m 1,10,-1
 752 1082 l 1,11,-1
 1040 1082 l 1,12,-1
 1040 0 l 1,13,-1
 769 0 l 1,14,-1
 752 259 l 1,10,-1
784 481 m 1,15,-1
 869 483 l 1,16,17
 869 375 869 375 844 282.5 c 128,-1,18
 819 190 819 190 769 122.5 c 128,-1,19
 719 55 719 55 643 17.5 c 128,-1,20
 567 -20 567 -20 464 -20 c 0,21,22
 385 -20 385 -20 318.5 2.5 c 128,-1,23
 252 25 252 25 204.5 73.5 c 128,-1,24
 157 122 157 122 130.5 198.5 c 128,-1,25
 104 275 104 275 104 383 c 2,26,-1
 104 1082 l 1,27,-1
 392 1082 l 1,28,-1
 392 381 l 2,29,30
 392 333 392 333 403.5 300 c 128,-1,31
 415 267 415 267 436 246 c 128,-1,32
 457 225 457 225 485.5 216 c 128,-1,33
 514 207 514 207 549 207 c 0,34,35
 638 207 638 207 689.5 243 c 128,-1,36
 741 279 741 279 762.5 341.5 c 128,-1,37
 784 404 784 404 784 481 c 1,15,-1
EndSplineSet
EndChar

StartChar: uni0237
Encoding: 567 567 156
Width: 576
GlyphClass: 2
Flags: W
LayerCount: 2
Fore
SplineSet
151 1082 m 1,0,-1
 439 1082 l 1,1,-1
 439 -39 l 2,2,3
 439 -167 439 -167 393 -256 c 128,-1,4
 347 -345 347 -345 261.5 -391 c 128,-1,5
 176 -437 176 -437 58 -437 c 0,6,7
 19 -437 19 -437 -15 -433.5 c 128,-1,8
 -49 -430 -49 -430 -88 -420 c 1,9,-1
 -73 -200 l 1,10,11
 -50 -206 -50 -206 -26 -209 c 128,-1,12
 -2 -212 -2 -212 26 -212 c 0,13,14
 65 -212 65 -212 93 -192 c 128,-1,15
 121 -172 121 -172 136 -133 c 128,-1,16
 151 -94 151 -94 151 -39 c 2,17,-1
 151 1082 l 1,0,-1
EndSplineSet
EndChar

StartChar: uni0259
Encoding: 601 601 157
Width: 1083
GlyphClass: 2
Flags: W
LayerCount: 2
Fore
SplineSet
512 1103 m 0,0,1
 631 1103 631 1103 726 1063 c 128,-1,2
 821 1023 821 1023 887.5 951 c 128,-1,3
 954 879 954 879 989.5 782.5 c 128,-1,4
 1025 686 1025 686 1025 573 c 2,5,-1
 1025 533 l 2,6,7
 1025 415 1025 415 991.5 314 c 128,-1,8
 958 213 958 213 895 138 c 128,-1,9
 832 63 832 63 741.5 21.5 c 128,-1,10
 651 -20 651 -20 537 -19 c 0,11,12
 426 -19 426 -19 340.5 15.5 c 128,-1,13
 255 50 255 50 196 114 c 128,-1,14
 137 178 137 178 107 268 c 128,-1,15
 77 358 77 358 77 468 c 2,16,-1
 77 628 l 1,17,-1
 903 628 l 1,18,-1
 903 436 l 1,19,-1
 360 436 l 1,20,-1
 360 410 l 2,21,22
 360 351 360 351 378.5 304.5 c 128,-1,23
 397 258 397 258 436.5 232 c 128,-1,24
 476 206 476 206 537 206 c 0,25,26
 591 206 591 206 628.5 232 c 128,-1,27
 666 258 666 258 690 303 c 128,-1,28
 714 348 714 348 725.5 407.5 c 128,-1,29
 737 467 737 467 737 533 c 2,30,-1
 737 573 l 2,31,32
 737 635 737 635 721 690 c 128,-1,33
 705 745 705 745 673.5 787 c 128,-1,34
 642 829 642 829 594 853.5 c 128,-1,35
 546 878 546 878 481 878 c 0,36,37
 373 878 373 878 307 855 c 128,-1,38
 241 832 241 832 179 798 c 1,39,-1
 101 978 l 1,40,41
 161 1025 161 1025 266.5 1064 c 128,-1,42
 372 1103 372 1103 512 1103 c 0,0,1
EndSplineSet
PairPos2: "'kern' Horizontal Kerning lookup 4 per glyph data 0" uni02BC dx=0 dy=0 dh=0 dv=0 dx=0 dy=0 dh=0 dv=0
PairPos2: "'kern' Horizontal Kerning lookup 4 per glyph data 0" second dx=0 dy=0 dh=0 dv=0 dx=0 dy=0 dh=0 dv=0
PairPos2: "'kern' Horizontal Kerning lookup 4 per glyph data 0" minute dx=0 dy=0 dh=0 dv=0 dx=0 dy=0 dh=0 dv=0
PairPos2: "'kern' Horizontal Kerning lookup 4 per glyph data 0" quotedblright dx=0 dy=0 dh=0 dv=0 dx=0 dy=0 dh=0 dv=0
PairPos2: "'kern' Horizontal Kerning lookup 4 per glyph data 0" quotedblleft dx=0 dy=0 dh=0 dv=0 dx=0 dy=0 dh=0 dv=0
PairPos2: "'kern' Horizontal Kerning lookup 4 per glyph data 0" quotereversed dx=0 dy=0 dh=0 dv=0 dx=0 dy=0 dh=0 dv=0
PairPos2: "'kern' Horizontal Kerning lookup 4 per glyph data 0" quoteright dx=0 dy=0 dh=0 dv=0 dx=0 dy=0 dh=0 dv=0
PairPos2: "'kern' Horizontal Kerning lookup 4 per glyph data 0" quoteleft dx=0 dy=0 dh=0 dv=0 dx=0 dy=0 dh=0 dv=0
PairPos2: "'kern' Horizontal Kerning lookup 4 per glyph data 0" quotesingle dx=0 dy=0 dh=0 dv=0 dx=0 dy=0 dh=0 dv=0
PairPos2: "'kern' Horizontal Kerning lookup 4 per glyph data 0" quotedbl dx=0 dy=0 dh=0 dv=0 dx=0 dy=0 dh=0 dv=0
EndChar

StartChar: circumflex
Encoding: 710 710 158
Width: 1011
GlyphClass: 2
Flags: W
LayerCount: 2
Fore
SplineSet
585 1536 m 1,0,-1
 887 1258 l 1,1,-1
 887 1246 l 1,2,-1
 658 1246 l 1,3,-1
 501 1392 l 1,4,-1
 346 1246 l 1,5,-1
 121 1246 l 1,6,-1
 121 1261 l 1,7,-1
 418 1536 l 1,8,-1
 585 1536 l 1,0,-1
EndSplineSet
EndChar

StartChar: caron
Encoding: 711 711 159
Width: 961
GlyphClass: 2
Flags: W
LayerCount: 2
Fore
SplineSet
330 1536 m 1,0,-1
 478 1391 l 1,1,-1
 626 1536 l 1,2,-1
 872 1536 l 1,3,-1
 872 1526 l 1,4,-1
 570 1246 l 1,5,-1
 387 1246 l 1,6,-1
 84 1527 l 1,7,-1
 84 1536 l 1,8,-1
 330 1536 l 1,0,-1
EndSplineSet
EndChar

StartChar: breve
Encoding: 728 728 161
Width: 911
GlyphClass: 2
Flags: W
LayerCount: 2
Fore
SplineSet
596 1524 m 1,0,-1
 800 1524 l 1,1,2
 800 1438 800 1438 758 1371.5 c 128,-1,3
 716 1305 716 1305 638 1267.5 c 128,-1,4
 560 1230 560 1230 454 1230 c 0,5,6
 293 1230 293 1230 199.5 1312 c 128,-1,7
 106 1394 106 1394 106 1524 c 1,8,-1
 310 1524 l 1,9,10
 310 1472 310 1472 342.5 1431 c 128,-1,11
 375 1390 375 1390 454 1390 c 0,12,13
 532 1390 532 1390 564 1431 c 128,-1,14
 596 1472 596 1472 596 1524 c 1,0,-1
EndSplineSet
EndChar

StartChar: dotaccent
Encoding: 729 729 162
Width: 542
GlyphClass: 2
Flags: W
LayerCount: 2
Fore
SplineSet
118 1375 m 256,0,1
 118 1433 118 1433 158.5 1471 c 128,-1,2
 199 1509 199 1509 266 1509 c 256,3,4
 333 1509 333 1509 373.5 1471 c 128,-1,5
 414 1433 414 1433 414 1375 c 256,6,7
 414 1317 414 1317 373.5 1279.5 c 128,-1,8
 333 1242 333 1242 266 1242 c 256,9,10
 199 1242 199 1242 158.5 1279.5 c 128,-1,11
 118 1317 118 1317 118 1375 c 256,0,1
EndSplineSet
EndChar

StartChar: ring
Encoding: 730 730 163
Width: 679
GlyphClass: 2
Flags: W
LayerCount: 2
Fore
SplineSet
120 1331 m 0,0,1
 120 1387 120 1387 148.5 1433.5 c 128,-1,2
 177 1480 177 1480 227 1508 c 128,-1,3
 277 1536 277 1536 341 1536 c 0,4,5
 436 1536 436 1536 499.5 1475.5 c 128,-1,6
 563 1415 563 1415 563 1331 c 0,7,8
 563 1275 563 1275 534 1229.5 c 128,-1,9
 505 1184 505 1184 455 1157 c 128,-1,10
 405 1130 405 1130 341 1130 c 0,11,12
 246 1130 246 1130 183 1188.5 c 128,-1,13
 120 1247 120 1247 120 1331 c 0,0,1
234 1331 m 0,14,15
 234 1288 234 1288 263 1256 c 128,-1,16
 292 1224 292 1224 341 1224 c 256,17,18
 390 1224 390 1224 419.5 1255.5 c 128,-1,19
 449 1287 449 1287 449 1331 c 0,20,21
 449 1376 449 1376 419.5 1408.5 c 128,-1,22
 390 1441 390 1441 341 1441 c 256,23,24
 292 1441 292 1441 263 1408.5 c 128,-1,25
 234 1376 234 1376 234 1331 c 0,14,15
EndSplineSet
EndChar

StartChar: ogonek
Encoding: 731 731 164
Width: 616
GlyphClass: 1
Flags: W
LayerCount: 2
Fore
SplineSet
253 59 m 1,0,-1
 403 0 l 1,1,2
 353 -29 353 -29 318.5 -56 c 128,-1,3
 284 -83 284 -83 266.5 -113.5 c 128,-1,4
 249 -144 249 -144 249 -181 c 0,5,6
 249 -209 249 -209 264 -227.5 c 128,-1,7
 279 -246 279 -246 315 -246 c 0,8,9
 343 -246 343 -246 361.5 -239 c 128,-1,10
 380 -232 380 -232 394 -225 c 1,11,-1
 425 -378 l 1,12,13
 400 -393 400 -393 360.5 -407.5 c 128,-1,14
 321 -422 321 -422 260 -422 c 0,15,16
 166 -422 166 -422 100 -369.5 c 128,-1,17
 34 -317 34 -317 34 -216 c 0,18,19
 34 -165 34 -165 54 -116.5 c 128,-1,20
 74 -68 74 -68 122 -23.5 c 128,-1,21
 170 21 170 21 253 59 c 1,0,-1
EndSplineSet
EndChar

StartChar: tilde
Encoding: 732 732 165
Width: 981
GlyphClass: 2
Flags: W
LayerCount: 2
Fore
SplineSet
702 1533 m 1,0,-1
 868 1522 l 1,1,2
 868 1449 868 1449 839 1389.5 c 128,-1,3
 810 1330 810 1330 759 1294.5 c 128,-1,4
 708 1259 708 1259 642 1259 c 0,5,6
 594 1259 594 1259 559.5 1272 c 128,-1,7
 525 1285 525 1285 496 1302.5 c 128,-1,8
 467 1320 467 1320 436.5 1333 c 128,-1,9
 406 1346 406 1346 367 1346 c 0,10,11
 332 1346 332 1346 307.5 1321 c 128,-1,12
 283 1296 283 1296 283 1249 c 1,13,-1
 116 1258 l 1,14,15
 116 1330 116 1330 145 1390 c 128,-1,16
 174 1450 174 1450 225 1486.5 c 128,-1,17
 276 1523 276 1523 341 1523 c 0,18,19
 382 1523 382 1523 416 1509.5 c 128,-1,20
 450 1496 450 1496 481.5 1479 c 128,-1,21
 513 1462 513 1462 546 1449 c 128,-1,22
 579 1436 579 1436 616 1436 c 0,23,24
 651 1436 651 1436 676.5 1461.5 c 128,-1,25
 702 1487 702 1487 702 1533 c 1,0,-1
EndSplineSet
EndChar

StartChar: hungarumlaut
Encoding: 733 733 166
Width: 845
GlyphClass: 2
Flags: W
LayerCount: 2
Fore
SplineSet
412 1234 m 1,0,-1
 638 1535 l 1,1,-1
 894 1535 l 1,2,-1
 627 1234 l 1,3,-1
 412 1234 l 1,0,-1
58 1234 m 1,4,-1
 247 1535 l 1,5,-1
 500 1535 l 1,6,-1
 269 1234 l 1,7,-1
 58 1234 l 1,4,-1
EndSplineSet
EndChar

StartChar: uni02F3
Encoding: 755 755 167
Width: 647
GlyphClass: 1
Flags: W
LayerCount: 2
Fore
SplineSet
146 -231 m 0,0,1
 146 -157 146 -157 200.5 -108.5 c 128,-1,2
 255 -60 255 -60 334 -60 c 0,3,4
 411 -60 411 -60 464 -108.5 c 128,-1,5
 517 -157 517 -157 517 -231 c 0,6,7
 517 -304 517 -304 464 -351.5 c 128,-1,8
 411 -399 411 -399 334 -399 c 0,9,10
 255 -399 255 -399 200.5 -351.5 c 128,-1,11
 146 -304 146 -304 146 -231 c 0,0,1
259 -231 m 0,12,13
 259 -263 259 -263 280.5 -284 c 128,-1,14
 302 -305 302 -305 334 -305 c 0,15,16
 364 -305 364 -305 384 -284 c 128,-1,17
 404 -263 404 -263 404 -231 c 0,18,19
 404 -197 404 -197 384 -175.5 c 128,-1,20
 364 -154 364 -154 334 -154 c 0,21,22
 302 -154 302 -154 280.5 -175.5 c 128,-1,23
 259 -197 259 -197 259 -231 c 0,12,13
EndSplineSet
EndChar

StartChar: gravecomb
Encoding: 768 768 168
Width: 0
GlyphClass: 4
Flags: W
LayerCount: 2
Fore
SplineSet
-580 1536 m 1,0,-1
 -383 1228 l 1,1,-1
 -619 1228 l 1,2,-1
 -894 1536 l 1,3,-1
 -580 1536 l 1,0,-1
EndSplineSet
EndChar

StartChar: acutecomb
Encoding: 769 769 169
Width: 0
GlyphClass: 4
Flags: W
LayerCount: 2
Fore
SplineSet
-680 1228 m 1,0,-1
 -484 1536 l 1,1,-1
 -171 1536 l 1,2,-1
 -446 1228 l 1,3,-1
 -680 1228 l 1,0,-1
EndSplineSet
EndChar

StartChar: hookabovecomb
Encoding: 777 777 171
Width: 0
GlyphClass: 4
Flags: W
LayerCount: 2
Fore
SplineSet
-502 1265 m 1,0,-1
 -719 1265 l 1,1,-1
 -735 1399 l 1,2,3
 -685 1402 -685 1402 -654.5 1409.5 c 128,-1,4
 -624 1417 -624 1417 -609.5 1431 c 128,-1,5
 -595 1445 -595 1445 -595 1466 c 256,6,7
 -595 1487 -595 1487 -605.5 1500.5 c 128,-1,8
 -616 1514 -616 1514 -636 1521.5 c 128,-1,9
 -656 1529 -656 1529 -682 1532.5 c 128,-1,10
 -708 1536 -708 1536 -739 1536 c 1,11,-1
 -732 1668 l 1,12,13
 -639 1668 -639 1668 -567.5 1655 c 128,-1,14
 -496 1642 -496 1642 -448 1616.5 c 128,-1,15
 -400 1591 -400 1591 -375.5 1555 c 128,-1,16
 -351 1519 -351 1519 -351 1474 c 0,17,18
 -351 1405 -351 1405 -398 1371.5 c 128,-1,19
 -445 1338 -445 1338 -502 1330 c 1,20,-1
 -502 1265 l 1,0,-1
EndSplineSet
EndChar

StartChar: uni030F
Encoding: 783 783 172
Width: 0
GlyphClass: 4
Flags: W
LayerCount: 2
Fore
SplineSet
-514 1252 m 1,0,-1
 -752 1252 l 1,1,-1
 -1042 1518 l 1,2,-1
 -760 1518 l 1,3,-1
 -514 1252 l 1,0,-1
-172 1252 m 1,4,-1
 -406 1252 l 1,5,-1
 -651 1518 l 1,6,-1
 -373 1518 l 1,7,-1
 -172 1252 l 1,4,-1
EndSplineSet
EndChar

StartChar: dotbelowcomb
Encoding: 803 803 173
Width: 0
GlyphClass: 4
Flags: W
LayerCount: 2
Fore
SplineSet
-761 -235 m 0,0,1
 -761 -177 -761 -177 -717 -138.5 c 128,-1,2
 -673 -100 -673 -100 -599 -100 c 0,3,4
 -526 -100 -526 -100 -481.5 -138.5 c 128,-1,5
 -437 -177 -437 -177 -437 -235 c 0,6,7
 -437 -292 -437 -292 -481.5 -331 c 128,-1,8
 -526 -370 -526 -370 -599 -370 c 0,9,10
 -673 -370 -673 -370 -717 -331 c 128,-1,11
 -761 -292 -761 -292 -761 -235 c 0,0,1
EndSplineSet
EndChar

StartChar: tonos
Encoding: 900 900 174
Width: 697
GlyphClass: 1
Flags: W
LayerCount: 2
Fore
SplineSet
222 1258 m 1,0,-1
 297 1601 l 1,1,-1
 559 1601 l 1,2,-1
 394 1258 l 1,3,-1
 222 1258 l 1,0,-1
EndSplineSet
EndChar

StartChar: dieresistonos
Encoding: 901 901 175
Width: 1123
GlyphClass: 1
Flags: W
LayerCount: 2
Fore
SplineSet
467 1419 m 1,0,-1
 507 1745 l 1,1,-1
 766 1745 l 1,2,-1
 612 1419 l 1,3,-1
 467 1419 l 1,0,-1
106 1367 m 256,4,5
 106 1419 106 1419 145 1455.5 c 128,-1,6
 184 1492 184 1492 243 1492 c 256,7,8
 302 1492 302 1492 341.5 1455.5 c 128,-1,9
 381 1419 381 1419 381 1367 c 256,10,11
 381 1315 381 1315 341.5 1279 c 128,-1,12
 302 1243 302 1243 243 1243 c 256,13,14
 184 1243 184 1243 145 1279 c 128,-1,15
 106 1315 106 1315 106 1367 c 256,4,5
719 1366 m 0,16,17
 719 1419 719 1419 758.5 1455 c 128,-1,18
 798 1491 798 1491 857 1491 c 256,19,20
 916 1491 916 1491 955.5 1455 c 128,-1,21
 995 1419 995 1419 995 1366 c 0,22,23
 995 1314 995 1314 955.5 1278.5 c 128,-1,24
 916 1243 916 1243 857 1243 c 256,25,26
 798 1243 798 1243 758.5 1278.5 c 128,-1,27
 719 1314 719 1314 719 1366 c 0,16,17
EndSplineSet
EndChar

StartChar: Gamma
Encoding: 915 915 177
Width: 1141
GlyphClass: 2
Flags: W
LayerCount: 2
Fore
SplineSet
1086 1456 m 1,0,-1
 1086 1221 l 1,1,-1
 430 1221 l 1,2,-1
 430 0 l 1,3,-1
 131 0 l 1,4,-1
 131 1456 l 1,5,-1
 1086 1456 l 1,0,-1
EndSplineSet
Substitution2: "'c2sc' Capitals to Small Capitals lookup 0 subtable" Gamma.c2sc
Position2: "'cpsp' Capital Spacing lookup 0 subtable" dx=36 dy=0 dh=72 dv=0
EndChar

StartChar: uni0394
Encoding: 916 916 178
AltUni2: 002206.ffffffff.0 002206.ffffffff.0
Width: 1499
GlyphClass: 1
Flags: W
LayerCount: 2
Fore
SplineSet
840 1332 m 1,0,-1
 336 0 l 1,1,-1
 22 0 l 1,2,-1
 601 1456 l 1,3,-1
 766 1456 l 1,4,-1
 840 1332 l 1,0,-1
1173 0 m 1,5,-1
 671 1341 l 1,6,-1
 748 1456 l 1,7,-1
 914 1456 l 1,8,-1
 1488 0 l 1,9,-1
 1173 0 l 1,5,-1
1205 234 m 1,10,-1
 1205 0 l 1,11,-1
 264 0 l 1,12,-1
 264 234 l 1,13,-1
 1205 234 l 1,10,-1
EndSplineSet
Substitution2: "'c2sc' Capitals to Small Capitals lookup 0 subtable" uni0394.c2sc
PairPos2: "'kern' Horizontal Kerning lookup 4 per glyph data 0" question dx=0 dy=0 dh=-75 dv=0 dx=0 dy=0 dh=0 dv=0
Position2: "'cpsp' Capital Spacing lookup 0 subtable" dx=36 dy=0 dh=72 dv=0
EndChar

StartChar: Theta
Encoding: 920 920 179
Width: 1409
GlyphClass: 1
Flags: W
LayerCount: 2
Fore
SplineSet
899 836 m 1,0,-1
 899 612 l 1,1,-1
 519 612 l 1,2,-1
 519 836 l 1,3,-1
 899 836 l 1,0,-1
1323 762 m 2,4,-1
 1323 693 l 2,5,6
 1323 527 1323 527 1278.5 395 c 128,-1,7
 1234 263 1234 263 1151 170.5 c 128,-1,8
 1068 78 1068 78 955 29 c 128,-1,9
 842 -20 842 -20 704 -20 c 0,10,11
 595 -20 595 -20 499.5 11.5 c 128,-1,12
 404 43 404 43 327.5 103.5 c 128,-1,13
 251 164 251 164 196 251 c 128,-1,14
 141 338 141 338 112 449 c 128,-1,15
 83 560 83 560 83 693 c 2,16,-1
 83 762 l 2,17,18
 83 929 83 929 128 1060.5 c 128,-1,19
 173 1192 173 1192 255.5 1285 c 128,-1,20
 338 1378 338 1378 451.5 1427 c 128,-1,21
 565 1476 565 1476 702 1476 c 0,22,23
 812 1476 812 1476 907 1444.5 c 128,-1,24
 1002 1413 1002 1413 1079 1352.5 c 128,-1,25
 1156 1292 1156 1292 1210.5 1205 c 128,-1,26
 1265 1118 1265 1118 1294 1007 c 128,-1,27
 1323 896 1323 896 1323 762 c 2,4,-1
1020 693 m 2,28,-1
 1020 764 l 2,29,30
 1020 856 1020 856 1006.5 931 c 128,-1,31
 993 1006 993 1006 966.5 1063 c 128,-1,32
 940 1120 940 1120 901.5 1158.5 c 128,-1,33
 863 1197 863 1197 813 1217 c 128,-1,34
 763 1237 763 1237 702 1237 c 0,35,36
 626 1237 626 1237 567.5 1206.5 c 128,-1,37
 509 1176 509 1176 468.5 1116 c 128,-1,38
 428 1056 428 1056 407 968 c 128,-1,39
 386 880 386 880 386 764 c 2,40,-1
 386 693 l 2,41,42
 386 601 386 601 399.5 526 c 128,-1,43
 413 451 413 451 439.5 393.5 c 128,-1,44
 466 336 466 336 504.5 297 c 128,-1,45
 543 258 543 258 593 238 c 128,-1,46
 643 218 643 218 704 218 c 0,47,48
 780 218 780 218 838.5 249 c 128,-1,49
 897 280 897 280 937.5 340.5 c 128,-1,50
 978 401 978 401 999 489.5 c 128,-1,51
 1020 578 1020 578 1020 693 c 2,28,-1
EndSplineSet
Substitution2: "'c2sc' Capitals to Small Capitals lookup 0 subtable" Theta.c2sc
Position2: "'cpsp' Capital Spacing lookup 0 subtable" dx=36 dy=0 dh=72 dv=0
EndChar

StartChar: Lambda
Encoding: 923 923 180
Width: 1325
GlyphClass: 1
Flags: W
LayerCount: 2
Fore
SplineSet
695 1174 m 1,0,-1
 340 0 l 1,1,-1
 17 0 l 1,2,-1
 504 1456 l 1,3,-1
 722 1456 l 1,4,-1
 695 1174 l 1,0,-1
982 0 m 1,5,-1
 626 1178 l 1,6,-1
 600 1456 l 1,7,-1
 818 1456 l 1,8,-1
 1306 0 l 1,9,-1
 982 0 l 1,5,-1
EndSplineSet
Substitution2: "'c2sc' Capitals to Small Capitals lookup 0 subtable" Lambda.c2sc
Position2: "'cpsp' Capital Spacing lookup 0 subtable" dx=36 dy=0 dh=72 dv=0
EndChar

StartChar: Xi
Encoding: 926 926 181
Width: 1160
GlyphClass: 1
Flags: W
LayerCount: 2
Fore
SplineSet
94 0 m 1,0,-1
 94 234 l 1,1,-1
 1080 234 l 1,2,-1
 1080 0 l 1,3,-1
 94 0 l 1,0,-1
211 624 m 1,4,-1
 211 849 l 1,5,-1
 963 849 l 1,6,-1
 963 624 l 1,7,-1
 211 624 l 1,4,-1
119 1221 m 1,8,-1
 119 1456 l 1,9,-1
 1034 1456 l 1,10,-1
 1034 1221 l 1,11,-1
 119 1221 l 1,8,-1
EndSplineSet
Substitution2: "'c2sc' Capitals to Small Capitals lookup 0 subtable" Xi.c2sc
Position2: "'cpsp' Capital Spacing lookup 0 subtable" dx=36 dy=0 dh=72 dv=0
EndChar

StartChar: Pi
Encoding: 928 928 182
Width: 1448
GlyphClass: 1
Flags: W
LayerCount: 2
Fore
SplineSet
1316 1456 m 1,0,-1
 1316 0 l 1,1,-1
 1017 0 l 1,2,-1
 1017 1221 l 1,3,-1
 431 1221 l 1,4,-1
 431 0 l 1,5,-1
 131 0 l 1,6,-1
 131 1456 l 1,7,-1
 1316 1456 l 1,0,-1
EndSplineSet
Substitution2: "'c2sc' Capitals to Small Capitals lookup 0 subtable" Pi.c2sc
Position2: "'cpsp' Capital Spacing lookup 0 subtable" dx=36 dy=0 dh=72 dv=0
EndChar

StartChar: Sigma
Encoding: 931 931 183
Width: 1160
GlyphClass: 1
Flags: W
LayerCount: 2
Fore
SplineSet
1105 233 m 1,0,-1
 1105 0 l 1,1,-1
 185 0 l 1,2,-1
 185 233 l 1,3,-1
 1105 233 l 1,0,-1
1081 1456 m 1,4,-1
 1081 1221 l 1,5,-1
 216 1221 l 1,6,-1
 216 1456 l 1,7,-1
 1081 1456 l 1,4,-1
829 744 m 1,8,-1
 829 727 l 1,9,-1
 308 0 l 1,10,-1
 72 0 l 1,11,-1
 72 148 l 1,12,-1
 512 736 l 1,13,-1
 72 1308 l 1,14,-1
 72 1456 l 1,15,-1
 308 1456 l 1,16,-1
 829 744 l 1,8,-1
EndSplineSet
Substitution2: "'c2sc' Capitals to Small Capitals lookup 0 subtable" Sigma.c2sc
Position2: "'cpsp' Capital Spacing lookup 0 subtable" dx=36 dy=0 dh=72 dv=0
EndChar

StartChar: Phi
Encoding: 934 934 184
Width: 1581
GlyphClass: 1
Flags: W
LayerCount: 2
Fore
SplineSet
914 167 m 2,0,-1
 679 167 l 2,1,2
 543 167 543 167 432.5 205.5 c 128,-1,3
 322 244 322 244 241.5 316.5 c 128,-1,4
 161 389 161 389 118 491 c 128,-1,5
 75 593 75 593 75 718 c 0,6,7
 75 890 75 890 151 1018 c 128,-1,8
 227 1146 227 1146 362.5 1216.5 c 128,-1,9
 498 1287 498 1287 677 1287 c 2,10,-1
 915 1287 l 2,11,12
 1049 1287 1049 1287 1160 1247 c 128,-1,13
 1271 1207 1271 1207 1351 1132.5 c 128,-1,14
 1431 1058 1431 1058 1475 953.5 c 128,-1,15
 1519 849 1519 849 1519 720 c 0,16,17
 1519 553 1519 553 1443 428 c 128,-1,18
 1367 303 1367 303 1231 235 c 128,-1,19
 1095 167 1095 167 914 167 c 2,0,-1
679 418 m 2,20,-1
 916 418 l 2,21,22
 1012 418 1012 418 1080.5 452.5 c 128,-1,23
 1149 487 1149 487 1186.5 554.5 c 128,-1,24
 1224 622 1224 622 1224 720 c 0,25,26
 1224 798 1224 798 1202.5 857 c 128,-1,27
 1181 916 1181 916 1141 956 c 128,-1,28
 1101 996 1101 996 1044.5 1016 c 128,-1,29
 988 1036 988 1036 917 1036 c 2,30,-1
 677 1036 l 2,31,32
 583 1036 583 1036 513.5 1000 c 128,-1,33
 444 964 444 964 406 893.5 c 128,-1,34
 368 823 368 823 368 718 c 0,35,36
 368 644 368 644 389.5 588 c 128,-1,37
 411 532 411 532 452 494 c 128,-1,38
 493 456 493 456 550.5 437 c 128,-1,39
 608 418 608 418 679 418 c 2,20,-1
948 1456 m 1,40,-1
 948 0 l 1,41,-1
 648 0 l 1,42,-1
 648 1456 l 1,43,-1
 948 1456 l 1,40,-1
EndSplineSet
Substitution2: "'c2sc' Capitals to Small Capitals lookup 0 subtable" Phi.c2sc
Position2: "'cpsp' Capital Spacing lookup 0 subtable" dx=36 dy=0 dh=72 dv=0
EndChar

StartChar: Psi
Encoding: 936 936 185
Width: 1492
GlyphClass: 1
Flags: W
LayerCount: 2
Fore
SplineSet
1136 1456 m 1,0,-1
 1437 1456 l 1,1,-1
 1437 989 l 2,2,3
 1437 796 1437 796 1358.5 661 c 128,-1,4
 1280 526 1280 526 1139 455.5 c 128,-1,5
 998 385 998 385 810 385 c 2,6,-1
 676 385 l 2,7,8
 536 385 536 385 421 425 c 128,-1,9
 306 465 306 465 224 542 c 128,-1,10
 142 619 142 619 97.5 731.5 c 128,-1,11
 53 844 53 844 53 989 c 2,12,-1
 53 1456 l 1,13,-1
 353 1456 l 1,14,-1
 353 989 l 2,15,16
 353 896 353 896 376 826.5 c 128,-1,17
 399 757 399 757 442 711 c 128,-1,18
 485 665 485 665 547.5 642 c 128,-1,19
 610 619 610 619 689 619 c 2,20,-1
 822 619 l 2,21,22
 928 619 928 619 997.5 660 c 128,-1,23
 1067 701 1067 701 1101.5 783 c 128,-1,24
 1136 865 1136 865 1136 989 c 2,25,-1
 1136 1456 l 1,0,-1
900 1456 m 1,26,-1
 900 0 l 1,27,-1
 601 0 l 1,28,-1
 601 1456 l 1,29,-1
 900 1456 l 1,26,-1
EndSplineSet
Substitution2: "'c2sc' Capitals to Small Capitals lookup 0 subtable" Psi.c2sc
Position2: "'cpsp' Capital Spacing lookup 0 subtable" dx=36 dy=0 dh=72 dv=0
EndChar

StartChar: uni03A9
Encoding: 937 937 186
AltUni2: 002126.ffffffff.0 002126.ffffffff.0
Width: 1376
GlyphClass: 2
Flags: W
LayerCount: 2
Fore
SplineSet
922 772 m 2,0,-1
 922 862 l 2,1,2
 922 955 922 955 905.5 1025.5 c 128,-1,3
 889 1096 889 1096 857 1143.5 c 128,-1,4
 825 1191 825 1191 780 1215 c 128,-1,5
 735 1239 735 1239 678 1239 c 0,6,7
 623 1239 623 1239 578.5 1215 c 128,-1,8
 534 1191 534 1191 502.5 1143.5 c 128,-1,9
 471 1096 471 1096 454.5 1025.5 c 128,-1,10
 438 955 438 955 438 862 c 2,11,-1
 438 772 l 2,12,13
 438 648 438 648 452.5 556 c 128,-1,14
 467 464 467 464 492 400 c 128,-1,15
 517 336 517 336 552.5 297 c 128,-1,16
 588 258 588 258 630 241 c 1,17,-1
 630 97 l 1,18,19
 534 108 534 108 440 164.5 c 128,-1,20
 346 221 346 221 270.5 312 c 128,-1,21
 195 403 195 403 149.5 520.5 c 128,-1,22
 104 638 104 638 104 772 c 2,23,-1
 104 860 l 2,24,25
 104 996 104 996 145.5 1108.5 c 128,-1,26
 187 1221 187 1221 263.5 1303 c 128,-1,27
 340 1385 340 1385 445 1430 c 128,-1,28
 550 1475 550 1475 678 1475 c 0,29,30
 808 1475 808 1475 913.5 1430 c 128,-1,31
 1019 1385 1019 1385 1096 1303 c 128,-1,32
 1173 1221 1173 1221 1214.5 1108.5 c 128,-1,33
 1256 996 1256 996 1256 860 c 2,34,-1
 1256 772 l 2,35,36
 1256 638 1256 638 1211.5 521 c 128,-1,37
 1167 404 1167 404 1091.5 313 c 128,-1,38
 1016 222 1016 222 923.5 165.5 c 128,-1,39
 831 109 831 109 736 97 c 1,40,-1
 736 241 l 1,41,42
 776 259 776 259 810 298 c 128,-1,43
 844 337 844 337 869 401 c 128,-1,44
 894 465 894 465 908 557 c 128,-1,45
 922 649 922 649 922 772 c 2,0,-1
736 0 m 1,46,-1
 736 236 l 1,47,-1
 1239 236 l 1,48,-1
 1239 0 l 1,49,-1
 736 0 l 1,46,-1
119 0 m 1,50,-1
 119 236 l 1,51,-1
 630 236 l 1,52,-1
 630 0 l 1,53,-1
 119 0 l 1,50,-1
EndSplineSet
Substitution2: "'c2sc' Capitals to Small Capitals lookup 0 subtable" uni03A9.c2sc
Position2: "'cpsp' Capital Spacing lookup 0 subtable" dx=36 dy=0 dh=72 dv=0
EndChar

StartChar: alpha
Encoding: 945 945 187
Width: 1154
GlyphClass: 2
Flags: W
LayerCount: 2
Fore
SplineSet
74 513 m 2,0,-1
 74 534 l 2,1,2
 74 658 74 658 101.5 762 c 128,-1,3
 129 866 129 866 182.5 942 c 128,-1,4
 236 1018 236 1018 315 1060 c 128,-1,5
 394 1102 394 1102 497 1102 c 0,6,7
 568 1102 568 1102 624.5 1075.5 c 128,-1,8
 681 1049 681 1049 723.5 999 c 128,-1,9
 766 949 766 949 796 880.5 c 128,-1,10
 826 812 826 812 846 728.5 c 128,-1,11
 866 645 866 645 877 550 c 1,12,-1
 877 506 l 1,13,14
 864 393 864 393 836 297 c 128,-1,15
 808 201 808 201 763 129.5 c 128,-1,16
 718 58 718 58 651.5 19 c 128,-1,17
 585 -20 585 -20 495 -20 c 0,18,19
 393 -20 393 -20 314.5 19 c 128,-1,20
 236 58 236 58 182 129.5 c 128,-1,21
 128 201 128 201 101 298.5 c 128,-1,22
 74 396 74 396 74 513 c 2,0,-1
363 534 m 2,23,-1
 363 513 l 2,24,25
 363 446 363 446 373.5 390.5 c 128,-1,26
 384 335 384 335 408 293 c 128,-1,27
 432 251 432 251 471 228 c 128,-1,28
 510 205 510 205 567 205 c 0,29,30
 623 205 623 205 662.5 226 c 128,-1,31
 702 247 702 247 728 284.5 c 128,-1,32
 754 322 754 322 769 373.5 c 128,-1,33
 784 425 784 425 791 488 c 1,34,-1
 791 562 l 1,35,36
 785 631 785 631 770.5 688.5 c 128,-1,37
 756 746 756 746 729.5 788 c 128,-1,38
 703 830 703 830 663.5 853.5 c 128,-1,39
 624 877 624 877 569 877 c 0,40,41
 513 877 513 877 473.5 850 c 128,-1,42
 434 823 434 823 409.5 776 c 128,-1,43
 385 729 385 729 374 666.5 c 128,-1,44
 363 604 363 604 363 534 c 2,23,-1
780 1082 m 1,45,-1
 1030 1082 l 1,46,-1
 1030 346 l 2,47,48
 1030 307 1030 307 1035 281 c 128,-1,49
 1040 255 1040 255 1049.5 239 c 128,-1,50
 1059 223 1059 223 1072.5 216.5 c 128,-1,51
 1086 210 1086 210 1103 210 c 0,52,53
 1111 210 1111 210 1116 211.5 c 128,-1,54
 1121 213 1121 213 1125 214 c 1,55,-1
 1149 4 l 1,56,57
 1117 -12 1117 -12 1088 -16.5 c 128,-1,58
 1059 -21 1059 -21 1025 -21 c 0,59,60
 966 -21 966 -21 918 -3 c 128,-1,61
 870 15 870 15 833.5 52.5 c 128,-1,62
 797 90 797 90 774 147.5 c 128,-1,63
 751 205 751 205 742 284 c 1,64,-1
 742 850 l 1,65,-1
 780 1082 l 1,45,-1
EndSplineSet
Substitution2: "'ss02' Style Set 2 lookup 13 subtable" alpha.ss02
Substitution2: "'smcp' Lowercase to Small Capitals lookup 1 subtable" Alpha.c2sc
EndChar

StartChar: beta
Encoding: 946 946 188
Width: 1233
GlyphClass: 1
Flags: W
LayerCount: 2
Fore
SplineSet
558 804 m 1,0,-1
 694 804 l 2,1,2
 842 804 842 804 946 756 c 128,-1,3
 1050 708 1050 708 1105 621 c 128,-1,4
 1160 534 1160 534 1160 414 c 0,5,6
 1160 276 1160 276 1106.5 179 c 128,-1,7
 1053 82 1053 82 953 31 c 128,-1,8
 853 -20 853 -20 715 -20 c 0,9,10
 636 -20 636 -20 554 3.5 c 128,-1,11
 472 27 472 27 402.5 77 c 128,-1,12
 333 127 333 127 291 204.5 c 128,-1,13
 249 282 249 282 249 390 c 1,14,-1
 355 403 l 1,15,16
 355 348 355 348 392 303 c 128,-1,17
 429 258 429 258 495 231.5 c 128,-1,18
 561 205 561 205 649 205 c 0,19,20
 720 205 720 205 769.5 233 c 128,-1,21
 819 261 819 261 845.5 309 c 128,-1,22
 872 357 872 357 872 418 c 0,23,24
 872 490 872 490 847 542.5 c 128,-1,25
 822 595 822 595 773 623.5 c 128,-1,26
 724 652 724 652 653 652 c 2,27,-1
 558 652 l 1,28,-1
 558 804 l 1,0,-1
627 1476 m 0,29,30
 769 1476 769 1476 874.5 1429.5 c 128,-1,31
 980 1383 980 1383 1038 1295.5 c 128,-1,32
 1096 1208 1096 1208 1096 1083 c 0,33,34
 1096 980 1096 980 1042 897 c 128,-1,35
 988 814 988 814 891 765 c 128,-1,36
 794 716 794 716 664 716 c 2,37,-1
 558 716 l 1,38,-1
 558 857 l 1,39,-1
 623 857 l 2,40,41
 689 857 689 857 729.5 882 c 128,-1,42
 770 907 770 907 788.5 953 c 128,-1,43
 807 999 807 999 807 1063 c 0,44,45
 807 1112 807 1112 787.5 1155 c 128,-1,46
 768 1198 768 1198 728 1224.5 c 128,-1,47
 688 1251 688 1251 627 1251 c 0,48,49
 571 1251 571 1251 526.5 1224.5 c 128,-1,50
 482 1198 482 1198 456.5 1150 c 128,-1,51
 431 1102 431 1102 431 1036 c 2,52,-1
 431 -405 l 1,53,-1
 143 -405 l 1,54,-1
 143 1036 l 2,55,56
 143 1168 143 1168 209 1267 c 128,-1,57
 275 1366 275 1366 384.5 1421 c 128,-1,58
 494 1476 494 1476 627 1476 c 0,29,30
EndSplineSet
Substitution2: "'smcp' Lowercase to Small Capitals lookup 1 subtable" Beta.c2sc
EndChar

StartChar: gamma
Encoding: 947 947 189
Width: 1045
GlyphClass: 1
Flags: W
LayerCount: 2
Fore
SplineSet
666 90 m 1,0,-1
 666 -417 l 1,1,-1
 378 -417 l 1,2,-1
 378 90 l 1,3,-1
 666 90 l 1,0,-1
508 264 m 1,4,-1
 728 1082 l 1,5,-1
 1030 1082 l 1,6,-1
 662 0 l 1,7,-1
 467 0 l 1,8,-1
 508 264 l 1,4,-1
318 1082 m 1,9,-1
 548 258 l 1,10,-1
 578 0 l 1,11,-1
 384 0 l 1,12,-1
 16 1082 l 1,13,-1
 318 1082 l 1,9,-1
EndSplineSet
Substitution2: "'smcp' Lowercase to Small Capitals lookup 1 subtable" Gamma.c2sc
EndChar

StartChar: delta
Encoding: 948 948 190
Width: 1155
GlyphClass: 1
Flags: W
LayerCount: 2
Fore
SplineSet
191 1252 m 0,0,1
 191 1353 191 1353 241 1424.5 c 128,-1,2
 291 1496 291 1496 382.5 1534 c 128,-1,3
 474 1572 474 1572 602 1572 c 0,4,5
 681 1572 681 1572 736 1560.5 c 128,-1,6
 791 1549 791 1549 865 1526 c 1,7,-1
 864 1311 l 1,8,9
 825 1324 825 1324 762.5 1341.5 c 128,-1,10
 700 1359 700 1359 629 1359 c 0,11,12
 578 1359 578 1359 541.5 1347 c 128,-1,13
 505 1335 505 1335 485 1312.5 c 128,-1,14
 465 1290 465 1290 465 1258 c 0,15,16
 465 1243 465 1243 471.5 1226 c 128,-1,17
 478 1209 478 1209 494.5 1191 c 128,-1,18
 511 1173 511 1173 542 1154 c 128,-1,19
 573 1135 573 1135 624 1117 c 0,20,21
 780 1064 780 1064 885 983.5 c 128,-1,22
 990 903 990 903 1043.5 793.5 c 128,-1,23
 1097 684 1097 684 1097 544 c 2,24,-1
 1097 523 l 2,25,26
 1097 408 1097 408 1062 309 c 128,-1,27
 1027 210 1027 210 961 136 c 128,-1,28
 895 62 895 62 799.5 21 c 128,-1,29
 704 -20 704 -20 583 -20 c 0,30,31
 461 -20 461 -20 365 20 c 128,-1,32
 269 60 269 60 202.5 132 c 128,-1,33
 136 204 136 204 101.5 300.5 c 128,-1,34
 67 397 67 397 67 510 c 2,35,-1
 67 530 l 2,36,37
 67 644 67 644 110.5 737.5 c 128,-1,38
 154 831 154 831 226.5 894 c 128,-1,39
 299 957 299 957 383 978 c 1,40,-1
 380 984 l 1,41,42
 323 1013 323 1013 280.5 1052.5 c 128,-1,43
 238 1092 238 1092 214.5 1142 c 128,-1,44
 191 1192 191 1192 191 1252 c 0,0,1
355 556 m 2,45,-1
 355 535 l 2,46,47
 355 468 355 468 368.5 408 c 128,-1,48
 382 348 382 348 410 302.5 c 128,-1,49
 438 257 438 257 481 230.5 c 128,-1,50
 524 204 524 204 583 204 c 256,51,52
 642 204 642 204 684 230.5 c 128,-1,53
 726 257 726 257 754 302.5 c 128,-1,54
 782 348 782 348 795.5 408 c 128,-1,55
 809 468 809 468 809 535 c 2,56,-1
 809 556 l 2,57,58
 809 609 809 609 793 661.5 c 128,-1,59
 777 714 777 714 747.5 759.5 c 128,-1,60
 718 805 718 805 677 836.5 c 128,-1,61
 636 868 636 868 584 878 c 1,62,63
 526 878 526 878 482.5 852 c 128,-1,64
 439 826 439 826 411 781.5 c 128,-1,65
 383 737 383 737 369 679 c 128,-1,66
 355 621 355 621 355 556 c 2,45,-1
EndSplineSet
Substitution2: "'smcp' Lowercase to Small Capitals lookup 1 subtable" uni0394.c2sc
EndChar

StartChar: epsilon
Encoding: 949 949 191
Width: 1142
GlyphClass: 2
Flags: W
LayerCount: 2
Fore
SplineSet
525 588 m 2,0,-1
 771 588 l 1,1,-1
 771 459 l 1,2,-1
 586 459 l 2,3,4
 525 459 525 459 479 446 c 128,-1,5
 433 433 433 433 408.5 403.5 c 128,-1,6
 384 374 384 374 384 326 c 0,7,8
 384 300 384 300 396 275.5 c 128,-1,9
 408 251 408 251 433.5 232.5 c 128,-1,10
 459 214 459 214 496.5 202.5 c 128,-1,11
 534 191 534 191 583 191 c 0,12,13
 650 191 650 191 695 209 c 128,-1,14
 740 227 740 227 763 256.5 c 128,-1,15
 786 286 786 286 786 320 c 1,16,-1
 1074 320 l 1,17,18
 1074 232 1074 232 1033 167.5 c 128,-1,19
 992 103 992 103 924 61.5 c 128,-1,20
 856 20 856 20 771 0 c 128,-1,21
 686 -20 686 -20 599 -20 c 0,22,23
 493 -20 493 -20 401 2 c 128,-1,24
 309 24 309 24 240.5 66 c 128,-1,25
 172 108 172 108 134 168.5 c 128,-1,26
 96 229 96 229 96 306 c 0,27,28
 96 374 96 374 125 426.5 c 128,-1,29
 154 479 154 479 209.5 515 c 128,-1,30
 265 551 265 551 345 569.5 c 128,-1,31
 425 588 425 588 525 588 c 2,0,-1
771 516 m 1,32,-1
 525 516 l 2,33,34
 434 516 434 516 359 537 c 128,-1,35
 284 558 284 558 229 595.5 c 128,-1,36
 174 633 174 633 144.5 682 c 128,-1,37
 115 731 115 731 115 786 c 0,38,39
 115 863 115 863 150 921.5 c 128,-1,40
 185 980 185 980 249.5 1020 c 128,-1,41
 314 1060 314 1060 403.5 1080.5 c 128,-1,42
 493 1101 493 1101 599 1101 c 0,43,44
 693 1101 693 1101 776 1078.5 c 128,-1,45
 859 1056 859 1056 922 1013.5 c 128,-1,46
 985 971 985 971 1021 910.5 c 128,-1,47
 1057 850 1057 850 1057 772 c 1,48,-1
 769 772 l 1,49,50
 769 809 769 809 745 835.5 c 128,-1,51
 721 862 721 862 679 876 c 128,-1,52
 637 890 637 890 584 890 c 0,53,54
 520 890 520 890 480 871.5 c 128,-1,55
 440 853 440 853 421.5 824.5 c 128,-1,56
 403 796 403 796 403 765 c 0,57,58
 403 738 403 738 415 716.5 c 128,-1,59
 427 695 427 695 449.5 679.5 c 128,-1,60
 472 664 472 664 506.5 655.5 c 128,-1,61
 541 647 541 647 586 647 c 2,62,-1
 771 647 l 1,63,-1
 771 516 l 1,32,-1
EndSplineSet
Substitution2: "'smcp' Lowercase to Small Capitals lookup 1 subtable" Epsilon.c2sc
EndChar

StartChar: zeta
Encoding: 950 950 192
Width: 1020
GlyphClass: 1
Flags: W
LayerCount: 2
Fore
SplineSet
786 1456 m 1,0,-1
 965 1456 l 1,1,-1
 965 1297 l 1,2,-1
 602 865 l 2,3,4
 537 787 537 787 492 719.5 c 128,-1,5
 447 652 447 652 424.5 581.5 c 128,-1,6
 402 511 402 511 402 423 c 0,7,8
 402 376 402 376 413.5 343.5 c 128,-1,9
 425 311 425 311 446 289 c 128,-1,10
 467 267 467 267 498.5 252.5 c 128,-1,11
 530 238 530 238 570 226 c 2,12,-1
 646 202 l 2,13,14
 733 178 733 178 798 150 c 128,-1,15
 863 122 863 122 900 75 c 128,-1,16
 937 28 937 28 936 -54 c 0,17,18
 936 -112 936 -112 900.5 -176 c 128,-1,19
 865 -240 865 -240 811.5 -296.5 c 128,-1,20
 758 -353 758 -353 703 -389 c 1,21,-1
 556 -280 l 1,22,23
 589 -247 589 -247 609.5 -216.5 c 128,-1,24
 630 -186 630 -186 640 -159 c 128,-1,25
 650 -132 650 -132 649 -111 c 0,26,27
 650 -88 650 -88 640 -69.5 c 128,-1,28
 630 -51 630 -51 605.5 -37 c 128,-1,29
 581 -23 581 -23 538 -12 c 2,30,-1
 464 8 l 2,31,32
 374 32 374 32 308 65.5 c 128,-1,33
 242 99 242 99 199.5 144 c 128,-1,34
 157 189 157 189 136.5 248 c 128,-1,35
 116 307 116 307 116 381 c 0,36,37
 116 490 116 490 147 587 c 128,-1,38
 178 684 178 684 238 780 c 128,-1,39
 298 876 298 876 385 981 c 2,40,-1
 786 1456 l 1,0,-1
72 1456 m 1,41,-1
 836 1456 l 1,42,-1
 836 1233 l 1,43,-1
 72 1233 l 1,44,-1
 72 1456 l 1,41,-1
EndSplineSet
Substitution2: "'smcp' Lowercase to Small Capitals lookup 1 subtable" Zeta.c2sc
EndChar

StartChar: eta
Encoding: 951 951 193
Width: 1155
GlyphClass: 2
Flags: W
LayerCount: 2
Fore
SplineSet
396 851 m 1,0,-1
 396 0 l 1,1,-1
 108 0 l 1,2,-1
 108 1082 l 1,3,-1
 377 1082 l 1,4,-1
 396 851 l 1,0,-1
341 577 m 1,5,-1
 278 575 l 1,6,7
 278 690 278 690 307.5 786 c 128,-1,8
 337 882 337 882 392.5 953 c 128,-1,9
 448 1024 448 1024 526 1063 c 128,-1,10
 604 1102 604 1102 700 1102 c 0,11,12
 778 1102 778 1102 841.5 1080.5 c 128,-1,13
 905 1059 905 1059 951 1011 c 128,-1,14
 997 963 997 963 1022 884.5 c 128,-1,15
 1047 806 1047 806 1047 692 c 2,16,-1
 1047 -416 l 1,17,-1
 758 -416 l 1,18,-1
 758 692 l 2,19,20
 758 741 758 741 747 776 c 128,-1,21
 736 811 736 811 714.5 833.5 c 128,-1,22
 693 856 693 856 663 866.5 c 128,-1,23
 633 877 633 877 594 877 c 0,24,25
 531 877 531 877 483.5 854 c 128,-1,26
 436 831 436 831 404.5 790 c 128,-1,27
 373 749 373 749 357 694.5 c 128,-1,28
 341 640 341 640 341 577 c 1,5,-1
EndSplineSet
Substitution2: "'smcp' Lowercase to Small Capitals lookup 1 subtable" Eta.c2sc
EndChar

StartChar: theta
Encoding: 952 952 194
Width: 1210
GlyphClass: 1
Flags: W
LayerCount: 2
Fore
SplineSet
605 1476 m 256,0,1
 693 1476 693 1476 768.5 1452 c 128,-1,2
 844 1428 844 1428 905 1379 c 128,-1,3
 966 1330 966 1330 1009 1255.5 c 128,-1,4
 1052 1181 1052 1181 1075 1079.5 c 128,-1,5
 1098 978 1098 978 1098 849 c 2,6,-1
 1098 610 l 2,7,8
 1098 481 1098 481 1075 379 c 128,-1,9
 1052 277 1052 277 1009.5 202.5 c 128,-1,10
 967 128 967 128 906.5 78 c 128,-1,11
 846 28 846 28 770.5 4 c 128,-1,12
 695 -20 695 -20 607 -20 c 256,13,14
 519 -20 519 -20 443 4 c 128,-1,15
 367 28 367 28 306.5 78 c 128,-1,16
 246 128 246 128 203 202.5 c 128,-1,17
 160 277 160 277 137 379 c 128,-1,18
 114 481 114 481 114 610 c 2,19,-1
 114 849 l 2,20,21
 114 978 114 978 137 1079.5 c 128,-1,22
 160 1181 160 1181 202.5 1255.5 c 128,-1,23
 245 1330 245 1330 305 1379 c 128,-1,24
 365 1428 365 1428 441 1452 c 128,-1,25
 517 1476 517 1476 605 1476 c 256,0,1
605 1251 m 0,26,27
 557 1251 557 1251 519 1230 c 128,-1,28
 481 1209 481 1209 455 1165 c 128,-1,29
 429 1121 429 1121 415.5 1052.5 c 128,-1,30
 402 984 402 984 402 889 c 2,31,-1
 402 840 l 1,32,-1
 810 840 l 1,33,-1
 810 889 l 2,34,35
 810 965 810 965 801 1024 c 128,-1,36
 792 1083 792 1083 775 1126 c 128,-1,37
 758 1169 758 1169 733 1196.5 c 128,-1,38
 708 1224 708 1224 676 1237.5 c 128,-1,39
 644 1251 644 1251 605 1251 c 0,26,27
607 205 m 0,40,41
 645 205 645 205 677 218.5 c 128,-1,42
 709 232 709 232 733.5 260.5 c 128,-1,43
 758 289 758 289 775 332.5 c 128,-1,44
 792 376 792 376 801 435.5 c 128,-1,45
 810 495 810 495 810 572 c 2,46,-1
 810 624 l 1,47,-1
 402 624 l 1,48,-1
 402 572 l 2,49,50
 402 495 402 495 410.5 435.5 c 128,-1,51
 419 376 419 376 436.5 332.5 c 128,-1,52
 454 289 454 289 479 260.5 c 128,-1,53
 504 232 504 232 536 218.5 c 128,-1,54
 568 205 568 205 607 205 c 0,40,41
EndSplineSet
Substitution2: "'smcp' Lowercase to Small Capitals lookup 1 subtable" Theta.c2sc
EndChar

StartChar: iota
Encoding: 953 953 195
Width: 688
GlyphClass: 2
Flags: W
LayerCount: 2
Fore
SplineSet
135 1082 m 1,0,-1
 424 1082 l 1,1,-1
 424 334 l 2,2,3
 424 287 424 287 436 262 c 128,-1,4
 448 237 448 237 473.5 227.5 c 128,-1,5
 499 218 499 218 537 218 c 0,6,7
 564 218 564 218 585 220.5 c 128,-1,8
 606 223 606 223 622 226 c 1,9,-1
 622 15 l 1,10,11
 585 3 585 3 542 -4.5 c 128,-1,12
 499 -12 499 -12 447 -12 c 0,13,14
 352 -12 352 -12 282 20 c 128,-1,15
 212 52 212 52 173.5 122 c 128,-1,16
 135 192 135 192 135 306 c 2,17,-1
 135 1082 l 1,0,-1
EndSplineSet
Substitution2: "'smcp' Lowercase to Small Capitals lookup 1 subtable" Iota.c2sc
EndChar

StartChar: lambda
Encoding: 955 955 196
Width: 1123
GlyphClass: 2
Flags: W
LayerCount: 2
Fore
SplineSet
551 706 m 1,0,-1
 318 0 l 1,1,-1
 8 0 l 1,2,-1
 410 1110 l 1,3,-1
 607 1106 l 1,4,-1
 551 706 l 1,0,-1
287 1544 m 0,5,6
 342 1544 342 1544 385.5 1532 c 128,-1,7
 429 1520 429 1520 462.5 1497.5 c 128,-1,8
 496 1475 496 1475 519.5 1442.5 c 128,-1,9
 543 1410 543 1410 558 1370 c 2,10,-1
 974 318 l 2,11,12
 986 289 986 289 1000.5 264.5 c 128,-1,13
 1015 240 1015 240 1034.5 224.5 c 128,-1,14
 1054 209 1054 209 1081 209 c 0,15,16
 1090 209 1090 209 1098.5 209.5 c 128,-1,17
 1107 210 1107 210 1115 210 c 1,18,-1
 1117 -11 l 1,19,20
 1095 -15 1095 -15 1068 -16.5 c 128,-1,21
 1041 -18 1041 -18 1007 -18 c 0,22,23
 924 -18 924 -18 866 7 c 128,-1,24
 808 32 808 32 770 82 c 128,-1,25
 732 132 732 132 707 204 c 2,26,-1
 435 962 l 1,27,-1
 322 1225 l 2,28,29
 308 1259 308 1259 289.5 1279.5 c 128,-1,30
 271 1300 271 1300 246.5 1309 c 128,-1,31
 222 1318 222 1318 190 1318 c 0,32,33
 176 1318 176 1318 162 1317.5 c 128,-1,34
 148 1317 148 1317 130 1315 c 1,35,-1
 124 1524 l 1,36,37
 157 1533 157 1533 204 1538.5 c 128,-1,38
 251 1544 251 1544 287 1544 c 0,5,6
EndSplineSet
Substitution2: "'smcp' Lowercase to Small Capitals lookup 1 subtable" Lambda.c2sc
EndChar

StartChar: xi
Encoding: 958 958 197
Width: 1089
GlyphClass: 1
Flags: W
LayerCount: 2
Fore
SplineSet
971 1427 m 1,0,-1
 926 1209 l 1,1,2
 874 1222 874 1222 837.5 1230.5 c 128,-1,3
 801 1239 801 1239 769.5 1242.5 c 128,-1,4
 738 1246 738 1246 699 1246 c 0,5,6
 623 1246 623 1246 574 1227.5 c 128,-1,7
 525 1209 525 1209 502 1176.5 c 128,-1,8
 479 1144 479 1144 479 1100 c 0,9,10
 479 1067 479 1067 492 1038.5 c 128,-1,11
 505 1010 505 1010 532 989.5 c 128,-1,12
 559 969 559 969 602.5 957.5 c 128,-1,13
 646 946 646 946 707 946 c 2,14,-1
 857 946 l 1,15,-1
 857 785 l 1,16,-1
 703 785 l 2,17,18
 588 785 588 785 494 805 c 128,-1,19
 400 825 400 825 332 864.5 c 128,-1,20
 264 904 264 904 227.5 962 c 128,-1,21
 191 1020 191 1020 191 1096 c 0,22,23
 191 1185 191 1185 224.5 1255.5 c 128,-1,24
 258 1326 258 1326 320.5 1375 c 128,-1,25
 383 1424 383 1424 470.5 1450 c 128,-1,26
 558 1476 558 1476 666 1476 c 0,27,28
 734 1476 734 1476 785 1470.5 c 128,-1,29
 836 1465 836 1465 880.5 1454 c 128,-1,30
 925 1443 925 1443 971 1427 c 1,0,-1
711 870 m 2,31,-1
 857 870 l 1,32,-1
 857 714 l 1,33,-1
 715 714 l 2,34,35
 612 714 612 714 540 685 c 128,-1,36
 468 656 468 656 430.5 599 c 128,-1,37
 393 542 393 542 393 458 c 0,38,39
 393 386 393 386 426 339 c 128,-1,40
 459 292 459 292 515 263.5 c 128,-1,41
 571 235 571 235 639 219 c 2,42,-1
 735 195 l 2,43,44
 825 174 825 174 890 145 c 128,-1,45
 955 116 955 116 990.5 67.5 c 128,-1,46
 1026 19 1026 19 1025 -59 c 0,47,48
 1025 -117 1025 -117 989.5 -180.5 c 128,-1,49
 954 -244 954 -244 900.5 -300.5 c 128,-1,50
 847 -357 847 -357 792 -393 c 1,51,-1
 643 -284 l 1,52,53
 676 -251 676 -251 697 -221.5 c 128,-1,54
 718 -192 718 -192 728.5 -165 c 128,-1,55
 739 -138 739 -138 739 -114 c 0,56,57
 739 -92 739 -92 727.5 -74.5 c 128,-1,58
 716 -57 716 -57 691.5 -42.5 c 128,-1,59
 667 -28 667 -28 628 -17 c 2,60,-1
 564 2 l 2,61,62
 455 34 455 34 370 66.5 c 128,-1,63
 285 99 285 99 225.5 145 c 128,-1,64
 166 191 166 191 135.5 263.5 c 128,-1,65
 105 336 105 336 105 448 c 0,66,67
 105 551 105 551 146 629.5 c 128,-1,68
 187 708 187 708 265.5 761.5 c 128,-1,69
 344 815 344 815 456 842.5 c 128,-1,70
 568 870 568 870 711 870 c 2,31,-1
EndSplineSet
Substitution2: "'smcp' Lowercase to Small Capitals lookup 1 subtable" Xi.c2sc
EndChar

